G04*
G04 #@! TF.GenerationSoftware,Altium Limited,Altium Designer,19.0.4 (130)*
G04*
G04 Layer_Color=2752767*
%FSTAX24Y24*%
%MOIN*%
G70*
G01*
G75*
%ADD46C,0.0020*%
%ADD47C,0.0027*%
D46*
X01602Y04092D02*
Y04108D01*
X01618D01*
Y04092D01*
X01602D01*
Y04212D02*
Y04228D01*
X01618D01*
Y04212D01*
X01602D01*
X03015Y029262D02*
X03007Y029422D01*
X03023D01*
X03015Y029262D01*
Y034762D02*
X03007Y034922D01*
X03023D01*
X03015Y034762D01*
X030125Y02434D02*
X030045Y0245D01*
X030205D01*
X030125Y02434D01*
Y01884D02*
X030045Y019D01*
X030205D01*
X030125Y01884D01*
X0139Y01742D02*
X01394Y01746D01*
X01398D01*
X01394Y0175D01*
X01398Y01754D01*
X01394D01*
X0139Y01758D01*
X01386Y01754D01*
X01382D01*
X01386Y0175D01*
X01382Y01746D01*
X01386D01*
X0139Y01742D01*
Y01245D02*
X01394Y01249D01*
X01398D01*
X01394Y01253D01*
X01398Y01257D01*
X01394D01*
X0139Y01261D01*
X01386Y01257D01*
X01382D01*
X01386Y01253D01*
X01382Y01249D01*
X01386D01*
X0139Y01245D01*
X01489Y01343D02*
X01493Y01351D01*
X01489Y01359D01*
X01497Y01355D01*
X01505Y01359D01*
X01501Y01351D01*
X01505Y01343D01*
X01497Y01347D01*
X01489Y01343D01*
Y01443D02*
X01493Y01451D01*
X01489Y01459D01*
X01497Y01455D01*
X01505Y01459D01*
X01501Y01451D01*
X01505Y01443D01*
X01497Y01447D01*
X01489Y01443D01*
Y01543D02*
X01493Y01551D01*
X01489Y01559D01*
X01497Y01555D01*
X01505Y01559D01*
X01501Y01551D01*
X01505Y01543D01*
X01497Y01547D01*
X01489Y01543D01*
Y01644D02*
X01493Y01652D01*
X01489Y0166D01*
X01497Y01656D01*
X01505Y0166D01*
X01501Y01652D01*
X01505Y01644D01*
X01497Y01648D01*
X01489Y01644D01*
X033906Y046134D02*
Y046294D01*
X034066D01*
Y046134D01*
X033906D01*
X035106D02*
Y046294D01*
X035266D01*
Y046134D01*
X035106D01*
X028476Y039134D02*
Y039294D01*
X028636D01*
Y039134D01*
X028476D01*
X029676D02*
Y039294D01*
X029836D01*
Y039134D01*
X029676D01*
X03087D02*
Y039294D01*
X03103D01*
Y039134D01*
X03087D01*
X03207D02*
Y039294D01*
X03223D01*
Y039134D01*
X03207D01*
Y044634D02*
Y044794D01*
X03223D01*
Y044634D01*
X03207D01*
X03087D02*
Y044794D01*
X03103D01*
Y044634D01*
X03087D01*
X029676D02*
Y044794D01*
X029836D01*
Y044634D01*
X029676D01*
X028476D02*
Y044794D01*
X028636D01*
Y044634D01*
X028476D01*
X033254Y02596D02*
Y02592D01*
X033334D01*
Y02596D01*
X033374D01*
Y02604D01*
X033334D01*
Y02608D01*
X033254D01*
Y02604D01*
X033214D01*
Y02596D01*
X033254D01*
Y02696D02*
Y02692D01*
X033334D01*
Y02696D01*
X033374D01*
Y02704D01*
X033334D01*
Y02708D01*
X033254D01*
Y02704D01*
X033214D01*
Y02696D01*
X033254D01*
Y02166D02*
Y02162D01*
X033334D01*
Y02166D01*
X033374D01*
Y02174D01*
X033334D01*
Y02178D01*
X033254D01*
Y02174D01*
X033214D01*
Y02166D01*
X033254D01*
Y02266D02*
Y02262D01*
X033334D01*
Y02266D01*
X033374D01*
Y02274D01*
X033334D01*
Y02278D01*
X033254D01*
Y02274D01*
X033214D01*
Y02266D01*
X033254D01*
X013742Y04282D02*
X013782D01*
X013822Y04286D01*
X013862Y04282D01*
X013902D01*
Y04286D01*
X013862Y0429D01*
X013902Y04294D01*
Y04298D01*
X013862D01*
X013822Y04294D01*
X013782Y04298D01*
X013742D01*
Y04294D01*
X013782Y0429D01*
X013742Y04286D01*
Y04282D01*
X012242Y04482D02*
X012282D01*
X012322Y04486D01*
X012362Y04482D01*
X012402D01*
Y04486D01*
X012362Y0449D01*
X012402Y04494D01*
Y04498D01*
X012362D01*
X012322Y04494D01*
X012282Y04498D01*
X012242D01*
Y04494D01*
X012282Y0449D01*
X012242Y04486D01*
Y04482D01*
X014742D02*
X014782D01*
X014822Y04486D01*
X014862Y04482D01*
X014902D01*
Y04486D01*
X014862Y0449D01*
X014902Y04494D01*
Y04498D01*
X014862D01*
X014822Y04494D01*
X014782Y04498D01*
X014742D01*
Y04494D01*
X014782Y0449D01*
X014742Y04486D01*
Y04482D01*
X013215Y0481D02*
X013295Y04818D01*
X013375Y0481D01*
X013295Y04802D01*
X013215Y0481D01*
Y0491D02*
X013295Y04918D01*
X013375Y0491D01*
X013295Y04902D01*
X013215Y0491D01*
X014215Y0481D02*
X014295Y04818D01*
X014375Y0481D01*
X014295Y04802D01*
X014215Y0481D01*
Y0491D02*
X014295Y04918D01*
X014375Y0491D01*
X014295Y04902D01*
X014215Y0491D01*
X015215Y0481D02*
X015295Y04818D01*
X015375Y0481D01*
X015295Y04802D01*
X015215Y0481D01*
Y0491D02*
X015295Y04918D01*
X015375Y0491D01*
X015295Y04902D01*
X015215Y0491D01*
X016215Y0481D02*
X016295Y04818D01*
X016375Y0481D01*
X016295Y04802D01*
X016215Y0481D01*
Y0491D02*
X016295Y04918D01*
X016375Y0491D01*
X016295Y04902D01*
X016215Y0491D01*
X017215Y0481D02*
X017295Y04818D01*
X017375Y0481D01*
X017295Y04802D01*
X017215Y0481D01*
Y0491D02*
X017295Y04918D01*
X017375Y0491D01*
X017295Y04902D01*
X017215Y0491D01*
X018215Y0481D02*
X018295Y04818D01*
X018375Y0481D01*
X018295Y04802D01*
X018215Y0481D01*
Y0491D02*
X018295Y04918D01*
X018375Y0491D01*
X018295Y04902D01*
X018215Y0491D01*
X019215Y0481D02*
X019295Y04818D01*
X019375Y0481D01*
X019295Y04802D01*
X019215Y0481D01*
Y0491D02*
X019295Y04918D01*
X019375Y0491D01*
X019295Y04902D01*
X019215Y0491D01*
X020215Y0481D02*
X020295Y04818D01*
X020375Y0481D01*
X020295Y04802D01*
X020215Y0481D01*
Y0491D02*
X020295Y04918D01*
X020375Y0491D01*
X020295Y04902D01*
X020215Y0491D01*
X021215Y0481D02*
X021295Y04818D01*
X021375Y0481D01*
X021295Y04802D01*
X021215Y0481D01*
Y0491D02*
X021295Y04918D01*
X021375Y0491D01*
X021295Y04902D01*
X021215Y0491D01*
X022215Y0481D02*
X022295Y04818D01*
X022375Y0481D01*
X022295Y04802D01*
X022215Y0481D01*
Y0491D02*
X022295Y04918D01*
X022375Y0491D01*
X022295Y04902D01*
X022215Y0491D01*
X023215Y0481D02*
X023295Y04818D01*
X023375Y0481D01*
X023295Y04802D01*
X023215Y0481D01*
Y0491D02*
X023295Y04918D01*
X023375Y0491D01*
X023295Y04902D01*
X023215Y0491D01*
X024215Y0481D02*
X024295Y04818D01*
X024375Y0481D01*
X024295Y04802D01*
X024215Y0481D01*
Y0491D02*
X024295Y04918D01*
X024375Y0491D01*
X024295Y04902D01*
X024215Y0491D01*
X025215Y0481D02*
X025295Y04818D01*
X025375Y0481D01*
X025295Y04802D01*
X025215Y0481D01*
Y0491D02*
X025295Y04918D01*
X025375Y0491D01*
X025295Y04902D01*
X025215Y0491D01*
X026215Y0481D02*
X026295Y04818D01*
X026375Y0481D01*
X026295Y04802D01*
X026215Y0481D01*
Y0491D02*
X026295Y04918D01*
X026375Y0491D01*
X026295Y04902D01*
X026215Y0491D01*
X027215Y0481D02*
X027295Y04818D01*
X027375Y0481D01*
X027295Y04802D01*
X027215Y0481D01*
Y0491D02*
X027295Y04918D01*
X027375Y0491D01*
X027295Y04902D01*
X027215Y0491D01*
X028215Y0481D02*
X028295Y04818D01*
X028375Y0481D01*
X028295Y04802D01*
X028215Y0481D01*
Y0491D02*
X028295Y04918D01*
X028375Y0491D01*
X028295Y04902D01*
X028215Y0491D01*
X029215Y0481D02*
X029295Y04818D01*
X029375Y0481D01*
X029295Y04802D01*
X029215Y0481D01*
Y0491D02*
X029295Y04918D01*
X029375Y0491D01*
X029295Y04902D01*
X029215Y0491D01*
X030215Y0481D02*
X030295Y04818D01*
X030375Y0481D01*
X030295Y04802D01*
X030215Y0481D01*
Y0491D02*
X030295Y04918D01*
X030375Y0491D01*
X030295Y04902D01*
X030215Y0491D01*
X031215Y0481D02*
X031295Y04818D01*
X031375Y0481D01*
X031295Y04802D01*
X031215Y0481D01*
Y0491D02*
X031295Y04918D01*
X031375Y0491D01*
X031295Y04902D01*
X031215Y0491D01*
X032215Y0481D02*
X032295Y04818D01*
X032375Y0481D01*
X032295Y04802D01*
X032215Y0481D01*
Y0491D02*
X032295Y04918D01*
X032375Y0491D01*
X032295Y04902D01*
X032215Y0491D01*
X028111Y01376D02*
Y01372D01*
X028191D01*
Y01376D01*
X028231D01*
Y01384D01*
X028191D01*
Y01388D01*
X028111D01*
Y01384D01*
X028071D01*
Y01376D01*
X028111D01*
X027111D02*
Y01372D01*
X027191D01*
Y01376D01*
X027231D01*
Y01384D01*
X027191D01*
Y01388D01*
X027111D01*
Y01384D01*
X027071D01*
Y01376D01*
X027111D01*
X014742Y038236D02*
X014782D01*
X014822Y038276D01*
X014862Y038236D01*
X014902D01*
Y038276D01*
X014862Y038316D01*
X014902Y038356D01*
Y038396D01*
X014862D01*
X014822Y038356D01*
X014782Y038396D01*
X014742D01*
Y038356D01*
X014782Y038316D01*
X014742Y038276D01*
Y038236D01*
X012242D02*
X012282D01*
X012322Y038276D01*
X012362Y038236D01*
X012402D01*
Y038276D01*
X012362Y038316D01*
X012402Y038356D01*
Y038396D01*
X012362D01*
X012322Y038356D01*
X012282Y038396D01*
X012242D01*
Y038356D01*
X012282Y038316D01*
X012242Y038276D01*
Y038236D01*
X013742Y036236D02*
X013782D01*
X013822Y036276D01*
X013862Y036236D01*
X013902D01*
Y036276D01*
X013862Y036316D01*
X013902Y036356D01*
Y036396D01*
X013862D01*
X013822Y036356D01*
X013782Y036396D01*
X013742D01*
Y036356D01*
X013782Y036316D01*
X013742Y036276D01*
Y036236D01*
X02416Y01376D02*
Y01372D01*
X02424D01*
Y01376D01*
X02428D01*
Y01384D01*
X02424D01*
Y01388D01*
X02416D01*
Y01384D01*
X02412D01*
Y01376D01*
X02416D01*
X02316D02*
Y01372D01*
X02324D01*
Y01376D01*
X02328D01*
Y01384D01*
X02324D01*
Y01388D01*
X02316D01*
Y01384D01*
X02312D01*
Y01376D01*
X02316D01*
D47*
X028079Y018912D02*
G03*
X028079Y018912I-00008J0D01*
G01*
X02078D02*
G03*
X02078Y018912I-00008J0D01*
G01*
Y034852D02*
G03*
X02078Y034852I-00008J0D01*
G01*
X028079D02*
G03*
X028079Y034852I-00008J0D01*
G01*
X018729D02*
G03*
X018729Y034852I-00008J0D01*
G01*
X01143D02*
G03*
X01143Y034852I-00008J0D01*
G01*
Y018912D02*
G03*
X01143Y018912I-00008J0D01*
G01*
X018729D02*
G03*
X018729Y018912I-00008J0D01*
G01*
M02*
