G04*
G04 #@! TF.GenerationSoftware,Altium Limited,Altium Designer,19.0.4 (130)*
G04*
G04 Layer_Color=16711935*
%FSTAX24Y24*%
%MOIN*%
G70*
G01*
G75*
%ADD10C,0.0100*%
D10*
X018071Y03688D02*
G03*
X018071Y03688I-000591J0D01*
G01*
X027511D02*
G03*
X027511Y03688I-000591J0D01*
G01*
Y04632D02*
G03*
X027511Y04632I-000591J0D01*
G01*
X027514Y0416D02*
G03*
X027514Y0416I-005314J0D01*
G01*
X018071Y04632D02*
G03*
X018071Y04632I-000591J0D01*
G01*
X027511D02*
G03*
X027511Y04632I-000591J0D01*
G01*
Y03688D02*
G03*
X027511Y03688I-000591J0D01*
G01*
X018071D02*
G03*
X018071Y03688I-000591J0D01*
G01*
Y04632D02*
G03*
X018071Y04632I-000591J0D01*
G01*
X015143Y0413D02*
G03*
X015143Y0413I-000591J0D01*
G01*
X018302Y013741D02*
G03*
X018302Y013741I-000591J0D01*
G01*
X03405D02*
G03*
X03405Y013741I-000591J0D01*
G01*
X034791Y0486D02*
G03*
X034791Y0486I-000591J0D01*
G01*
X011991D02*
G03*
X011991Y0486I-000591J0D01*
G01*
Y0293D02*
G03*
X011991Y0293I-000591J0D01*
G01*
X034791D02*
G03*
X034791Y0293I-000591J0D01*
G01*
X01Y0119D02*
Y0503D01*
Y0119D02*
X035D01*
Y035739D01*
X035007Y035746D01*
X036446D01*
X03645Y03575D01*
Y0503D01*
X01D02*
X03645D01*
M02*
