G04*
G04 #@! TF.GenerationSoftware,Altium Limited,Altium Designer,19.0.4 (130)*
G04*
G04 Layer_Color=255*
%FSTAX24Y24*%
%MOIN*%
G70*
G01*
G75*
%ADD31R,0.0800X0.0800*%
%ADD32C,0.0800*%
%ADD33R,0.1200X0.1200*%
%ADD34C,0.1500*%
%ADD35R,0.1500X0.1500*%
%ADD36R,0.1500X0.0800*%
%ADD37C,0.0700*%
%ADD38O,0.0900X0.0750*%
%ADD39R,0.0900X0.0750*%
%ADD40R,0.1600X0.1000*%
%ADD41R,0.1000X0.1600*%
%ADD42R,0.0591X0.0591*%
%ADD43C,0.0591*%
%ADD44R,0.0750X0.0900*%
%ADD45O,0.0750X0.0900*%
D31*
X0161Y041D02*
D03*
D32*
Y0422D02*
D03*
X033986Y046214D02*
D03*
X035186D02*
D03*
X028556Y039214D02*
D03*
X029756D02*
D03*
X03095D02*
D03*
X03215D02*
D03*
Y044714D02*
D03*
X03095D02*
D03*
X029756D02*
D03*
X028556D02*
D03*
D33*
X027999Y018912D02*
D03*
X0207D02*
D03*
Y034852D02*
D03*
X027999D02*
D03*
X018649D02*
D03*
X01135D02*
D03*
Y018912D02*
D03*
X018649D02*
D03*
D34*
X03015Y029342D02*
D03*
X030125Y02442D02*
D03*
D35*
X03015Y034842D02*
D03*
X030125Y01892D02*
D03*
D36*
X0139Y0175D02*
D03*
Y01253D02*
D03*
D37*
X01497Y01351D02*
D03*
Y01451D02*
D03*
Y01551D02*
D03*
Y01652D02*
D03*
D38*
X033294Y026D02*
D03*
Y0217D02*
D03*
D39*
Y027D02*
D03*
Y0227D02*
D03*
D40*
X013822Y0429D02*
D03*
Y036316D02*
D03*
D41*
X012322Y0449D02*
D03*
X014822D02*
D03*
Y038316D02*
D03*
X012322D02*
D03*
D42*
X013295Y0481D02*
D03*
D43*
Y0491D02*
D03*
X014295Y0481D02*
D03*
Y0491D02*
D03*
X015295Y0481D02*
D03*
Y0491D02*
D03*
X016295Y0481D02*
D03*
Y0491D02*
D03*
X017295Y0481D02*
D03*
Y0491D02*
D03*
X018295Y0481D02*
D03*
Y0491D02*
D03*
X019295Y0481D02*
D03*
Y0491D02*
D03*
X020295Y0481D02*
D03*
Y0491D02*
D03*
X021295Y0481D02*
D03*
Y0491D02*
D03*
X022295Y0481D02*
D03*
Y0491D02*
D03*
X023295Y0481D02*
D03*
Y0491D02*
D03*
X024295Y0481D02*
D03*
Y0491D02*
D03*
X025295Y0481D02*
D03*
Y0491D02*
D03*
X026295Y0481D02*
D03*
Y0491D02*
D03*
X027295Y0481D02*
D03*
Y0491D02*
D03*
X028295Y0481D02*
D03*
Y0491D02*
D03*
X029295Y0481D02*
D03*
Y0491D02*
D03*
X030295Y0481D02*
D03*
Y0491D02*
D03*
X031295Y0481D02*
D03*
Y0491D02*
D03*
X032295Y0481D02*
D03*
Y0491D02*
D03*
D44*
X028151Y0138D02*
D03*
X0242D02*
D03*
D45*
X027151D02*
D03*
X0232D02*
D03*
M02*
