M48
;Layer_Color=9474304
;FILE_FORMAT=2:4
INCH,LZ
;TYPE=PLATED
T1F00S00C0.0310
T3F00S00C0.0340
T4F00S00C0.0354
T5F00S00C0.0360
T6F00S00C0.0394
T8F00S00C0.0600
%
T01
X01497Y01351
Y01451
Y01551
Y01652
T03
X0232Y0138
X0242
X027151
X028151
X033294Y0217
Y0227
Y026
Y027
T04
X031295Y0481
Y0491
X032295
Y0481
X030295
X029295
X028295
X027295
X026295
X025295
X024295
X023295
X022295
X021295
X020295
X019295
X018295
X017295
X016295
Y0491
X017295
X018295
X019295
X020295
X021295
X022295
X023295
X024295
X025295
X026295
X027295
X028295
X029295
X030295
X015295
X014295
X013295
Y0481
X014295
X015295
T05
X018649Y018912
X0207
X027999
X01135
Y034852
X018649
X0207
X027999
T06
X0161Y041
Y0422
X028556Y044714
X029756
X03095
Y039214
X029756
X028556
X03215
Y044714
X033986Y046214
X035186
T08
X030125Y01892
Y02442
X03015Y029342
Y034842
M30
