G04*
G04 #@! TF.GenerationSoftware,Altium Limited,Altium Designer,19.0.4 (130)*
G04*
G04 Layer_Physical_Order=1*
G04 Layer_Color=255*
%FSTAX24Y24*%
%MOIN*%
G70*
G01*
G75*
%ADD30C,0.0300*%
%ADD31R,0.0800X0.0800*%
%ADD32C,0.0800*%
%ADD33R,0.1200X0.1200*%
%ADD34C,0.1500*%
%ADD35R,0.1500X0.1500*%
%ADD36R,0.1500X0.0800*%
%ADD37C,0.0700*%
%ADD38O,0.0900X0.0750*%
%ADD39R,0.0900X0.0750*%
%ADD40R,0.1600X0.1000*%
%ADD41R,0.1000X0.1600*%
%ADD42R,0.0591X0.0591*%
%ADD43C,0.0591*%
%ADD44R,0.0750X0.0900*%
%ADD45O,0.0750X0.0900*%
G36*
X03645Y03575D02*
X034996D01*
X035Y035746D01*
Y0119D01*
X01D01*
Y0503D01*
X03645D01*
Y03575D01*
D02*
G37*
%LPC*%
G36*
X014645Y050005D02*
X0129D01*
X012802Y049985D01*
X01272Y04993D01*
X012142Y049352D01*
X012086Y049269D01*
X012067Y049172D01*
Y049036D01*
X012021Y049015D01*
X012017Y049015D01*
X011926Y049126D01*
X011813Y049219D01*
X011685Y049287D01*
X011545Y04933D01*
X0114Y049344D01*
X011255Y04933D01*
X011115Y049287D01*
X010987Y049219D01*
X010874Y049126D01*
X010781Y049013D01*
X010713Y048885D01*
X01067Y048745D01*
X010656Y0486D01*
X01067Y048455D01*
X010713Y048315D01*
X010781Y048187D01*
X010874Y048074D01*
X010987Y047981D01*
X011115Y047913D01*
X011255Y04787D01*
X0114Y047856D01*
X011545Y04787D01*
X011685Y047913D01*
X011813Y047981D01*
X011926Y048074D01*
X012017Y048185D01*
X012021Y048185D01*
X012067Y048164D01*
Y0458D01*
X011722D01*
Y04495D01*
X012322D01*
Y04485D01*
X011722D01*
Y044D01*
X012067D01*
Y039216D01*
X011722D01*
Y038366D01*
X012322D01*
Y038316D01*
X012372D01*
Y037416D01*
X012922D01*
Y038061D01*
X013094D01*
X013567Y037588D01*
Y036916D01*
X012922D01*
Y036366D01*
X014722D01*
Y036916D01*
X014077D01*
Y037694D01*
X014057Y037791D01*
X014002Y037874D01*
X01338Y038496D01*
X013298Y038551D01*
X0132Y03857D01*
X012922D01*
Y039216D01*
X012577D01*
Y044D01*
X012922D01*
Y044552D01*
X012968Y044571D01*
X013567Y043972D01*
Y0435D01*
X012922D01*
Y04295D01*
X013822D01*
Y0429D01*
X013872D01*
Y0423D01*
X014722D01*
Y042645D01*
X015294D01*
X015612Y042327D01*
X015602Y04225D01*
X01605D01*
Y042698D01*
X015973Y042688D01*
X01558Y04308D01*
X015498Y043135D01*
X0154Y043155D01*
X014722D01*
Y0435D01*
X014077D01*
Y044078D01*
X014057Y044176D01*
X014002Y044258D01*
X01318Y04508D01*
X013098Y045135D01*
X013Y045155D01*
X012922D01*
Y0458D01*
X012577D01*
Y049066D01*
X013006Y049495D01*
X013086D01*
X013096Y049445D01*
X013013Y049382D01*
X01295Y049299D01*
X01291Y049203D01*
X012897Y0491D01*
X01291Y048997D01*
X01295Y048901D01*
X013013Y048818D01*
X013096Y048755D01*
X013192Y048715D01*
X013295Y048701D01*
X013398Y048715D01*
X013495Y048755D01*
X013577Y048818D01*
X013598Y048845D01*
X013993D01*
X014013Y048818D01*
X014096Y048755D01*
X014192Y048715D01*
X014295Y048701D01*
X014398Y048715D01*
X014495Y048755D01*
X014577Y048818D01*
X014641Y048901D01*
X01468Y048997D01*
X014694Y0491D01*
X01468Y049203D01*
X014641Y049299D01*
X014577Y049382D01*
X014522Y049424D01*
X014534Y049478D01*
X014553Y049482D01*
X014885Y04915D01*
X015245D01*
Y04951D01*
X014826Y04993D01*
X014743Y049985D01*
X014645Y050005D01*
D02*
G37*
G36*
X015687Y04905D02*
X015345D01*
Y048708D01*
X015398Y048715D01*
X015495Y048755D01*
X015577Y048818D01*
X015641Y048901D01*
X01568Y048997D01*
X015687Y04905D01*
D02*
G37*
G36*
X015245D02*
X014903D01*
X01491Y048997D01*
X01495Y048901D01*
X015013Y048818D01*
X015096Y048755D01*
X015192Y048715D01*
X015245Y048708D01*
Y04905D01*
D02*
G37*
G36*
X03285Y050005D02*
X015945D01*
X015848Y049985D01*
X015765Y04993D01*
X015345Y04951D01*
Y04915D01*
X015706D01*
X016037Y049482D01*
X016056Y049478D01*
X016068Y049424D01*
X016013Y049382D01*
X01595Y049299D01*
X01591Y049203D01*
X015897Y0491D01*
X01591Y048997D01*
X01595Y048901D01*
X016013Y048818D01*
X016096Y048755D01*
X016192Y048715D01*
X016295Y048701D01*
X016398Y048715D01*
X016495Y048755D01*
X016577Y048818D01*
X016641Y048901D01*
X01668Y048997D01*
X016694Y0491D01*
X01668Y049203D01*
X016641Y049299D01*
X016577Y049382D01*
X016495Y049445D01*
X016505Y049495D01*
X017086D01*
X017096Y049445D01*
X017013Y049382D01*
X01695Y049299D01*
X01691Y049203D01*
X016897Y0491D01*
X01691Y048997D01*
X01695Y048901D01*
X017013Y048818D01*
X017096Y048755D01*
X017192Y048715D01*
X017295Y048701D01*
X017398Y048715D01*
X017495Y048755D01*
X017577Y048818D01*
X017641Y048901D01*
X01768Y048997D01*
X017694Y0491D01*
X01768Y049203D01*
X017641Y049299D01*
X017577Y049382D01*
X017495Y049445D01*
X017505Y049495D01*
X018086D01*
X018096Y049445D01*
X018013Y049382D01*
X01795Y049299D01*
X01791Y049203D01*
X017897Y0491D01*
X01791Y048997D01*
X01795Y048901D01*
X018013Y048818D01*
X018096Y048755D01*
X018192Y048715D01*
X018295Y048701D01*
X018398Y048715D01*
X018495Y048755D01*
X018577Y048818D01*
X018641Y048901D01*
X01868Y048997D01*
X018694Y0491D01*
X01868Y049203D01*
X018641Y049299D01*
X018577Y049382D01*
X018495Y049445D01*
X018505Y049495D01*
X019086D01*
X019096Y049445D01*
X019013Y049382D01*
X01895Y049299D01*
X01891Y049203D01*
X018897Y0491D01*
X01891Y048997D01*
X01895Y048901D01*
X019013Y048818D01*
X019096Y048755D01*
X019192Y048715D01*
X019295Y048701D01*
X019398Y048715D01*
X019495Y048755D01*
X019577Y048818D01*
X019641Y048901D01*
X01968Y048997D01*
X019694Y0491D01*
X01968Y049203D01*
X019641Y049299D01*
X019577Y049382D01*
X019495Y049445D01*
X019505Y049495D01*
X020086D01*
X020096Y049445D01*
X020013Y049382D01*
X01995Y049299D01*
X01991Y049203D01*
X019897Y0491D01*
X01991Y048997D01*
X01995Y048901D01*
X020013Y048818D01*
X020096Y048755D01*
X020192Y048715D01*
X020295Y048701D01*
X020398Y048715D01*
X020495Y048755D01*
X020577Y048818D01*
X020641Y048901D01*
X02068Y048997D01*
X020694Y0491D01*
X02068Y049203D01*
X020641Y049299D01*
X020577Y049382D01*
X020495Y049445D01*
X020505Y049495D01*
X021086D01*
X021096Y049445D01*
X021013Y049382D01*
X02095Y049299D01*
X02091Y049203D01*
X020897Y0491D01*
X02091Y048997D01*
X02095Y048901D01*
X021013Y048818D01*
X021096Y048755D01*
X021192Y048715D01*
X021295Y048701D01*
X021398Y048715D01*
X021495Y048755D01*
X021577Y048818D01*
X021641Y048901D01*
X02168Y048997D01*
X021694Y0491D01*
X02168Y049203D01*
X021641Y049299D01*
X021577Y049382D01*
X021495Y049445D01*
X021505Y049495D01*
X022086D01*
X022096Y049445D01*
X022013Y049382D01*
X02195Y049299D01*
X02191Y049203D01*
X021897Y0491D01*
X02191Y048997D01*
X02195Y048901D01*
X022013Y048818D01*
X022096Y048755D01*
X022192Y048715D01*
X022295Y048701D01*
X022398Y048715D01*
X022495Y048755D01*
X022577Y048818D01*
X022641Y048901D01*
X02268Y048997D01*
X022694Y0491D01*
X02268Y049203D01*
X022641Y049299D01*
X022577Y049382D01*
X022495Y049445D01*
X022505Y049495D01*
X023086D01*
X023096Y049445D01*
X023013Y049382D01*
X02295Y049299D01*
X02291Y049203D01*
X022897Y0491D01*
X02291Y048997D01*
X02295Y048901D01*
X023013Y048818D01*
X023096Y048755D01*
X023192Y048715D01*
X023295Y048701D01*
X023398Y048715D01*
X023495Y048755D01*
X023577Y048818D01*
X023641Y048901D01*
X02368Y048997D01*
X023694Y0491D01*
X02368Y049203D01*
X023641Y049299D01*
X023577Y049382D01*
X023495Y049445D01*
X023505Y049495D01*
X024086D01*
X024096Y049445D01*
X024013Y049382D01*
X02395Y049299D01*
X02391Y049203D01*
X023897Y0491D01*
X02391Y048997D01*
X02395Y048901D01*
X024013Y048818D01*
X024096Y048755D01*
X024192Y048715D01*
X024295Y048701D01*
X024398Y048715D01*
X024495Y048755D01*
X024577Y048818D01*
X024641Y048901D01*
X02468Y048997D01*
X024694Y0491D01*
X02468Y049203D01*
X024641Y049299D01*
X024577Y049382D01*
X024495Y049445D01*
X024505Y049495D01*
X025086D01*
X025096Y049445D01*
X025013Y049382D01*
X02495Y049299D01*
X02491Y049203D01*
X024897Y0491D01*
X02491Y048997D01*
X02495Y048901D01*
X025013Y048818D01*
X025096Y048755D01*
X025192Y048715D01*
X025295Y048701D01*
X025398Y048715D01*
X025495Y048755D01*
X025577Y048818D01*
X025641Y048901D01*
X02568Y048997D01*
X025694Y0491D01*
X02568Y049203D01*
X025641Y049299D01*
X025577Y049382D01*
X025495Y049445D01*
X025505Y049495D01*
X026086D01*
X026096Y049445D01*
X026013Y049382D01*
X02595Y049299D01*
X02591Y049203D01*
X025897Y0491D01*
X02591Y048997D01*
X02595Y048901D01*
X026013Y048818D01*
X026096Y048755D01*
X026192Y048715D01*
X026295Y048701D01*
X026398Y048715D01*
X026495Y048755D01*
X026577Y048818D01*
X026641Y048901D01*
X02668Y048997D01*
X026694Y0491D01*
X02668Y049203D01*
X026641Y049299D01*
X026577Y049382D01*
X026495Y049445D01*
X026505Y049495D01*
X027086D01*
X027096Y049445D01*
X027013Y049382D01*
X02695Y049299D01*
X02691Y049203D01*
X026897Y0491D01*
X02691Y048997D01*
X02695Y048901D01*
X027013Y048818D01*
X027096Y048755D01*
X027192Y048715D01*
X027295Y048701D01*
X027398Y048715D01*
X027495Y048755D01*
X027577Y048818D01*
X027641Y048901D01*
X02768Y048997D01*
X027694Y0491D01*
X02768Y049203D01*
X027641Y049299D01*
X027577Y049382D01*
X027495Y049445D01*
X027505Y049495D01*
X028086D01*
X028096Y049445D01*
X028013Y049382D01*
X02795Y049299D01*
X02791Y049203D01*
X027897Y0491D01*
X02791Y048997D01*
X02795Y048901D01*
X028013Y048818D01*
X028096Y048755D01*
X028192Y048715D01*
X028295Y048701D01*
X028398Y048715D01*
X028495Y048755D01*
X028577Y048818D01*
X028641Y048901D01*
X02868Y048997D01*
X028694Y0491D01*
X02868Y049203D01*
X028641Y049299D01*
X028577Y049382D01*
X028495Y049445D01*
X028505Y049495D01*
X029086D01*
X029096Y049445D01*
X029013Y049382D01*
X02895Y049299D01*
X02891Y049203D01*
X028897Y0491D01*
X02891Y048997D01*
X02895Y048901D01*
X029013Y048818D01*
X029096Y048755D01*
X029192Y048715D01*
X029295Y048701D01*
X029398Y048715D01*
X029495Y048755D01*
X029577Y048818D01*
X029641Y048901D01*
X02968Y048997D01*
X029694Y0491D01*
X02968Y049203D01*
X029641Y049299D01*
X029577Y049382D01*
X029495Y049445D01*
X029505Y049495D01*
X030086D01*
X030096Y049445D01*
X030013Y049382D01*
X02995Y049299D01*
X02991Y049203D01*
X029897Y0491D01*
X02991Y048997D01*
X02995Y048901D01*
X030013Y048818D01*
X030096Y048755D01*
X030192Y048715D01*
X030295Y048701D01*
X030398Y048715D01*
X030495Y048755D01*
X030577Y048818D01*
X030641Y048901D01*
X03068Y048997D01*
X030694Y0491D01*
X03068Y049203D01*
X030641Y049299D01*
X030577Y049382D01*
X030495Y049445D01*
X030505Y049495D01*
X031086D01*
X031096Y049445D01*
X031013Y049382D01*
X03095Y049299D01*
X03091Y049203D01*
X030897Y0491D01*
X03091Y048997D01*
X03095Y048901D01*
X031013Y048818D01*
X031096Y048755D01*
X031192Y048715D01*
X031295Y048701D01*
X031398Y048715D01*
X031495Y048755D01*
X031577Y048818D01*
X031641Y048901D01*
X03168Y048997D01*
X031694Y0491D01*
X03168Y049203D01*
X031641Y049299D01*
X031577Y049382D01*
X031495Y049445D01*
X031505Y049495D01*
X032086D01*
X032096Y049445D01*
X032013Y049382D01*
X03195Y049299D01*
X03191Y049203D01*
X031897Y0491D01*
X03191Y048997D01*
X03195Y048901D01*
X032013Y048818D01*
X032096Y048755D01*
X032192Y048715D01*
X032295Y048701D01*
X032398Y048715D01*
X032495Y048755D01*
X032577Y048818D01*
X032641Y048901D01*
X03268Y048997D01*
X032694Y0491D01*
X03268Y049203D01*
X032641Y049299D01*
X032577Y049382D01*
X032495Y049445D01*
X032505Y049495D01*
X032744D01*
X032895Y049344D01*
Y04906D01*
X032345Y04851D01*
Y04815D01*
X032706D01*
X03333Y048774D01*
X033386Y048857D01*
X033405Y048955D01*
Y04945D01*
X033386Y049548D01*
X03333Y04963D01*
X03303Y04993D01*
X032948Y049985D01*
X03285Y050005D01*
D02*
G37*
G36*
X032245Y048492D02*
X032192Y048485D01*
X032096Y048445D01*
X032013Y048382D01*
X03195Y048299D01*
X03191Y048203D01*
X031903Y04815D01*
X032245D01*
Y048492D01*
D02*
G37*
G36*
X0342Y049344D02*
X034055Y04933D01*
X033915Y049287D01*
X033787Y049219D01*
X033674Y049126D01*
X033581Y049013D01*
X033513Y048885D01*
X03347Y048745D01*
X033456Y0486D01*
X03347Y048455D01*
X033513Y048315D01*
X033581Y048187D01*
X033674Y048074D01*
X033787Y047981D01*
X033915Y047913D01*
X034055Y04787D01*
X0342Y047856D01*
X034345Y04787D01*
X034485Y047913D01*
X034613Y047981D01*
X034726Y048074D01*
X034819Y048187D01*
X034887Y048315D01*
X03493Y048455D01*
X034944Y0486D01*
X03493Y048745D01*
X034887Y048885D01*
X034819Y049013D01*
X034726Y049126D01*
X034613Y049219D01*
X034485Y049287D01*
X034345Y04933D01*
X0342Y049344D01*
D02*
G37*
G36*
X013691Y048495D02*
X0129D01*
Y047705D01*
X013691D01*
Y048495D01*
D02*
G37*
G36*
X031295Y048499D02*
X031192Y048485D01*
X031096Y048445D01*
X031013Y048382D01*
X03095Y048299D01*
X03091Y048203D01*
X030897Y0481D01*
X03091Y047997D01*
X03095Y047901D01*
X031013Y047818D01*
X031096Y047755D01*
X031192Y047715D01*
X031295Y047701D01*
X031398Y047715D01*
X031495Y047755D01*
X031577Y047818D01*
X031641Y047901D01*
X03168Y047997D01*
X031694Y0481D01*
X03168Y048203D01*
X031641Y048299D01*
X031577Y048382D01*
X031495Y048445D01*
X031398Y048485D01*
X031295Y048499D01*
D02*
G37*
G36*
X026295D02*
X026192Y048485D01*
X026096Y048445D01*
X026013Y048382D01*
X02595Y048299D01*
X02591Y048203D01*
X025897Y0481D01*
X02591Y047997D01*
X02595Y047901D01*
X026013Y047818D01*
X026096Y047755D01*
X026192Y047715D01*
X026295Y047701D01*
X026398Y047715D01*
X026495Y047755D01*
X026577Y047818D01*
X026641Y047901D01*
X02668Y047997D01*
X026694Y0481D01*
X02668Y048203D01*
X026641Y048299D01*
X026577Y048382D01*
X026495Y048445D01*
X026398Y048485D01*
X026295Y048499D01*
D02*
G37*
G36*
X025295D02*
X025192Y048485D01*
X025096Y048445D01*
X025013Y048382D01*
X02495Y048299D01*
X02491Y048203D01*
X024897Y0481D01*
X02491Y047997D01*
X02495Y047901D01*
X025013Y047818D01*
X025096Y047755D01*
X025192Y047715D01*
X025295Y047701D01*
X025398Y047715D01*
X025495Y047755D01*
X025577Y047818D01*
X025641Y047901D01*
X02568Y047997D01*
X025694Y0481D01*
X02568Y048203D01*
X025641Y048299D01*
X025577Y048382D01*
X025495Y048445D01*
X025398Y048485D01*
X025295Y048499D01*
D02*
G37*
G36*
X024295D02*
X024192Y048485D01*
X024096Y048445D01*
X024013Y048382D01*
X02395Y048299D01*
X02391Y048203D01*
X023897Y0481D01*
X02391Y047997D01*
X02395Y047901D01*
X024013Y047818D01*
X024096Y047755D01*
X024192Y047715D01*
X024295Y047701D01*
X024398Y047715D01*
X024495Y047755D01*
X024577Y047818D01*
X024641Y047901D01*
X02468Y047997D01*
X024694Y0481D01*
X02468Y048203D01*
X024641Y048299D01*
X024577Y048382D01*
X024495Y048445D01*
X024398Y048485D01*
X024295Y048499D01*
D02*
G37*
G36*
X023295D02*
X023192Y048485D01*
X023096Y048445D01*
X023013Y048382D01*
X02295Y048299D01*
X02291Y048203D01*
X022897Y0481D01*
X02291Y047997D01*
X02295Y047901D01*
X023013Y047818D01*
X023096Y047755D01*
X023192Y047715D01*
X023295Y047701D01*
X023398Y047715D01*
X023495Y047755D01*
X023577Y047818D01*
X023641Y047901D01*
X02368Y047997D01*
X023694Y0481D01*
X02368Y048203D01*
X023641Y048299D01*
X023577Y048382D01*
X023495Y048445D01*
X023398Y048485D01*
X023295Y048499D01*
D02*
G37*
G36*
X022295D02*
X022192Y048485D01*
X022096Y048445D01*
X022013Y048382D01*
X02195Y048299D01*
X02191Y048203D01*
X021897Y0481D01*
X02191Y047997D01*
X02195Y047901D01*
X022013Y047818D01*
X022096Y047755D01*
X022192Y047715D01*
X022295Y047701D01*
X022398Y047715D01*
X022495Y047755D01*
X022577Y047818D01*
X022641Y047901D01*
X02268Y047997D01*
X022694Y0481D01*
X02268Y048203D01*
X022641Y048299D01*
X022577Y048382D01*
X022495Y048445D01*
X022398Y048485D01*
X022295Y048499D01*
D02*
G37*
G36*
X021295D02*
X021192Y048485D01*
X021096Y048445D01*
X021013Y048382D01*
X02095Y048299D01*
X02091Y048203D01*
X020897Y0481D01*
X02091Y047997D01*
X02095Y047901D01*
X021013Y047818D01*
X021096Y047755D01*
X021192Y047715D01*
X021295Y047701D01*
X021398Y047715D01*
X021495Y047755D01*
X021577Y047818D01*
X021641Y047901D01*
X02168Y047997D01*
X021694Y0481D01*
X02168Y048203D01*
X021641Y048299D01*
X021577Y048382D01*
X021495Y048445D01*
X021398Y048485D01*
X021295Y048499D01*
D02*
G37*
G36*
X020295D02*
X020192Y048485D01*
X020096Y048445D01*
X020013Y048382D01*
X01995Y048299D01*
X01991Y048203D01*
X019897Y0481D01*
X01991Y047997D01*
X01995Y047901D01*
X020013Y047818D01*
X020096Y047755D01*
X020192Y047715D01*
X020295Y047701D01*
X020398Y047715D01*
X020495Y047755D01*
X020577Y047818D01*
X020641Y047901D01*
X02068Y047997D01*
X020694Y0481D01*
X02068Y048203D01*
X020641Y048299D01*
X020577Y048382D01*
X020495Y048445D01*
X020398Y048485D01*
X020295Y048499D01*
D02*
G37*
G36*
X019295D02*
X019192Y048485D01*
X019096Y048445D01*
X019013Y048382D01*
X01895Y048299D01*
X01891Y048203D01*
X018897Y0481D01*
X01891Y047997D01*
X01895Y047901D01*
X019013Y047818D01*
X019096Y047755D01*
X019192Y047715D01*
X019295Y047701D01*
X019398Y047715D01*
X019495Y047755D01*
X019577Y047818D01*
X019641Y047901D01*
X01968Y047997D01*
X019694Y0481D01*
X01968Y048203D01*
X019641Y048299D01*
X019577Y048382D01*
X019495Y048445D01*
X019398Y048485D01*
X019295Y048499D01*
D02*
G37*
G36*
X018295D02*
X018192Y048485D01*
X018096Y048445D01*
X018013Y048382D01*
X01795Y048299D01*
X01791Y048203D01*
X017897Y0481D01*
X01791Y047997D01*
X01795Y047901D01*
X018013Y047818D01*
X018096Y047755D01*
X018192Y047715D01*
X018295Y047701D01*
X018398Y047715D01*
X018495Y047755D01*
X018577Y047818D01*
X018641Y047901D01*
X01868Y047997D01*
X018694Y0481D01*
X01868Y048203D01*
X018641Y048299D01*
X018577Y048382D01*
X018495Y048445D01*
X018398Y048485D01*
X018295Y048499D01*
D02*
G37*
G36*
X017295D02*
X017192Y048485D01*
X017096Y048445D01*
X017013Y048382D01*
X01695Y048299D01*
X01691Y048203D01*
X016897Y0481D01*
X01691Y047997D01*
X01695Y047901D01*
X017013Y047818D01*
X017096Y047755D01*
X017192Y047715D01*
X017295Y047701D01*
X017398Y047715D01*
X017495Y047755D01*
X017577Y047818D01*
X017641Y047901D01*
X01768Y047997D01*
X017694Y0481D01*
X01768Y048203D01*
X017641Y048299D01*
X017577Y048382D01*
X017495Y048445D01*
X017398Y048485D01*
X017295Y048499D01*
D02*
G37*
G36*
X016295D02*
X016192Y048485D01*
X016096Y048445D01*
X016013Y048382D01*
X01595Y048299D01*
X01591Y048203D01*
X015897Y0481D01*
X01591Y047997D01*
X01595Y047901D01*
X016013Y047818D01*
X016096Y047755D01*
X016192Y047715D01*
X016295Y047701D01*
X016398Y047715D01*
X016495Y047755D01*
X016577Y047818D01*
X016641Y047901D01*
X01668Y047997D01*
X016694Y0481D01*
X01668Y048203D01*
X016641Y048299D01*
X016577Y048382D01*
X016495Y048445D01*
X016398Y048485D01*
X016295Y048499D01*
D02*
G37*
G36*
X015295D02*
X015192Y048485D01*
X015096Y048445D01*
X015013Y048382D01*
X01495Y048299D01*
X01491Y048203D01*
X014897Y0481D01*
X01491Y047997D01*
X01495Y047901D01*
X015013Y047818D01*
X015096Y047755D01*
X015192Y047715D01*
X015295Y047701D01*
X015398Y047715D01*
X015495Y047755D01*
X015577Y047818D01*
X015641Y047901D01*
X01568Y047997D01*
X015694Y0481D01*
X01568Y048203D01*
X015641Y048299D01*
X015577Y048382D01*
X015495Y048445D01*
X015398Y048485D01*
X015295Y048499D01*
D02*
G37*
G36*
X014295D02*
X014192Y048485D01*
X014096Y048445D01*
X014013Y048382D01*
X01395Y048299D01*
X01391Y048203D01*
X013897Y0481D01*
X01391Y047997D01*
X01395Y047901D01*
X014013Y047818D01*
X014096Y047755D01*
X014192Y047715D01*
X014295Y047701D01*
X014398Y047715D01*
X014495Y047755D01*
X014577Y047818D01*
X014641Y047901D01*
X01468Y047997D01*
X014694Y0481D01*
X01468Y048203D01*
X014641Y048299D01*
X014577Y048382D01*
X014495Y048445D01*
X014398Y048485D01*
X014295Y048499D01*
D02*
G37*
G36*
X027295D02*
X027192Y048485D01*
X027096Y048445D01*
X027013Y048382D01*
X02695Y048299D01*
X02691Y048203D01*
X026897Y0481D01*
X02691Y047997D01*
X02695Y047901D01*
X027013Y047818D01*
X02704Y047797D01*
Y047204D01*
X02706Y047107D01*
X027064Y0471D01*
X027036Y047053D01*
X02692Y047064D01*
X026775Y04705D01*
X026635Y047007D01*
X026507Y046939D01*
X026394Y046846D01*
X026301Y046733D01*
X026233Y046605D01*
X02619Y046465D01*
X026176Y04632D01*
X02619Y046175D01*
X026233Y046035D01*
X026301Y045907D01*
X026394Y045794D01*
X026507Y045701D01*
X026635Y045633D01*
X026775Y04559D01*
X02692Y045576D01*
X027065Y04559D01*
X027205Y045633D01*
X027333Y045701D01*
X027446Y045794D01*
X027539Y045907D01*
X027607Y046035D01*
X02765Y046175D01*
X027664Y04632D01*
X027655Y046413D01*
X027703Y046436D01*
X028301Y045838D01*
Y045149D01*
X0282Y045071D01*
X02812Y044966D01*
X028069Y044845D01*
X028052Y044714D01*
X028069Y044584D01*
X02812Y044462D01*
X0282Y044358D01*
X028304Y044278D01*
X028426Y044227D01*
X028556Y04421D01*
X028687Y044227D01*
X028808Y044278D01*
X028913Y044358D01*
X028993Y044462D01*
X029043Y044584D01*
X029061Y044714D01*
X029043Y044845D01*
X028993Y044966D01*
X028913Y045071D01*
X028811Y045149D01*
Y045943D01*
X028792Y046041D01*
X028737Y046123D01*
X02755Y04731D01*
Y047797D01*
X027577Y047818D01*
X027641Y047901D01*
X02768Y047997D01*
X027694Y0481D01*
X02768Y048203D01*
X027641Y048299D01*
X027577Y048382D01*
X027495Y048445D01*
X027398Y048485D01*
X027295Y048499D01*
D02*
G37*
G36*
X034036Y046712D02*
Y046264D01*
X034484D01*
X034473Y046345D01*
X034423Y046466D01*
X034343Y046571D01*
X034238Y046651D01*
X034117Y046701D01*
X034036Y046712D01*
D02*
G37*
G36*
X032687Y04805D02*
X031903D01*
X03191Y047997D01*
X03195Y047901D01*
X032013Y047818D01*
X032096Y047755D01*
X032192Y047715D01*
X032249Y047707D01*
X033532Y046424D01*
X033499Y046345D01*
X033489Y046264D01*
X033936D01*
Y046741D01*
X03268Y047997D01*
X03268Y047997D01*
X032687Y04805D01*
D02*
G37*
G36*
X034484Y046164D02*
X034036D01*
Y045717D01*
X034117Y045727D01*
X034238Y045778D01*
X034343Y045858D01*
X034423Y045962D01*
X034473Y046084D01*
X034484Y046164D01*
D02*
G37*
G36*
X033936D02*
X033489D01*
X033499Y046084D01*
X03355Y045962D01*
X03363Y045858D01*
X033734Y045778D01*
X033856Y045727D01*
X033936Y045717D01*
Y046164D01*
D02*
G37*
G36*
X035186Y046719D02*
X035056Y046701D01*
X034934Y046651D01*
X03483Y046571D01*
X03475Y046466D01*
X034699Y046345D01*
X034682Y046214D01*
X034699Y046084D01*
X03475Y045962D01*
X03483Y045858D01*
X034934Y045778D01*
X035056Y045727D01*
X035186Y04571D01*
X035317Y045727D01*
X035438Y045778D01*
X035543Y045858D01*
X035623Y045962D01*
X035673Y046084D01*
X035691Y046214D01*
X035673Y046345D01*
X035623Y046466D01*
X035543Y046571D01*
X035438Y046651D01*
X035317Y046701D01*
X035186Y046719D01*
D02*
G37*
G36*
X01748Y047064D02*
X017335Y04705D01*
X017195Y047007D01*
X017067Y046939D01*
X016954Y046846D01*
X016861Y046733D01*
X016793Y046605D01*
X01675Y046465D01*
X016736Y04632D01*
X01675Y046175D01*
X016793Y046035D01*
X016861Y045907D01*
X016954Y045794D01*
X017067Y045701D01*
X017195Y045633D01*
X017335Y04559D01*
X01748Y045576D01*
X017625Y04559D01*
X017765Y045633D01*
X017893Y045701D01*
X018006Y045794D01*
X018099Y045907D01*
X018167Y046035D01*
X01821Y046175D01*
X018224Y04632D01*
X01821Y046465D01*
X018167Y046605D01*
X018099Y046733D01*
X018006Y046846D01*
X017893Y046939D01*
X017765Y047007D01*
X017625Y04705D01*
X01748Y047064D01*
D02*
G37*
G36*
X024526Y047469D02*
X019862D01*
X019764Y04745D01*
X019682Y047395D01*
X017442Y045155D01*
X015422D01*
Y045405D01*
X015427Y045429D01*
X015422Y045454D01*
Y0458D01*
X014222D01*
Y044D01*
X015422D01*
Y044645D01*
X017548D01*
X017611Y044658D01*
X017641Y044613D01*
X017537Y044457D01*
X017328Y044083D01*
X017148Y043693D01*
X016999Y04329D01*
X016883Y042877D01*
X016799Y042455D01*
X016748Y042029D01*
X016731Y0416D01*
X016748Y041171D01*
X016799Y040745D01*
X016883Y040323D01*
X016999Y03991D01*
X017148Y039507D01*
X017328Y039117D01*
X017537Y038743D01*
X017776Y038386D01*
X018042Y038048D01*
X018333Y037733D01*
X018648Y037442D01*
X018986Y037176D01*
X019343Y036937D01*
X019717Y036727D01*
X020107Y036548D01*
X02051Y036399D01*
X020923Y036283D01*
X021345Y036199D01*
X021771Y036148D01*
X0222Y036131D01*
X022629Y036148D01*
X023055Y036199D01*
X023477Y036283D01*
X02389Y036399D01*
X024293Y036548D01*
X024683Y036727D01*
X025057Y036937D01*
X025414Y037176D01*
X025752Y037442D01*
X026067Y037733D01*
X026358Y038048D01*
X026624Y038386D01*
X026863Y038743D01*
X027073Y039117D01*
X027252Y039507D01*
X027401Y03991D01*
X027509Y040295D01*
X027559Y040288D01*
Y038214D01*
X027579Y038117D01*
X027634Y038034D01*
X02891Y036758D01*
X028993Y036703D01*
X02909Y036683D01*
X029801D01*
X030747Y035738D01*
X030728Y035692D01*
X0293D01*
Y035106D01*
X028699D01*
Y035552D01*
X027299D01*
Y034152D01*
X028699D01*
Y034597D01*
X0293D01*
Y033992D01*
X031D01*
Y035419D01*
X031046Y035438D01*
X031129Y035355D01*
Y025785D01*
X030518Y025174D01*
X030452Y025209D01*
X030292Y025258D01*
X030125Y025274D01*
X029958Y025258D01*
X029798Y025209D01*
X02965Y02513D01*
X029521Y025024D01*
X029415Y024895D01*
X029336Y024747D01*
X029287Y024587D01*
X029271Y02442D01*
X029287Y024253D01*
X029336Y024093D01*
X029415Y023945D01*
X029521Y023816D01*
X02965Y02371D01*
X029798Y023631D01*
X029958Y023582D01*
X030125Y023566D01*
X030292Y023582D01*
X030452Y023631D01*
X0306Y02371D01*
X030729Y023816D01*
X030835Y023945D01*
X030914Y024093D01*
X030963Y024253D01*
X030979Y02442D01*
X030963Y024587D01*
X030914Y024747D01*
X030879Y024813D01*
X031483Y025418D01*
X031529Y025399D01*
Y023031D01*
X031549Y022934D01*
X031604Y022851D01*
X032742Y021713D01*
X03274Y0217D01*
X032756Y021576D01*
X032804Y02146D01*
X03288Y021361D01*
X03298Y021285D01*
X033095Y021237D01*
X033219Y021221D01*
X033369D01*
X033493Y021237D01*
X033609Y021285D01*
X033708Y021361D01*
X033784Y02146D01*
X033832Y021576D01*
X033848Y0217D01*
X033832Y021824D01*
X033784Y02194D01*
X033708Y022039D01*
X033609Y022115D01*
X033493Y022163D01*
X0334Y022175D01*
X033404Y022225D01*
X033844D01*
Y023175D01*
X033105D01*
X032439Y023841D01*
Y026251D01*
X032485Y02627D01*
X032742Y026013D01*
X03274Y026D01*
X032756Y025876D01*
X032804Y02576D01*
X03288Y025661D01*
X03298Y025585D01*
X033095Y025537D01*
X033219Y025521D01*
X033369D01*
X033493Y025537D01*
X033609Y025585D01*
X033708Y025661D01*
X033784Y02576D01*
X033832Y025876D01*
X033848Y026D01*
X033832Y026124D01*
X033784Y02624D01*
X033708Y026339D01*
X033609Y026415D01*
X033493Y026463D01*
X0334Y026475D01*
X033404Y026525D01*
X033844D01*
Y027475D01*
X033249D01*
Y03837D01*
X03323Y038468D01*
X033174Y03855D01*
X032638Y039087D01*
X032654Y039214D01*
X032637Y039345D01*
X032587Y039466D01*
X032507Y039571D01*
X032402Y039651D01*
X032281Y039701D01*
X03215Y039719D01*
X032019Y039701D01*
X031898Y039651D01*
X031793Y039571D01*
X031713Y039466D01*
X031663Y039345D01*
X031646Y039214D01*
X031663Y039084D01*
X031713Y038962D01*
X031793Y038858D01*
X031898Y038778D01*
X032019Y038727D01*
X03215Y03871D01*
X032277Y038727D01*
X032739Y038265D01*
Y037851D01*
X032693Y037832D01*
X031438Y039087D01*
X031454Y039214D01*
X031437Y039345D01*
X031387Y039466D01*
X031307Y039571D01*
X031202Y039651D01*
X031081Y039701D01*
X03095Y039719D01*
X030819Y039701D01*
X030698Y039651D01*
X030593Y039571D01*
X030513Y039466D01*
X030463Y039345D01*
X030446Y039214D01*
X030463Y039084D01*
X030513Y038962D01*
X030593Y038858D01*
X030698Y038778D01*
X030819Y038727D01*
X03095Y03871D01*
X031077Y038727D01*
X032329Y037475D01*
Y037067D01*
X032283Y037048D01*
X030244Y039087D01*
X030261Y039214D01*
X030243Y039345D01*
X030193Y039466D01*
X030113Y039571D01*
X030008Y039651D01*
X029887Y039701D01*
X029756Y039719D01*
X029626Y039701D01*
X029504Y039651D01*
X0294Y039571D01*
X02932Y039466D01*
X029269Y039345D01*
X029252Y039214D01*
X029269Y039084D01*
X02932Y038962D01*
X0294Y038858D01*
X029504Y038778D01*
X029626Y038727D01*
X029756Y03871D01*
X029883Y038727D01*
X031929Y036681D01*
Y036267D01*
X031883Y036248D01*
X029044Y039087D01*
X029061Y039214D01*
X029043Y039345D01*
X028993Y039466D01*
X028913Y039571D01*
X028808Y039651D01*
X028687Y039701D01*
X028556Y039719D01*
X028426Y039701D01*
X028304Y039651D01*
X0282Y039571D01*
X02812Y039466D01*
X028118Y039463D01*
X028069Y039473D01*
Y043926D01*
X02805Y044023D01*
X027995Y044106D01*
X024706Y047395D01*
X024623Y04745D01*
X024526Y047469D01*
D02*
G37*
G36*
X030295Y048499D02*
X030192Y048485D01*
X030096Y048445D01*
X030013Y048382D01*
X02995Y048299D01*
X02991Y048203D01*
X029897Y0481D01*
X02991Y047997D01*
X02995Y047901D01*
X030013Y047818D01*
X030049Y047791D01*
Y047355D01*
X030068Y047257D01*
X030123Y047174D01*
X031839Y045459D01*
Y045106D01*
X031793Y045071D01*
X031713Y044966D01*
X031663Y044845D01*
X031646Y044714D01*
X031663Y044584D01*
X031713Y044462D01*
X031793Y044358D01*
X031898Y044278D01*
X032019Y044227D01*
X03215Y04421D01*
X032281Y044227D01*
X032402Y044278D01*
X032507Y044358D01*
X032587Y044462D01*
X032637Y044584D01*
X032654Y044714D01*
X032637Y044845D01*
X032587Y044966D01*
X032507Y045071D01*
X032402Y045151D01*
X032349Y045173D01*
Y045564D01*
X032329Y045662D01*
X032274Y045745D01*
X030558Y04746D01*
Y047804D01*
X030577Y047818D01*
X030641Y047901D01*
X03068Y047997D01*
X030694Y0481D01*
X03068Y048203D01*
X030641Y048299D01*
X030577Y048382D01*
X030495Y048445D01*
X030398Y048485D01*
X030295Y048499D01*
D02*
G37*
G36*
X029295D02*
X029192Y048485D01*
X029096Y048445D01*
X029013Y048382D01*
X02895Y048299D01*
X02891Y048203D01*
X028897Y0481D01*
X02891Y047997D01*
X02895Y047901D01*
X029013Y047818D01*
X02904Y047797D01*
Y047263D01*
X02906Y047165D01*
X029115Y047083D01*
X030695Y045503D01*
Y045149D01*
X030593Y045071D01*
X030513Y044966D01*
X030463Y044845D01*
X030446Y044714D01*
X030463Y044584D01*
X030513Y044462D01*
X030593Y044358D01*
X030698Y044278D01*
X030819Y044227D01*
X03095Y04421D01*
X031081Y044227D01*
X031202Y044278D01*
X031307Y044358D01*
X031387Y044462D01*
X031437Y044584D01*
X031454Y044714D01*
X031437Y044845D01*
X031387Y044966D01*
X031307Y045071D01*
X031205Y045149D01*
Y045608D01*
X031186Y045706D01*
X03113Y045788D01*
X02955Y047368D01*
Y047797D01*
X029577Y047818D01*
X029641Y047901D01*
X02968Y047997D01*
X029694Y0481D01*
X02968Y048203D01*
X029641Y048299D01*
X029577Y048382D01*
X029495Y048445D01*
X029398Y048485D01*
X029295Y048499D01*
D02*
G37*
G36*
X028295D02*
X028192Y048485D01*
X028096Y048445D01*
X028013Y048382D01*
X02795Y048299D01*
X02791Y048203D01*
X027897Y0481D01*
X02791Y047997D01*
X02795Y047901D01*
X028013Y047818D01*
X02804Y047797D01*
Y047166D01*
X02806Y047068D01*
X028115Y046986D01*
X029501Y045599D01*
Y045149D01*
X0294Y045071D01*
X02932Y044966D01*
X029269Y044845D01*
X029252Y044714D01*
X029269Y044584D01*
X02932Y044462D01*
X0294Y044358D01*
X029504Y044278D01*
X029626Y044227D01*
X029756Y04421D01*
X029887Y044227D01*
X030008Y044278D01*
X030113Y044358D01*
X030193Y044462D01*
X030243Y044584D01*
X030261Y044714D01*
X030243Y044845D01*
X030193Y044966D01*
X030113Y045071D01*
X030011Y045149D01*
Y045705D01*
X029992Y045803D01*
X029937Y045885D01*
X02855Y047272D01*
Y047797D01*
X028577Y047818D01*
X028641Y047901D01*
X02868Y047997D01*
X028694Y0481D01*
X02868Y048203D01*
X028641Y048299D01*
X028577Y048382D01*
X028495Y048445D01*
X028398Y048485D01*
X028295Y048499D01*
D02*
G37*
G36*
X013772Y04285D02*
X012922D01*
Y0423D01*
X013772D01*
Y04285D01*
D02*
G37*
G36*
X01615Y042698D02*
Y04225D01*
X016598D01*
X016587Y042331D01*
X016537Y042452D01*
X016457Y042557D01*
X016352Y042637D01*
X016231Y042687D01*
X01615Y042698D01*
D02*
G37*
G36*
X016598Y04215D02*
X01615D01*
Y041702D01*
X016231Y041713D01*
X016352Y041763D01*
X016457Y041843D01*
X016537Y041948D01*
X016587Y042069D01*
X016598Y04215D01*
D02*
G37*
G36*
X01605D02*
X015602D01*
X015613Y042069D01*
X015663Y041948D01*
X015743Y041843D01*
X015848Y041763D01*
X015969Y041713D01*
X01605Y041702D01*
Y04215D01*
D02*
G37*
G36*
X014553Y042044D02*
X014408Y04203D01*
X014268Y041987D01*
X014139Y041919D01*
X014027Y041826D01*
X013934Y041713D01*
X013865Y041585D01*
X013823Y041445D01*
X013809Y0413D01*
X013823Y041155D01*
X013865Y041015D01*
X013934Y040887D01*
X014027Y040774D01*
X014139Y040681D01*
X014268Y040613D01*
X014408Y04057D01*
X014553Y040556D01*
X014698Y04057D01*
X014838Y040613D01*
X014966Y040681D01*
X015079Y040774D01*
X015171Y040887D01*
X01524Y041015D01*
X015283Y041155D01*
X015297Y0413D01*
X015283Y041445D01*
X01524Y041585D01*
X015171Y041713D01*
X015079Y041826D01*
X014966Y041919D01*
X014838Y041987D01*
X014698Y04203D01*
X014553Y042044D01*
D02*
G37*
G36*
X015422Y039216D02*
X014222D01*
Y037416D01*
X015422D01*
Y039216D01*
D02*
G37*
G36*
X012272Y038266D02*
X011722D01*
Y037416D01*
X012272D01*
Y038266D01*
D02*
G37*
G36*
X02692Y037624D02*
X026775Y03761D01*
X026635Y037567D01*
X026507Y037499D01*
X026394Y037406D01*
X026301Y037293D01*
X026233Y037165D01*
X02619Y037025D01*
X026176Y03688D01*
X02619Y036735D01*
X026233Y036595D01*
X026301Y036467D01*
X026394Y036354D01*
X026507Y036261D01*
X026635Y036193D01*
X026775Y03615D01*
X02692Y036136D01*
X027065Y03615D01*
X027205Y036193D01*
X027333Y036261D01*
X027446Y036354D01*
X027539Y036467D01*
X027607Y036595D01*
X02765Y036735D01*
X027664Y03688D01*
X02765Y037025D01*
X027607Y037165D01*
X027539Y037293D01*
X027446Y037406D01*
X027333Y037499D01*
X027205Y037567D01*
X027065Y03761D01*
X02692Y037624D01*
D02*
G37*
G36*
X01748D02*
X017335Y03761D01*
X017195Y037567D01*
X017067Y037499D01*
X016954Y037406D01*
X016861Y037293D01*
X016793Y037165D01*
X01675Y037025D01*
X016736Y03688D01*
X01675Y036735D01*
X016793Y036595D01*
X016861Y036467D01*
X016954Y036354D01*
X017067Y036261D01*
X017195Y036193D01*
X017335Y03615D01*
X01748Y036136D01*
X017625Y03615D01*
X017765Y036193D01*
X017893Y036261D01*
X018006Y036354D01*
X018099Y036467D01*
X018167Y036595D01*
X01821Y036735D01*
X018224Y03688D01*
X01821Y037025D01*
X018167Y037165D01*
X018099Y037293D01*
X018006Y037406D01*
X017893Y037499D01*
X017765Y037567D01*
X017625Y03761D01*
X01748Y037624D01*
D02*
G37*
G36*
X014722Y036266D02*
X012922D01*
Y035716D01*
X013438D01*
X013457Y035669D01*
X012894Y035106D01*
X01205D01*
Y035552D01*
X0114D01*
Y034852D01*
Y034152D01*
X01205D01*
Y034597D01*
X013D01*
X013098Y034616D01*
X01318Y034671D01*
X01398Y035471D01*
X014036Y035554D01*
X014055Y035652D01*
Y035716D01*
X014722D01*
Y036266D01*
D02*
G37*
G36*
X0214Y035552D02*
X02075D01*
Y034902D01*
X0214D01*
Y035552D01*
D02*
G37*
G36*
X02065D02*
X02D01*
Y034902D01*
X02065D01*
Y035552D01*
D02*
G37*
G36*
X0113D02*
X01065D01*
Y034902D01*
X0113D01*
Y035552D01*
D02*
G37*
G36*
X0342Y030044D02*
X034055Y03003D01*
X033915Y029987D01*
X033787Y029919D01*
X033674Y029826D01*
X033581Y029713D01*
X033513Y029585D01*
X03347Y029445D01*
X033456Y0293D01*
X03347Y029155D01*
X033513Y029015D01*
X033581Y028887D01*
X033674Y028774D01*
X033787Y028681D01*
X033915Y028613D01*
X034055Y02857D01*
X0342Y028556D01*
X034345Y02857D01*
X034485Y028613D01*
X034613Y028681D01*
X034726Y028774D01*
X034819Y028887D01*
X034887Y029015D01*
X03493Y029155D01*
X034944Y0293D01*
X03493Y029445D01*
X034887Y029585D01*
X034819Y029713D01*
X034726Y029826D01*
X034613Y029919D01*
X034485Y029987D01*
X034345Y03003D01*
X0342Y030044D01*
D02*
G37*
G36*
X0113Y034802D02*
X01065D01*
Y034512D01*
X010329Y034191D01*
X010274Y034109D01*
X010255Y034011D01*
Y019752D01*
X010274Y019655D01*
X010329Y019572D01*
X01065Y019251D01*
Y018962D01*
X0113D01*
Y019612D01*
X01101D01*
X010764Y019858D01*
Y028828D01*
X010814Y028846D01*
X010874Y028774D01*
X010987Y028681D01*
X011115Y028613D01*
X011255Y02857D01*
X0114Y028556D01*
X011545Y02857D01*
X011685Y028613D01*
X011813Y028681D01*
X011926Y028774D01*
X012019Y028887D01*
X012087Y029015D01*
X01213Y029155D01*
X012144Y0293D01*
X01213Y029445D01*
X012087Y029585D01*
X012019Y029713D01*
X011926Y029826D01*
X011813Y029919D01*
X011685Y029987D01*
X011545Y03003D01*
X0114Y030044D01*
X011255Y03003D01*
X011115Y029987D01*
X010987Y029919D01*
X010874Y029826D01*
X010814Y029754D01*
X010764Y029772D01*
Y033905D01*
X01101Y034152D01*
X0113D01*
Y034802D01*
D02*
G37*
G36*
X03015Y030196D02*
X029983Y030179D01*
X029823Y030131D01*
X029675Y030052D01*
X029546Y029946D01*
X02944Y029816D01*
X029361Y029668D01*
X029312Y029508D01*
X029296Y029342D01*
X029312Y029175D01*
X029361Y029015D01*
X02944Y028867D01*
X029546Y028738D01*
X029675Y028631D01*
X029823Y028552D01*
X029983Y028504D01*
X03015Y028487D01*
X030317Y028504D01*
X030477Y028552D01*
X030625Y028631D01*
X030754Y028738D01*
X03086Y028867D01*
X030939Y029015D01*
X030988Y029175D01*
X031004Y029342D01*
X030988Y029508D01*
X030939Y029668D01*
X03086Y029816D01*
X030754Y029946D01*
X030625Y030052D01*
X030477Y030131D01*
X030317Y030179D01*
X03015Y030196D01*
D02*
G37*
G36*
X01205Y019612D02*
X0114D01*
Y018962D01*
X01205D01*
Y019612D01*
D02*
G37*
G36*
X0214Y034802D02*
X0207D01*
X02D01*
Y034152D01*
X020445D01*
Y019612D01*
X02D01*
Y018962D01*
X0207D01*
X0214D01*
Y019612D01*
X020955D01*
Y034152D01*
X0214D01*
Y034802D01*
D02*
G37*
G36*
Y018862D02*
X02075D01*
Y018212D01*
X0214D01*
Y018862D01*
D02*
G37*
G36*
X02065D02*
X02D01*
Y018212D01*
X02065D01*
Y018862D01*
D02*
G37*
G36*
X019349Y019612D02*
X017949D01*
Y018212D01*
X019349D01*
Y019612D01*
D02*
G37*
G36*
X01475Y018D02*
X01395D01*
Y01755D01*
X01475D01*
Y018D01*
D02*
G37*
G36*
X01385D02*
X01305D01*
Y01755D01*
X01385D01*
Y018D01*
D02*
G37*
G36*
Y01745D02*
X01305D01*
Y017D01*
X01385D01*
Y01745D01*
D02*
G37*
G36*
X015417Y01647D02*
X01502D01*
Y016073D01*
X015087Y016082D01*
X015197Y016127D01*
X015291Y016199D01*
X015363Y016293D01*
X015408Y016403D01*
X015417Y01647D01*
D02*
G37*
G36*
X01205Y018862D02*
X01135D01*
X01065D01*
Y018212D01*
X011095D01*
Y01745D01*
X011114Y017352D01*
X01117Y01727D01*
X0121Y01634D01*
X012182Y016285D01*
X01228Y016265D01*
X014598D01*
X014649Y016199D01*
X014743Y016127D01*
X014853Y016082D01*
X01492Y016073D01*
Y01652D01*
X01497D01*
Y01657D01*
X015417D01*
X015408Y016637D01*
X015363Y016747D01*
X015291Y016841D01*
X015197Y016913D01*
X015176Y016922D01*
X01515Y01696D01*
X01475Y01736D01*
Y01745D01*
X01395D01*
Y017D01*
X01439D01*
X014565Y016825D01*
X014544Y016775D01*
X012386D01*
X011605Y017556D01*
Y018212D01*
X01205D01*
Y018862D01*
D02*
G37*
G36*
X01497Y015964D02*
X014853Y015948D01*
X014743Y015903D01*
X014649Y015831D01*
X014577Y015737D01*
X014532Y015627D01*
X014516Y01551D01*
X014532Y015393D01*
X014577Y015283D01*
X014649Y015189D01*
X014743Y015117D01*
X014853Y015072D01*
X01497Y015056D01*
X015087Y015072D01*
X015197Y015117D01*
X015291Y015189D01*
X015363Y015283D01*
X015408Y015393D01*
X015424Y01551D01*
X015408Y015627D01*
X015363Y015737D01*
X015291Y015831D01*
X015197Y015903D01*
X015087Y015948D01*
X01497Y015964D01*
D02*
G37*
G36*
X028626Y01435D02*
X028201D01*
Y01385D01*
X028626D01*
Y01435D01*
D02*
G37*
G36*
X024675D02*
X02425D01*
Y01385D01*
X024675D01*
Y01435D01*
D02*
G37*
G36*
X028626Y01375D02*
X028201D01*
Y01325D01*
X028626D01*
Y01375D01*
D02*
G37*
G36*
X0166Y0415D02*
X0156D01*
Y0405D01*
X015845D01*
Y014746D01*
X015442Y014342D01*
X015399Y01437D01*
X015408Y014393D01*
X015424Y01451D01*
X015408Y014627D01*
X015363Y014737D01*
X015291Y014831D01*
X015197Y014903D01*
X015087Y014948D01*
X01497Y014964D01*
X014853Y014948D01*
X014743Y014903D01*
X014649Y014831D01*
X014577Y014737D01*
X014532Y014627D01*
X014516Y01451D01*
X014532Y014393D01*
X014577Y014283D01*
X014649Y014189D01*
X014743Y014117D01*
X014853Y014072D01*
X01497Y014056D01*
X015087Y014072D01*
X01511Y014081D01*
X015138Y014038D01*
X015053Y013953D01*
X01497Y013964D01*
X014853Y013948D01*
X014743Y013903D01*
X014649Y013831D01*
X014577Y013737D01*
X014532Y013627D01*
X014516Y01351D01*
X014532Y013393D01*
X014577Y013283D01*
X014649Y013189D01*
X014743Y013117D01*
X014853Y013072D01*
X01497Y013056D01*
X015087Y013072D01*
X015197Y013117D01*
X015291Y013189D01*
X015342Y013255D01*
X01576D01*
X015858Y013275D01*
X01594Y01333D01*
X017056Y014445D01*
X017352D01*
X017364Y014395D01*
X017298Y01436D01*
X017185Y014267D01*
X017093Y014154D01*
X017024Y014026D01*
X016982Y013886D01*
X016967Y013741D01*
X016982Y013596D01*
X017024Y013456D01*
X017093Y013328D01*
X017185Y013215D01*
X017298Y013122D01*
X017427Y013053D01*
X017566Y013011D01*
X017711Y012997D01*
X017857Y013011D01*
X017996Y013053D01*
X018125Y013122D01*
X018238Y013215D01*
X01833Y013328D01*
X018399Y013456D01*
X018441Y013596D01*
X018456Y013741D01*
X018441Y013886D01*
X018399Y014026D01*
X01833Y014154D01*
X018238Y014267D01*
X018125Y01436D01*
X018059Y014395D01*
X018071Y014445D01*
X025099D01*
X025197Y014464D01*
X025279Y01452D01*
X028179Y01742D01*
X028235Y017502D01*
X028254Y0176D01*
Y018212D01*
X028699D01*
Y019612D01*
X027343D01*
X027322Y019662D01*
X027506Y019845D01*
X028839D01*
X029275Y01941D01*
Y01843D01*
X02697Y016126D01*
X026915Y016043D01*
X026896Y015946D01*
Y014278D01*
X026812Y014214D01*
X026736Y014115D01*
X026688Y013999D01*
X026671Y013875D01*
Y013725D01*
X026688Y013601D01*
X026736Y013485D01*
X026812Y013386D01*
X026911Y01331D01*
X027027Y013262D01*
X027151Y013246D01*
X027254Y01326D01*
X027277Y013212D01*
X02707Y013005D01*
X025356D01*
X02468Y01368D01*
X024675Y013684D01*
Y01375D01*
X02425D01*
Y01325D01*
X02439D01*
X02507Y01257D01*
X025152Y012514D01*
X02525Y012495D01*
X027176D01*
X027273Y012514D01*
X027356Y01257D01*
X028036Y01325D01*
X028101D01*
Y0138D01*
Y01435D01*
X027676D01*
Y013909D01*
X027626Y013906D01*
X027613Y013999D01*
X027566Y014115D01*
X027489Y014214D01*
X027405Y014278D01*
Y01584D01*
X029635Y01807D01*
X030975D01*
Y01977D01*
X029635D01*
X029125Y02028D01*
X029043Y020336D01*
X028945Y020355D01*
X0274D01*
X027302Y020336D01*
X02722Y02028D01*
X02667Y01973D01*
X026614Y019648D01*
X026595Y01955D01*
Y017122D01*
X024828Y015355D01*
X017875D01*
X016755Y016475D01*
Y032597D01*
X01831Y034152D01*
X019349D01*
Y035552D01*
X017949D01*
Y034512D01*
X016401Y032964D01*
X016355Y032983D01*
Y0405D01*
X0166D01*
Y0415D01*
D02*
G37*
G36*
X033459Y014485D02*
X033314Y014471D01*
X033175Y014428D01*
X033046Y01436D01*
X032933Y014267D01*
X032841Y014154D01*
X032772Y014026D01*
X03273Y013886D01*
X032715Y013741D01*
X03273Y013596D01*
X032772Y013456D01*
X032841Y013328D01*
X032933Y013215D01*
X033046Y013122D01*
X033175Y013053D01*
X033314Y013011D01*
X033459Y012997D01*
X033605Y013011D01*
X033744Y013053D01*
X033873Y013122D01*
X033986Y013215D01*
X034078Y013328D01*
X034147Y013456D01*
X034189Y013596D01*
X034204Y013741D01*
X034189Y013886D01*
X034147Y014026D01*
X034078Y014154D01*
X033986Y014267D01*
X033873Y01436D01*
X033744Y014428D01*
X033605Y014471D01*
X033459Y014485D01*
D02*
G37*
G36*
X0232Y014354D02*
X023076Y014338D01*
X02296Y01429D01*
X022861Y014214D01*
X022785Y014115D01*
X022737Y013999D01*
X022721Y013875D01*
Y013725D01*
X022737Y013601D01*
X022785Y013485D01*
X022861Y013386D01*
X02296Y01331D01*
X023076Y013262D01*
X0232Y013246D01*
X023303Y01326D01*
X023327Y013212D01*
X022899Y012785D01*
X01475D01*
Y01303D01*
X01395D01*
Y01253D01*
Y01203D01*
X01475D01*
Y012275D01*
X023005D01*
X023103Y012294D01*
X023185Y01235D01*
X024085Y01325D01*
X02415D01*
Y0138D01*
Y01435D01*
X023725D01*
Y013909D01*
X023675Y013906D01*
X023663Y013999D01*
X023615Y014115D01*
X023539Y014214D01*
X02344Y01429D01*
X023324Y014338D01*
X0232Y014354D01*
D02*
G37*
G36*
X01385Y01303D02*
X01305D01*
Y01258D01*
X01385D01*
Y01303D01*
D02*
G37*
G36*
Y01248D02*
X01305D01*
Y01203D01*
X01385D01*
Y01248D01*
D02*
G37*
%LPD*%
G36*
X025062Y046317D02*
X025032Y046277D01*
X024683Y046473D01*
X024293Y046652D01*
X02389Y046801D01*
X023505Y046909D01*
X023512Y046959D01*
X02442D01*
X025062Y046317D01*
D02*
G37*
G36*
X020895Y046909D02*
X02051Y046801D01*
X020107Y046652D01*
X019717Y046473D01*
X019343Y046263D01*
X019338Y04626D01*
X019306Y046298D01*
X019968Y046959D01*
X020888D01*
X020895Y046909D01*
D02*
G37*
G36*
X027559Y04382D02*
Y042912D01*
X027509Y042905D01*
X027401Y04329D01*
X027252Y043693D01*
X027073Y044083D01*
X026877Y044432D01*
X026917Y044462D01*
X027559Y04382D01*
D02*
G37*
G36*
X02812Y038962D02*
X0282Y038858D01*
X028304Y038778D01*
X028426Y038727D01*
X028556Y03871D01*
X028683Y038727D01*
X031529Y035881D01*
Y035742D01*
X031483Y035722D01*
X030087Y037118D01*
X030005Y037174D01*
X029907Y037193D01*
X029196D01*
X028069Y03832D01*
Y038956D01*
X028118Y038965D01*
X02812Y038962D01*
D02*
G37*
G36*
X032744Y022815D02*
Y022497D01*
X032698Y022478D01*
X032039Y023137D01*
Y023454D01*
X032085Y023473D01*
X032744Y022815D01*
D02*
G37*
G36*
X027299Y019568D02*
Y018212D01*
X027744D01*
Y017706D01*
X027151Y017112D01*
X027105Y017131D01*
Y019444D01*
X027249Y019589D01*
X027299Y019568D01*
D02*
G37*
G36*
X017508Y015001D02*
X017489Y014955D01*
X01695D01*
X016852Y014935D01*
X01677Y01488D01*
X016322Y014433D01*
X016284Y014465D01*
X016336Y014542D01*
X016355Y01464D01*
Y016089D01*
X016401Y016108D01*
X017508Y015001D01*
D02*
G37*
D30*
X03285Y04975D02*
X03315Y04945D01*
Y048955D02*
Y04945D01*
X032295Y0481D02*
X03315Y048955D01*
X015945Y04975D02*
X03285D01*
X015295Y0491D02*
X015945Y04975D01*
X024934Y0151D02*
X02685Y017016D01*
X025099Y0147D02*
X027999Y0176D01*
X01695Y0147D02*
X025099D01*
X01777Y0151D02*
X024934D01*
X0165Y01637D02*
X01777Y0151D01*
X027999Y0176D02*
Y018912D01*
X02685Y017016D02*
Y01955D01*
X017548Y0449D02*
X019862Y047214D01*
X014822Y0449D02*
X017548D01*
X019862Y047214D02*
X024526D01*
X014822Y045079D02*
X015172Y045429D01*
X029907Y036938D02*
X031384Y035461D01*
X02909Y036938D02*
X029907D01*
X027814Y038214D02*
X02909Y036938D01*
X027814Y038214D02*
Y043926D01*
X030125Y02442D02*
X031384Y025679D01*
Y035461D01*
X024526Y047214D02*
X027814Y043926D01*
X014822Y0449D02*
Y045079D01*
X014645Y04975D02*
X015295Y0491D01*
X0129Y04975D02*
X014645D01*
X012322Y049172D02*
X0129Y04975D01*
X02685Y01955D02*
X0274Y0201D01*
X028945D01*
X030125Y01892D01*
X0165Y01637D02*
Y032702D01*
X0161Y01464D02*
Y041D01*
X01497Y01351D02*
X0161Y01464D01*
X01576Y01351D02*
X01695Y0147D01*
X01497Y01351D02*
X01576D01*
X0165Y032702D02*
X018649Y034852D01*
X0207Y018912D02*
Y034852D01*
X0242Y013725D02*
Y0138D01*
X023005Y01253D02*
X0242Y013725D01*
X0139Y01253D02*
X023005D01*
X01497Y01652D02*
Y01678D01*
X0139Y0175D02*
X01425D01*
X01497Y01678D01*
X010509Y034011D02*
X01135Y034852D01*
X010509Y019752D02*
Y034011D01*
Y019752D02*
X01135Y018912D01*
X028151Y013725D02*
Y0138D01*
X027176Y01275D02*
X028151Y013725D01*
X02525Y01275D02*
X027176D01*
X0245Y0135D02*
X02525Y01275D01*
X024425Y0135D02*
X0245D01*
X0242Y013725D02*
X024425Y0135D01*
X027151Y015946D02*
X030125Y01892D01*
X027151Y0138D02*
Y015946D01*
X033219Y027D02*
X033294D01*
X032994Y027225D02*
X033219Y027D01*
X032994Y027225D02*
Y03837D01*
X03215Y039214D02*
X032994Y03837D01*
X032184Y023735D02*
Y036786D01*
Y023735D02*
X033219Y0227D01*
X033116Y0217D02*
X033294D01*
X031784Y023031D02*
X033116Y0217D01*
X031784Y023031D02*
Y035986D01*
X028556Y039214D02*
X031784Y035986D01*
X029756Y039214D02*
X032184Y036786D01*
X03095Y039214D02*
X032584Y03758D01*
Y026531D02*
Y03758D01*
Y026531D02*
X033116Y026D01*
X033219Y0227D02*
X033294D01*
X033116Y026D02*
X033294D01*
X03014Y034852D02*
X03015Y034842D01*
X027999Y034852D02*
X03014D01*
X01228Y01652D02*
X01497D01*
X01135Y01745D02*
X01228Y01652D01*
X01135Y01745D02*
Y018912D01*
X0138Y036294D02*
X013822Y036316D01*
X0138Y035652D02*
Y036294D01*
X013Y034852D02*
X0138Y035652D01*
X01135Y034852D02*
X013D01*
X013822Y036316D02*
Y037694D01*
X0132Y038316D02*
X013822Y037694D01*
X012322Y038316D02*
X0132D01*
X012322D02*
Y0449D01*
X013822Y0429D02*
Y044078D01*
X013Y0449D02*
X013822Y044078D01*
X012322Y0449D02*
X013D01*
X013822Y0429D02*
X0154D01*
X0161Y0422D01*
X012322Y0449D02*
Y049172D01*
X013295Y0491D02*
X014295D01*
X033986Y046214D02*
Y04633D01*
X032295Y048021D02*
X033986Y04633D01*
X032295Y048021D02*
Y0481D01*
X032094Y04477D02*
X03215Y044714D01*
X032094Y04477D02*
Y045564D01*
X030303Y047355D02*
X032094Y045564D01*
X030303Y047355D02*
Y048092D01*
X030295Y0481D02*
X030303Y048092D01*
X03095Y044714D02*
Y045608D01*
X029295Y047263D02*
X03095Y045608D01*
X029295Y047263D02*
Y0481D01*
X029756Y044714D02*
Y045705D01*
X028295Y047166D02*
X029756Y045705D01*
X028295Y047166D02*
Y0481D01*
X028556Y044714D02*
Y045943D01*
X027295Y047204D02*
X028556Y045943D01*
X027295Y047204D02*
Y0481D01*
D31*
X0161Y041D02*
D03*
D32*
Y0422D02*
D03*
X033986Y046214D02*
D03*
X035186D02*
D03*
X028556Y039214D02*
D03*
X029756D02*
D03*
X03095D02*
D03*
X03215D02*
D03*
Y044714D02*
D03*
X03095D02*
D03*
X029756D02*
D03*
X028556D02*
D03*
D33*
X027999Y018912D02*
D03*
X0207D02*
D03*
Y034852D02*
D03*
X027999D02*
D03*
X018649D02*
D03*
X01135D02*
D03*
Y018912D02*
D03*
X018649D02*
D03*
D34*
X03015Y029342D02*
D03*
X030125Y02442D02*
D03*
D35*
X03015Y034842D02*
D03*
X030125Y01892D02*
D03*
D36*
X0139Y0175D02*
D03*
Y01253D02*
D03*
D37*
X01497Y01351D02*
D03*
Y01451D02*
D03*
Y01551D02*
D03*
Y01652D02*
D03*
D38*
X033294Y026D02*
D03*
Y0217D02*
D03*
D39*
Y027D02*
D03*
Y0227D02*
D03*
D40*
X013822Y0429D02*
D03*
Y036316D02*
D03*
D41*
X012322Y0449D02*
D03*
X014822D02*
D03*
Y038316D02*
D03*
X012322D02*
D03*
D42*
X013295Y0481D02*
D03*
D43*
Y0491D02*
D03*
X014295Y0481D02*
D03*
Y0491D02*
D03*
X015295Y0481D02*
D03*
Y0491D02*
D03*
X016295Y0481D02*
D03*
Y0491D02*
D03*
X017295Y0481D02*
D03*
Y0491D02*
D03*
X018295Y0481D02*
D03*
Y0491D02*
D03*
X019295Y0481D02*
D03*
Y0491D02*
D03*
X020295Y0481D02*
D03*
Y0491D02*
D03*
X021295Y0481D02*
D03*
Y0491D02*
D03*
X022295Y0481D02*
D03*
Y0491D02*
D03*
X023295Y0481D02*
D03*
Y0491D02*
D03*
X024295Y0481D02*
D03*
Y0491D02*
D03*
X025295Y0481D02*
D03*
Y0491D02*
D03*
X026295Y0481D02*
D03*
Y0491D02*
D03*
X027295Y0481D02*
D03*
Y0491D02*
D03*
X028295Y0481D02*
D03*
Y0491D02*
D03*
X029295Y0481D02*
D03*
Y0491D02*
D03*
X030295Y0481D02*
D03*
Y0491D02*
D03*
X031295Y0481D02*
D03*
Y0491D02*
D03*
X032295Y0481D02*
D03*
Y0491D02*
D03*
D44*
X028151Y0138D02*
D03*
X0242D02*
D03*
D45*
X027151D02*
D03*
X0232D02*
D03*
M02*
