G04*
G04 #@! TF.GenerationSoftware,Altium Limited,Altium Designer,19.0.4 (130)*
G04*
G04 Layer_Physical_Order=1*
G04 Layer_Color=255*
%FSTAX24Y24*%
%MOIN*%
G70*
G01*
G75*
%ADD24C,0.0394*%
%ADD25C,0.0800*%
%ADD26C,0.0700*%
%ADD27R,0.0800X0.1500*%
%ADD28R,0.1200X0.1200*%
%ADD29O,0.0750X0.0900*%
%ADD30R,0.0750X0.0900*%
%ADD31C,0.1100*%
%ADD32O,0.0900X0.0750*%
%ADD33R,0.0900X0.0750*%
%ADD34R,0.1000X0.1600*%
%ADD35R,0.1600X0.1000*%
G36*
X05665Y0155D02*
X02695D01*
Y05015D01*
X05665D01*
Y0155D01*
D02*
G37*
%LPC*%
G36*
X039661Y048939D02*
X039298Y048789D01*
X039249Y048671D01*
X039074D01*
X039025Y048789D01*
X038661Y048939D01*
X038298Y048789D01*
X038249Y048671D01*
X038074D01*
X038025Y048789D01*
X037661Y048939D01*
X037298Y048789D01*
X037249Y048671D01*
X037074D01*
X037025Y048789D01*
X036661Y048939D01*
X036298Y048789D01*
X036249Y048671D01*
X036136D01*
Y0489D01*
X035186D01*
Y0478D01*
X036136D01*
Y048029D01*
X036249D01*
X036298Y047911D01*
X036661Y047761D01*
X037025Y047911D01*
X037074Y048029D01*
X037249D01*
X037298Y047911D01*
X037661Y047761D01*
X038025Y047911D01*
X038074Y048029D01*
X038249D01*
X038298Y047911D01*
X038661Y047761D01*
X039025Y047911D01*
X039074Y048029D01*
X039249D01*
X039298Y047911D01*
X039661Y047761D01*
X039704Y047778D01*
X042629Y044853D01*
X042856Y044759D01*
X044706D01*
X044716Y044736D01*
X04506Y044593D01*
X045404Y044736D01*
X045533Y045046D01*
X045587D01*
X045716Y044736D01*
X04606Y044593D01*
X046404Y044736D01*
X046533Y045046D01*
X046587D01*
X046716Y044736D01*
X04706Y044593D01*
X047087Y044552D01*
X045607Y043071D01*
X04455D01*
Y04345D01*
X0439D01*
Y04275D01*
Y04205D01*
X04455D01*
Y042429D01*
X04574D01*
X045967Y042523D01*
X04802Y044576D01*
Y04508D01*
Y045546D01*
X047726Y045424D01*
X047592Y045102D01*
X047538D01*
X047404Y045424D01*
X047381Y045434D01*
Y045877D01*
X048483Y046979D01*
X04855D01*
Y0453D01*
X04955D01*
Y046979D01*
X04995D01*
Y0453D01*
X05095D01*
Y046979D01*
X051967D01*
X053109Y045837D01*
Y045434D01*
X053086Y045424D01*
X052957Y045114D01*
X052903D01*
X052774Y045424D01*
X05243Y045567D01*
X052086Y045424D01*
X051957Y045114D01*
X051903D01*
X051774Y045424D01*
X05143Y045567D01*
X051086Y045424D01*
X050943Y04508D01*
X051086Y044736D01*
X05143Y044593D01*
X051774Y044736D01*
X051903Y045046D01*
X051957D01*
X052086Y044736D01*
X05243Y044593D01*
X052774Y044736D01*
X052903Y045046D01*
X052957D01*
X053086Y044736D01*
X05343Y044593D01*
X053457Y044552D01*
X053377Y044471D01*
X049133D01*
X048574Y04503D01*
X04812D01*
Y044576D01*
X048773Y043923D01*
X049Y043829D01*
X05351D01*
X053737Y043923D01*
X054072Y044258D01*
X054119Y044239D01*
Y041434D01*
X054213Y041207D01*
X055477Y039943D01*
X055449Y039902D01*
X055082Y040054D01*
X054585Y039847D01*
X054379Y03935D01*
X054585Y038853D01*
X055082Y038646D01*
X05558Y038853D01*
X05573Y039214D01*
X055779Y039204D01*
Y038501D01*
X055259Y037981D01*
X055132Y038033D01*
Y0374D01*
X055765D01*
X055713Y037526D01*
X056327Y03814D01*
X056421Y038368D01*
Y039774D01*
X056327Y040002D01*
X055472Y040857D01*
X055499Y040899D01*
X0555Y040898D01*
X056067Y041133D01*
X056302Y0417D01*
X056067Y042267D01*
X0555Y042502D01*
X054933Y042267D01*
X05481Y04197D01*
X054761Y04198D01*
Y044726D01*
X054784Y044736D01*
X054906Y04503D01*
X05444D01*
Y04508D01*
X05439D01*
Y045546D01*
X054096Y045424D01*
X053962Y045102D01*
X053908D01*
X053774Y045424D01*
X053751Y045434D01*
Y04597D01*
X053657Y046197D01*
X052327Y047527D01*
X0521Y047621D01*
X04835D01*
X048123Y047527D01*
X046833Y046237D01*
X046739Y04601D01*
Y045434D01*
X046716Y045424D01*
X046587Y045114D01*
X046533D01*
X046404Y045424D01*
X04606Y045567D01*
X045716Y045424D01*
X045587Y045114D01*
X045533D01*
X045404Y045424D01*
X04506Y045567D01*
X044716Y045424D01*
X044706Y045401D01*
X04458D01*
Y047D01*
X04358D01*
Y045401D01*
X04299D01*
X040158Y048233D01*
X040176Y048275D01*
Y048425D01*
X040025Y048789D01*
X039661Y048939D01*
D02*
G37*
G36*
X03235D02*
X031986Y048789D01*
X031938Y048671D01*
X031762D01*
X031714Y048789D01*
X03135Y048939D01*
X030986Y048789D01*
X030938Y048671D01*
X030762D01*
X030714Y048789D01*
X03035Y048939D01*
X029986Y048789D01*
X029938Y048671D01*
X029762D01*
X029714Y048789D01*
X02935Y048939D01*
X028986Y048789D01*
X028938Y048671D01*
X028825D01*
Y0489D01*
X027875D01*
Y0478D01*
X028825D01*
Y048029D01*
X028938D01*
X028986Y047911D01*
X02935Y047761D01*
X029714Y047911D01*
X029762Y048029D01*
X029938D01*
X029986Y047911D01*
X03035Y047761D01*
X030714Y047911D01*
X030762Y048029D01*
X030938D01*
X030986Y047911D01*
X03135Y047761D01*
X031714Y047911D01*
X031762Y048029D01*
X031938D01*
X031986Y047911D01*
X03235Y047761D01*
X032714Y047911D01*
X032864Y048275D01*
Y048425D01*
X032714Y048789D01*
X03235Y048939D01*
D02*
G37*
G36*
X039611Y045918D02*
X039298Y045789D01*
X039249Y045671D01*
X039074D01*
X039025Y045789D01*
X038711Y045918D01*
Y04535D01*
Y044782D01*
X039025Y044911D01*
X039074Y045029D01*
X039249D01*
X039298Y044911D01*
X039611Y044782D01*
Y04535D01*
Y045918D01*
D02*
G37*
G36*
X038611D02*
X038298Y045789D01*
X038249Y045671D01*
X038074D01*
X038025Y045789D01*
X037711Y045918D01*
Y04535D01*
Y044782D01*
X038025Y044911D01*
X038074Y045029D01*
X038249D01*
X038298Y044911D01*
X038611Y044782D01*
Y04535D01*
Y045918D01*
D02*
G37*
G36*
X037611D02*
X037298Y045789D01*
X037249Y045671D01*
X037074D01*
X037025Y045789D01*
X036711Y045918D01*
Y04535D01*
Y044782D01*
X037025Y044911D01*
X037074Y045029D01*
X037249D01*
X037298Y044911D01*
X037611Y044782D01*
Y04535D01*
Y045918D01*
D02*
G37*
G36*
X036611D02*
X036298Y045789D01*
X036249Y045671D01*
X036136D01*
Y0459D01*
X035711D01*
Y04535D01*
Y0448D01*
X036136D01*
Y045029D01*
X036249D01*
X036298Y044911D01*
X036611Y044782D01*
Y04535D01*
Y045918D01*
D02*
G37*
G36*
X0313D02*
X030986Y045789D01*
X030938Y045671D01*
X030762D01*
X030714Y045789D01*
X0304Y045918D01*
Y04535D01*
Y044782D01*
X030714Y044911D01*
X030762Y045029D01*
X030938D01*
X030986Y044911D01*
X0313Y044782D01*
Y04535D01*
Y045918D01*
D02*
G37*
G36*
X0303D02*
X029986Y045789D01*
X029938Y045671D01*
X029762D01*
X029714Y045789D01*
X0294Y045918D01*
Y04535D01*
X0293D01*
Y045918D01*
X028986Y045789D01*
X028938Y045671D01*
X028825D01*
Y0459D01*
X0284D01*
Y04535D01*
Y0448D01*
X028825D01*
Y045029D01*
X028938D01*
X028979Y04493D01*
Y04265D01*
X02865D01*
Y0418D01*
X02985D01*
Y04265D01*
X029621D01*
Y044873D01*
X029714Y044911D01*
X029762Y045029D01*
X029938D01*
X029986Y044911D01*
X0303Y044782D01*
Y04535D01*
Y045918D01*
D02*
G37*
G36*
X0283Y0459D02*
X027875D01*
Y0454D01*
X0283D01*
Y0459D01*
D02*
G37*
G36*
X0324Y045918D02*
Y04535D01*
X0323D01*
Y045918D01*
X031986Y045789D01*
X031938Y045671D01*
X031762D01*
X031714Y045789D01*
X0314Y045918D01*
Y04535D01*
Y044782D01*
X031714Y044911D01*
X031762Y045029D01*
X031938D01*
X031986Y044911D01*
X032029Y044894D01*
Y044275D01*
X032123Y044048D01*
X034321Y04185D01*
X0349D01*
X035468D01*
X035339Y042164D01*
X035069Y042275D01*
Y042325D01*
X035246Y042398D01*
X039476Y038168D01*
X039457Y038121D01*
X03545D01*
Y038275D01*
X035079D01*
X035069Y038325D01*
X035339Y038436D01*
X035489Y0388D01*
X035339Y039164D01*
X035069Y039275D01*
Y039325D01*
X035339Y039436D01*
X035489Y0398D01*
X035339Y040164D01*
X035069Y040275D01*
Y040325D01*
X035339Y040436D01*
X035489Y0408D01*
X035339Y041164D01*
X035069Y041275D01*
Y041325D01*
X035339Y041436D01*
X035468Y04175D01*
X0349D01*
X034332D01*
X034461Y041436D01*
X034731Y041325D01*
Y041275D01*
X034461Y041164D01*
X034311Y0408D01*
X034461Y040436D01*
X034731Y040325D01*
Y040275D01*
X034461Y040164D01*
X034311Y0398D01*
X034461Y039436D01*
X034731Y039325D01*
Y039275D01*
X034461Y039164D01*
X034416Y039053D01*
X034326D01*
X034099Y038959D01*
X033473Y038333D01*
X033379Y038106D01*
Y03705D01*
X033473Y036823D01*
X035758Y034537D01*
X035731Y034496D01*
X0355Y034591D01*
X035439Y034566D01*
X033121Y036883D01*
Y0404D01*
X033027Y040627D01*
X03235Y041304D01*
Y04265D01*
X03115D01*
Y04085D01*
X031896D01*
X032479Y040267D01*
Y03675D01*
X032573Y036523D01*
X034984Y034111D01*
X034959Y03405D01*
X035117Y033667D01*
X0355Y033509D01*
X035883Y033667D01*
X036041Y03405D01*
X035946Y034281D01*
X035987Y034308D01*
X046373Y023923D01*
X0466Y023829D01*
X054512D01*
X054585Y023653D01*
X055082Y023446D01*
X055259Y023519D01*
X055779Y022999D01*
Y022296D01*
X05573Y022286D01*
X05558Y022647D01*
X055132Y022833D01*
Y02215D01*
Y021467D01*
X055447Y021598D01*
X055475Y021556D01*
X05044Y016521D01*
X038752D01*
X03852Y016754D01*
X038539Y0168D01*
X039375D01*
Y017171D01*
X039425Y017181D01*
X039536Y016911D01*
X0399Y016761D01*
X040264Y016911D01*
X040375Y017181D01*
X040425D01*
X040536Y016911D01*
X0409Y016761D01*
X041264Y016911D01*
X041375Y017181D01*
X041425D01*
X041536Y016911D01*
X0419Y016761D01*
X042264Y016911D01*
X042414Y017275D01*
Y017425D01*
X042264Y017789D01*
X0419Y017939D01*
X041875Y017929D01*
X040784Y019021D01*
X040556Y019115D01*
X038339D01*
X035648Y021806D01*
X035421Y0219D01*
X035356D01*
X035339Y021942D01*
X035069Y022054D01*
Y022104D01*
X035339Y022215D01*
X035356Y022257D01*
X041528D01*
X04315Y020636D01*
Y02044D01*
X0438D01*
Y02109D01*
X043604D01*
X041888Y022806D01*
X041661Y0229D01*
X035356D01*
X035339Y022942D01*
X035069Y023054D01*
Y023104D01*
X035339Y023215D01*
X035489Y023579D01*
X035339Y023942D01*
X034975Y024093D01*
X034825D01*
X034461Y023942D01*
X034311Y023579D01*
X034461Y023215D01*
X034731Y023104D01*
Y023054D01*
X034461Y022942D01*
X034372Y022726D01*
X033173Y021527D01*
X033079Y0213D01*
Y018683D01*
X031667Y017271D01*
X029933D01*
X029905Y017306D01*
X029923Y01735D01*
X03165D01*
Y01855D01*
X02985D01*
Y01742D01*
X029804Y017401D01*
X029571Y017633D01*
Y01905D01*
X02985D01*
Y0199D01*
X02865D01*
Y01905D01*
X028929D01*
Y0175D01*
X029023Y017273D01*
X029573Y016723D01*
X0298Y016629D01*
X0318D01*
X032027Y016723D01*
X033627Y018323D01*
X033721Y01855D01*
Y021167D01*
X034346Y021791D01*
X034387Y021764D01*
X034311Y021579D01*
X034461Y021215D01*
X034731Y021104D01*
Y021054D01*
X034461Y020942D01*
X034311Y020579D01*
X034461Y020215D01*
X034731Y020104D01*
Y020054D01*
X034461Y019942D01*
X034311Y019579D01*
X034461Y019215D01*
X034731Y019104D01*
X034721Y019054D01*
X03435D01*
Y018104D01*
X03545D01*
Y01885D01*
X035496Y018869D01*
X038392Y015973D01*
X038619Y015879D01*
X050574D01*
X050801Y015973D01*
X054764Y019936D01*
X054805Y019908D01*
X054698Y01965D01*
X054933Y019083D01*
X0555Y018848D01*
X056067Y019083D01*
X056302Y01965D01*
X056067Y020217D01*
X0555Y020452D01*
X055242Y020345D01*
X055214Y020386D01*
X056327Y021499D01*
X056421Y021726D01*
Y023132D01*
X056327Y02336D01*
X055713Y023974D01*
X055786Y02415D01*
X05558Y024647D01*
X055082Y024854D01*
X054585Y024647D01*
X054512Y024471D01*
X046733D01*
X034021Y037183D01*
Y037973D01*
X0343Y038251D01*
X03435Y038231D01*
Y037325D01*
X03545D01*
Y037479D01*
X039467D01*
X048616Y028329D01*
X048844Y028235D01*
X054602D01*
X054815Y028022D01*
X054742Y027846D01*
X054948Y027349D01*
X055446Y027143D01*
X055943Y027349D01*
X056149Y027846D01*
X055943Y028344D01*
X055446Y02855D01*
X05527Y028477D01*
X054963Y028784D01*
X054924Y028799D01*
X054913Y028858D01*
X05527Y029215D01*
X055446Y029143D01*
X055943Y029349D01*
X056149Y029846D01*
X055943Y030344D01*
X055446Y03055D01*
X054948Y030344D01*
X054742Y029846D01*
X054815Y02967D01*
X054517Y029371D01*
X049181D01*
X035528Y043024D01*
X035527Y043027D01*
X035368Y043093D01*
X035339Y043164D01*
X034975Y043314D01*
X034825D01*
X034461Y043164D01*
X034322Y042828D01*
X034265Y042815D01*
X032671Y044408D01*
Y044894D01*
X032714Y044911D01*
X032762Y045029D01*
X035186D01*
Y0448D01*
X035611D01*
Y04535D01*
Y0459D01*
X035186D01*
Y045671D01*
X032762D01*
X032714Y045789D01*
X0324Y045918D01*
D02*
G37*
G36*
X05592Y047D02*
X05492D01*
Y0453D01*
X05592D01*
Y047D01*
D02*
G37*
G36*
X05449Y045546D02*
Y04513D01*
X054906D01*
X054784Y045424D01*
X05449Y045546D01*
D02*
G37*
G36*
X04812D02*
Y04513D01*
X048536D01*
X048414Y045424D01*
X04812Y045546D01*
D02*
G37*
G36*
X0283Y0453D02*
X027875D01*
Y0448D01*
X0283D01*
Y0453D01*
D02*
G37*
G36*
X039711Y045918D02*
Y04535D01*
Y044782D01*
X040025Y044911D01*
X040074Y045029D01*
X041117D01*
X04315Y042996D01*
Y0428D01*
X0438D01*
Y04345D01*
X043604D01*
X041477Y045577D01*
X04125Y045671D01*
X040074D01*
X040025Y045789D01*
X039711Y045918D01*
D02*
G37*
G36*
X050062Y04345D02*
X048662D01*
Y04205D01*
X050062D01*
Y04345D01*
D02*
G37*
G36*
X0438Y0427D02*
X04315D01*
Y04205D01*
X0438D01*
Y0427D01*
D02*
G37*
G36*
X051791Y043472D02*
X051225Y043237D01*
X05099Y04267D01*
X051225Y042103D01*
X051791Y041868D01*
X052358Y042103D01*
X052593Y04267D01*
X052358Y043237D01*
X051791Y043472D01*
D02*
G37*
G36*
X038661D02*
X038095Y043237D01*
X03786Y04267D01*
X038095Y042103D01*
X038661Y041868D01*
X039228Y042103D01*
X039463Y04267D01*
X039228Y043237D01*
X038661Y043472D01*
D02*
G37*
G36*
X03165Y04035D02*
X02985D01*
Y03915D01*
X03165D01*
Y04035D01*
D02*
G37*
G36*
X02985Y0417D02*
X02865D01*
Y04085D01*
X028929D01*
Y038459D01*
X028654Y038185D01*
X028613Y038212D01*
X028752Y038548D01*
X028517Y039114D01*
X02795Y039349D01*
X027383Y039114D01*
X027148Y038548D01*
X027383Y037981D01*
X02795Y037746D01*
X028285Y037885D01*
X028313Y037843D01*
X027223Y036753D01*
X027129Y036526D01*
Y035475D01*
X027223Y035248D01*
X027771Y0347D01*
X02835D01*
X0289D01*
Y034833D01*
X028946Y034853D01*
X029079Y03472D01*
Y031408D01*
X028985Y031315D01*
X028928Y031328D01*
X028789Y031664D01*
X028671Y031712D01*
Y034175D01*
X0289D01*
Y0346D01*
X02835D01*
X0278D01*
Y034175D01*
X028029D01*
Y031712D01*
X027911Y031664D01*
X027847Y031508D01*
X027729Y031459D01*
X027132Y030863D01*
X027038Y030635D01*
Y026766D01*
X027132Y026538D01*
X027771Y0259D01*
X02835D01*
X0289D01*
Y026325D01*
X028529D01*
X028519Y026375D01*
X028789Y026486D01*
X028939Y02685D01*
X028789Y027214D01*
X028425Y027364D01*
X028275D01*
X027911Y027214D01*
X027772Y026878D01*
X027715Y026865D01*
X027681Y026899D01*
Y030502D01*
X027754Y030575D01*
X0278Y030556D01*
Y029825D01*
X028446D01*
X028548Y029723D01*
X028775Y029629D01*
X032044D01*
X032061Y029586D01*
X032331Y029475D01*
Y029425D01*
X032061Y029314D01*
X031911Y02895D01*
X032061Y028586D01*
X032331Y028475D01*
X032321Y028425D01*
X03195D01*
Y027475D01*
X03305D01*
Y028425D01*
X032679D01*
X032669Y028475D01*
X032939Y028586D01*
X032956Y028629D01*
X034799D01*
X035026Y028723D01*
X035438Y029134D01*
X0355Y029109D01*
X035883Y029267D01*
X036041Y02965D01*
X035883Y030033D01*
X0355Y030191D01*
X035117Y030033D01*
X034959Y02965D01*
X034984Y029589D01*
X034666Y029271D01*
X032956D01*
X032939Y029314D01*
X032669Y029425D01*
Y029475D01*
X032939Y029586D01*
X033089Y02995D01*
X032939Y030314D01*
X032669Y030425D01*
Y030475D01*
X032939Y030586D01*
X033089Y03095D01*
X032939Y031314D01*
X032669Y031425D01*
Y031475D01*
X032939Y031586D01*
X032956Y031629D01*
X034857D01*
X034975Y03151D01*
X035117Y031167D01*
X0355Y031009D01*
X035883Y031167D01*
X036041Y03155D01*
X035883Y031933D01*
X0355Y032091D01*
X035361Y032034D01*
X035217Y032177D01*
X03499Y032271D01*
X032956D01*
X032939Y032314D01*
X032669Y032425D01*
Y032475D01*
X032939Y032586D01*
X033089Y03295D01*
X032939Y033314D01*
X032575Y033464D01*
X032425D01*
X032061Y033314D01*
X031911Y03295D01*
X032061Y032586D01*
X032331Y032475D01*
Y032425D01*
X032061Y032314D01*
X031911Y03195D01*
X032061Y031586D01*
X032331Y031475D01*
Y031425D01*
X032061Y031314D01*
X031911Y03095D01*
X032061Y030586D01*
X032331Y030475D01*
Y030425D01*
X032061Y030314D01*
X032044Y030271D01*
X028908D01*
X0289Y030279D01*
Y030321D01*
X029627Y031048D01*
X029721Y031275D01*
Y034853D01*
X029627Y03508D01*
X028899Y035809D01*
X028868Y035822D01*
X028789Y036014D01*
X028425Y036164D01*
X028275D01*
X027911Y036014D01*
X02782Y035794D01*
X027771Y035803D01*
Y036393D01*
X029477Y038099D01*
X029571Y038326D01*
Y04085D01*
X02985D01*
Y0417D01*
D02*
G37*
G36*
X055032Y038033D02*
X054585Y037847D01*
X0544Y0374D01*
X055032D01*
Y038033D01*
D02*
G37*
G36*
Y0373D02*
X0544D01*
X054585Y036853D01*
X055032Y036667D01*
Y0373D01*
D02*
G37*
G36*
X055765D02*
X055132D01*
Y036667D01*
X05558Y036853D01*
X055765Y0373D01*
D02*
G37*
G36*
X055442Y034554D02*
X054944Y034347D01*
X054738Y03385D01*
X054944Y033353D01*
X055442Y033146D01*
X055939Y033353D01*
X056145Y03385D01*
X055939Y034347D01*
X055442Y034554D01*
D02*
G37*
G36*
X055445Y03255D02*
X054948Y032344D01*
X054742Y031847D01*
X054948Y031349D01*
X055445Y031143D01*
X055943Y031349D01*
X056149Y031847D01*
X055943Y032344D01*
X055445Y03255D01*
D02*
G37*
G36*
X0355Y027691D02*
X035117Y027533D01*
X034959Y02715D01*
X034984Y027089D01*
X031523Y023627D01*
X031429Y0234D01*
Y02085D01*
X03115D01*
Y01905D01*
X03235D01*
Y02085D01*
X032071D01*
Y023267D01*
X035439Y026634D01*
X0355Y026609D01*
X035883Y026767D01*
X036041Y02715D01*
X035883Y027533D01*
X0355Y027691D01*
D02*
G37*
G36*
X0283Y0258D02*
X0278D01*
Y025375D01*
X0283D01*
Y0258D01*
D02*
G37*
G36*
X055032Y022833D02*
X054585Y022647D01*
X0544Y0222D01*
X055032D01*
Y022833D01*
D02*
G37*
G36*
X02795Y023601D02*
X027383Y023366D01*
X027148Y0228D01*
X027383Y022233D01*
X02795Y021998D01*
X028517Y022233D01*
X028752Y0228D01*
X028517Y023366D01*
X02795Y023601D01*
D02*
G37*
G36*
X055032Y0221D02*
X0544D01*
X054452Y021974D01*
X052427Y019949D01*
X052385Y019978D01*
X052593Y02048D01*
X052358Y021047D01*
X051791Y021282D01*
X051225Y021047D01*
X05099Y02048D01*
X051225Y019913D01*
X051791Y019678D01*
X052294Y019887D01*
X052322Y019844D01*
X052032Y019554D01*
X045141D01*
X04455Y020144D01*
Y02034D01*
X0439D01*
Y01969D01*
X044096D01*
X04478Y019005D01*
X045008Y018911D01*
X052165D01*
X052392Y019005D01*
X054906Y021519D01*
X055032Y021467D01*
Y0221D01*
D02*
G37*
G36*
X04455Y02109D02*
X0439D01*
Y02044D01*
X04455D01*
Y02109D01*
D02*
G37*
G36*
X0289Y0258D02*
X0284D01*
Y025346D01*
X028929Y024817D01*
Y02085D01*
X02865D01*
Y02D01*
X02985D01*
Y02085D01*
X029571D01*
Y02495D01*
X029477Y025177D01*
X0289Y025754D01*
Y0258D01*
D02*
G37*
G36*
X050062Y02109D02*
X048662D01*
Y01969D01*
X050062D01*
Y02109D01*
D02*
G37*
G36*
X0438Y02034D02*
X04315D01*
Y01969D01*
X0438D01*
Y02034D01*
D02*
G37*
G36*
X038661Y021282D02*
X038095Y021047D01*
X03786Y02048D01*
X038095Y019913D01*
X038661Y019678D01*
X039228Y019913D01*
X039463Y02048D01*
X039228Y021047D01*
X038661Y021282D01*
D02*
G37*
%LPD*%
G36*
X037775Y018073D02*
X038002Y017979D01*
X039865D01*
X039875Y017929D01*
X039536Y017789D01*
X039425Y017519D01*
X039375Y017529D01*
Y0179D01*
X038425D01*
Y016914D01*
X038379Y016895D01*
X035536Y019738D01*
X0354Y019794D01*
X035339Y019942D01*
X035069Y020054D01*
Y020104D01*
X035339Y020215D01*
X035356Y020257D01*
X03559D01*
X037775Y018073D01*
D02*
G37*
D24*
X0353Y042798D02*
Y0428D01*
Y042798D02*
X049048Y02905D01*
X0349Y0428D02*
X0353D01*
X049048Y02905D02*
X05465D01*
X0419Y01735D02*
Y01745D01*
X040556Y018794D02*
X0419Y01745D01*
X038206Y018794D02*
X040556D01*
X0409Y01735D02*
Y01745D01*
X04005Y0183D02*
X0409Y01745D01*
X038002Y0183D02*
X04005D01*
X035421Y021579D02*
X038206Y018794D01*
X035723Y020579D02*
X038002Y0183D01*
X0349Y020579D02*
X035723D01*
X028425Y0303D02*
X028775Y02995D01*
X03175Y04145D02*
X0328Y0404D01*
Y03675D02*
Y0404D01*
Y03675D02*
X0355Y03405D01*
X054736Y028556D02*
X055446Y027846D01*
X048844Y028556D02*
X054736D01*
X0396Y0378D02*
X048844Y028556D01*
X05465Y02905D02*
X055446Y029846D01*
X0349Y0428D02*
Y042813D01*
Y0378D02*
X0396D01*
X03235Y04535D02*
X035661D01*
X04125D02*
X04385Y04275D01*
X039661Y04535D02*
X04125D01*
X0466Y02415D02*
X055082D01*
X0337Y03705D02*
X0466Y02415D01*
X0337Y03705D02*
Y038106D01*
X034326Y038732D01*
X034832D01*
X0349Y0388D01*
X042856Y04508D02*
X04506D01*
X039661Y048275D02*
X042856Y04508D01*
X039661Y048275D02*
Y04835D01*
X04574Y04275D02*
X04807Y04508D01*
X04385Y04275D02*
X04574D01*
X0561Y021726D02*
Y023132D01*
X050574Y0162D02*
X0561Y021726D01*
X038619Y0162D02*
X050574D01*
X055082Y02415D02*
X0561Y023132D01*
X035309Y019511D02*
X038619Y0162D01*
X034968Y019511D02*
X035309D01*
X0349Y019579D02*
X034968Y019511D01*
X0349Y021579D02*
X035421D01*
X0334Y0213D02*
X034679Y022579D01*
X0334Y01855D02*
Y0213D01*
X034679Y022579D02*
X0349D01*
X041661D01*
X03175Y04145D02*
Y04175D01*
X03235Y044275D02*
Y04535D01*
Y044275D02*
X034825Y0418D01*
X0349D01*
X02925Y038326D02*
Y04175D01*
X02745Y036526D02*
X02925Y038326D01*
X028275Y03465D02*
X02835D01*
X02745Y035475D02*
X028275Y03465D01*
X02745Y035475D02*
Y036526D01*
X0318Y01695D02*
X0334Y01855D01*
X0298Y01695D02*
X0318D01*
X02925Y0175D02*
X0298Y01695D01*
X02925Y0175D02*
Y01995D01*
X03175D02*
Y0234D01*
X0355Y02715D01*
X027956Y031232D02*
X028282D01*
X027359Y030635D02*
X027956Y031232D01*
X027359Y026766D02*
Y030635D01*
X028275Y02585D02*
X02835D01*
X027359Y026766D02*
X028275Y02585D01*
X028282Y031232D02*
X02835Y0313D01*
X0294Y031275D02*
Y034853D01*
X028671Y035582D02*
X0294Y034853D01*
X028418Y035582D02*
X028671D01*
X02835Y0303D02*
X028425D01*
X0294Y031275D01*
X02835Y03565D02*
X028418Y035582D01*
X02835Y0313D02*
Y03465D01*
X02925Y01995D02*
Y02495D01*
X028603Y025597D02*
X02925Y02495D01*
X028603Y025597D02*
Y025672D01*
X028425Y02585D02*
X028603Y025672D01*
X02835Y02585D02*
X028425D01*
X028775Y02995D02*
X0325D01*
X035499Y02965D02*
X0355D01*
X034799Y02895D02*
X035499Y02965D01*
X0325Y02895D02*
X034799D01*
X03539Y03155D02*
X0355D01*
X03499Y03195D02*
X03539Y03155D01*
X0325Y03195D02*
X03499D01*
X041661Y022579D02*
X04385Y02039D01*
X052165Y019232D02*
X055082Y02215D01*
X045008Y019232D02*
X052165D01*
X04385Y02039D02*
X045008Y019232D01*
X0561Y038368D02*
Y039774D01*
X05444Y041434D02*
X0561Y039774D01*
X05444Y041434D02*
Y04508D01*
X055082Y03735D02*
X0561Y038368D01*
X05351Y04415D02*
X05444Y04508D01*
X049Y04415D02*
X05351D01*
X04807Y04508D02*
X049Y04415D01*
X05343Y04508D02*
Y04597D01*
X0521Y0473D02*
X05343Y04597D01*
X04835Y0473D02*
X0521D01*
X04706Y04601D02*
X04835Y0473D01*
X04706Y04508D02*
Y04601D01*
X0293Y0453D02*
X02935Y04535D01*
X0293Y0418D02*
Y0453D01*
X02925Y04175D02*
X0293Y0418D01*
X038661Y04835D02*
X039661D01*
X037661D02*
X038661D01*
X036661D02*
X037661D01*
X035661D02*
X036661D01*
X038661Y04535D02*
X039661D01*
X037661D02*
X038661D01*
X036661D02*
X037661D01*
X035661D02*
X036661D01*
X03135D02*
X03235D01*
X03035D02*
X03135D01*
X02935D02*
X03035D01*
X02835D02*
X02935D01*
X03135Y04835D02*
X03235D01*
X03035D02*
X03135D01*
X02935D02*
X03035D01*
X02835D02*
X02935D01*
D25*
X0355Y03405D02*
D03*
Y03155D02*
D03*
Y02715D02*
D03*
Y02965D02*
D03*
D26*
X04807Y04508D02*
D03*
X04706D02*
D03*
X04606D02*
D03*
X04506D02*
D03*
X05444D02*
D03*
X05343D02*
D03*
X05243D02*
D03*
X05143D02*
D03*
D27*
X04408Y04615D02*
D03*
X04905D02*
D03*
X05045D02*
D03*
X05542D02*
D03*
D28*
X04385Y02039D02*
D03*
X049362D02*
D03*
Y04275D02*
D03*
X04385D02*
D03*
D29*
X038661Y04535D02*
D03*
X037661D02*
D03*
X036661D02*
D03*
X039661D02*
D03*
X0399Y01735D02*
D03*
X0409D02*
D03*
X0419D02*
D03*
X03135Y04835D02*
D03*
X03035D02*
D03*
X02935D02*
D03*
X03235D02*
D03*
X03135Y04535D02*
D03*
X03035D02*
D03*
X02935D02*
D03*
X03235D02*
D03*
X038661Y04835D02*
D03*
X037661D02*
D03*
X036661D02*
D03*
X039661D02*
D03*
D30*
X035661Y04535D02*
D03*
X0389Y01735D02*
D03*
X02835Y04835D02*
D03*
Y04535D02*
D03*
X035661Y04835D02*
D03*
D31*
X055082Y03735D02*
D03*
Y03935D02*
D03*
X055446Y027846D02*
D03*
X055442Y03385D02*
D03*
X055445Y031847D02*
D03*
X055446Y029846D02*
D03*
X055082Y02215D02*
D03*
Y02415D02*
D03*
D32*
X0349Y023579D02*
D03*
Y021579D02*
D03*
Y020579D02*
D03*
Y019579D02*
D03*
Y022579D02*
D03*
Y0428D02*
D03*
Y0408D02*
D03*
Y0398D02*
D03*
Y0388D02*
D03*
Y0418D02*
D03*
X02835Y03565D02*
D03*
Y02685D02*
D03*
Y0313D02*
D03*
X0325Y03295D02*
D03*
Y03095D02*
D03*
Y02995D02*
D03*
Y02895D02*
D03*
Y03195D02*
D03*
D33*
X0349Y018579D02*
D03*
Y0378D02*
D03*
X02835Y03465D02*
D03*
Y02585D02*
D03*
Y0303D02*
D03*
X0325Y02795D02*
D03*
D34*
X03175Y01995D02*
D03*
X02925D02*
D03*
X03175Y04175D02*
D03*
X02925D02*
D03*
D35*
X03075Y01795D02*
D03*
Y03975D02*
D03*
M02*
