G04*
G04 #@! TF.GenerationSoftware,Altium Limited,Altium Designer,19.0.4 (130)*
G04*
G04 Layer_Physical_Order=2*
G04 Layer_Color=16711680*
%FSTAX24Y24*%
%MOIN*%
G70*
G01*
G75*
%ADD24C,0.0394*%
%ADD25C,0.0800*%
%ADD26C,0.0700*%
%ADD27R,0.0800X0.1500*%
%ADD28R,0.1200X0.1200*%
%ADD29O,0.0750X0.0900*%
%ADD30R,0.0750X0.0900*%
%ADD31C,0.1100*%
%ADD32O,0.0900X0.0750*%
%ADD33R,0.0900X0.0750*%
%ADD34R,0.1000X0.1600*%
%ADD35R,0.1600X0.1000*%
G36*
X05665Y0155D02*
X02695D01*
Y05015D01*
X05665D01*
Y0155D01*
D02*
G37*
%LPC*%
G36*
X05445Y049471D02*
X033075D01*
X032848Y049377D01*
X032392Y048922D01*
X03235Y048939D01*
X031986Y048789D01*
X031875Y048519D01*
X031825D01*
X031714Y048789D01*
X03135Y048939D01*
X030986Y048789D01*
X030875Y048519D01*
X030825D01*
X030714Y048789D01*
X03035Y048939D01*
X029986Y048789D01*
X029875Y048519D01*
X029825D01*
X029714Y048789D01*
X02935Y048939D01*
X028986Y048789D01*
X028875Y048519D01*
X028825Y048529D01*
Y0489D01*
X027875D01*
Y048254D01*
X027395Y047774D01*
X027301Y047547D01*
Y040778D01*
X027395Y040551D01*
X028879Y039067D01*
Y036558D01*
X028467Y036147D01*
X028425Y036164D01*
X028275D01*
X027911Y036014D01*
X027761Y03565D01*
X027911Y035286D01*
X028181Y035175D01*
X028171Y035125D01*
X0278D01*
Y0347D01*
X02835D01*
X0289D01*
Y035125D01*
X028529D01*
X028519Y035175D01*
X028789Y035286D01*
X028939Y03565D01*
X028922Y035692D01*
X029427Y036198D01*
X029521Y036425D01*
Y0392D01*
X029427Y039427D01*
X027943Y040911D01*
Y0448D01*
X0283D01*
Y04535D01*
Y0459D01*
X027943D01*
Y047414D01*
X028329Y0478D01*
X028825D01*
Y048171D01*
X028875Y048181D01*
X028986Y047911D01*
X02935Y047761D01*
X029714Y047911D01*
X029825Y048181D01*
X029875D01*
X029986Y047911D01*
X03035Y047761D01*
X030714Y047911D01*
X030825Y048181D01*
X030875D01*
X030986Y047911D01*
X03135Y047761D01*
X031714Y047911D01*
X031825Y048181D01*
X031875D01*
X031986Y047911D01*
X03235Y047761D01*
X032714Y047911D01*
X032864Y048275D01*
Y048425D01*
X032847Y048467D01*
X033208Y048829D01*
X035186D01*
Y0478D01*
X036136D01*
Y048171D01*
X036186Y048181D01*
X036298Y047911D01*
X036661Y047761D01*
X037025Y047911D01*
X037136Y048181D01*
X037186D01*
X037298Y047911D01*
X037661Y047761D01*
X038025Y047911D01*
X038136Y048181D01*
X038186D01*
X038298Y047911D01*
X038661Y047761D01*
X039025Y047911D01*
X039136Y048181D01*
X039186D01*
X039298Y047911D01*
X039661Y047761D01*
X040025Y047911D01*
X040176Y048275D01*
Y048425D01*
X040029Y048779D01*
X04005Y048829D01*
X054317D01*
X055796Y04735D01*
Y047D01*
X05492D01*
Y0453D01*
X055796D01*
Y044577D01*
X053873Y042654D01*
X053779Y042427D01*
Y040332D01*
X053873Y040105D01*
X054452Y039526D01*
X054379Y03935D01*
X054585Y038853D01*
X055082Y038646D01*
X05558Y038853D01*
X055786Y03935D01*
X05558Y039847D01*
X055082Y040054D01*
X054906Y039981D01*
X054421Y040466D01*
Y042294D01*
X056344Y044216D01*
X056438Y044444D01*
Y047483D01*
X056344Y04771D01*
X054677Y049377D01*
X05445Y049471D01*
D02*
G37*
G36*
X036611Y045918D02*
X036298Y045789D01*
X036186Y045519D01*
X036136Y045529D01*
Y0459D01*
X035711D01*
Y04535D01*
Y0448D01*
X036136D01*
Y045171D01*
X036186Y045181D01*
X036298Y044911D01*
X036611Y044782D01*
Y04535D01*
Y045918D01*
D02*
G37*
G36*
X0293D02*
X028986Y045789D01*
X028875Y045519D01*
X028825Y045529D01*
Y0459D01*
X0284D01*
Y04535D01*
Y0448D01*
X028825D01*
Y045171D01*
X028875Y045181D01*
X028986Y044911D01*
X0293Y044782D01*
Y04535D01*
Y045918D01*
D02*
G37*
G36*
X039611D02*
X039298Y045789D01*
X039186Y045519D01*
X039136D01*
X039025Y045789D01*
X038711Y045918D01*
Y04535D01*
Y044782D01*
X039025Y044911D01*
X039136Y045181D01*
X039186D01*
X039298Y044911D01*
X039611Y044782D01*
Y04535D01*
Y045918D01*
D02*
G37*
G36*
X038611D02*
X038298Y045789D01*
X038186Y045519D01*
X038136D01*
X038025Y045789D01*
X037711Y045918D01*
Y04535D01*
Y044782D01*
X038025Y044911D01*
X038136Y045181D01*
X038186D01*
X038298Y044911D01*
X038611Y044782D01*
Y04535D01*
Y045918D01*
D02*
G37*
G36*
X037611D02*
X037298Y045789D01*
X037186Y045519D01*
X037136D01*
X037025Y045789D01*
X036711Y045918D01*
Y04535D01*
Y044782D01*
X037025Y044911D01*
X037136Y045181D01*
X037186D01*
X037298Y044911D01*
X037611Y044782D01*
Y04535D01*
Y045918D01*
D02*
G37*
G36*
X0323D02*
X031986Y045789D01*
X031875Y045519D01*
X031825D01*
X031714Y045789D01*
X0314Y045918D01*
Y04535D01*
Y044782D01*
X031714Y044911D01*
X031825Y045181D01*
X031875D01*
X031986Y044911D01*
X0323Y044782D01*
Y04535D01*
Y045918D01*
D02*
G37*
G36*
X0313D02*
X030986Y045789D01*
X030875Y045519D01*
X030825D01*
X030714Y045789D01*
X0304Y045918D01*
Y04535D01*
Y044782D01*
X030714Y044911D01*
X030825Y045181D01*
X030875D01*
X030986Y044911D01*
X0313Y044782D01*
Y04535D01*
Y045918D01*
D02*
G37*
G36*
X0303D02*
X029986Y045789D01*
X029875Y045519D01*
X029825D01*
X029714Y045789D01*
X0294Y045918D01*
Y04535D01*
Y044782D01*
X029714Y044911D01*
X029825Y045181D01*
X029875D01*
X029986Y044911D01*
X0303Y044782D01*
Y04535D01*
Y045918D01*
D02*
G37*
G36*
X039711D02*
Y0454D01*
X040176D01*
Y045425D01*
X040025Y045789D01*
X039711Y045918D01*
D02*
G37*
G36*
X035611Y0459D02*
X035186D01*
Y0454D01*
X035611D01*
Y0459D01*
D02*
G37*
G36*
X0324Y045918D02*
Y0454D01*
X032864D01*
Y045425D01*
X032714Y045789D01*
X0324Y045918D01*
D02*
G37*
G36*
X04458Y047D02*
X04358D01*
Y0453D01*
X04458D01*
Y047D01*
D02*
G37*
G36*
X05449Y045546D02*
Y04513D01*
X054906D01*
X054784Y045424D01*
X05449Y045546D01*
D02*
G37*
G36*
X04812D02*
Y04513D01*
X048536D01*
X048414Y045424D01*
X04812Y045546D01*
D02*
G37*
G36*
X05115Y047621D02*
X0473D01*
X047073Y047527D01*
X045833Y046287D01*
X045739Y04606D01*
Y045434D01*
X045716Y045424D01*
X045587Y045114D01*
X045533D01*
X045404Y045424D01*
X04506Y045567D01*
X044716Y045424D01*
X044573Y04508D01*
X044582Y045057D01*
X043897Y044371D01*
X0382D01*
X037973Y044277D01*
X035823Y042127D01*
X035729Y0419D01*
Y040008D01*
X035535Y039815D01*
X035478Y039828D01*
X035339Y040164D01*
X035069Y040275D01*
Y040325D01*
X035339Y040436D01*
X035489Y0408D01*
X035339Y041164D01*
X035069Y041275D01*
Y041325D01*
X035339Y041436D01*
X035468Y04175D01*
X0349D01*
X034332D01*
X034461Y041436D01*
X034731Y041325D01*
Y041275D01*
X034461Y041164D01*
X03432Y040823D01*
X033217Y03972D01*
X033123Y039492D01*
Y032999D01*
X033073Y032989D01*
X032939Y033314D01*
X032575Y033464D01*
X032425D01*
X032061Y033314D01*
X032032Y033243D01*
X031873Y033177D01*
X031173Y032477D01*
X031079Y03225D01*
Y029958D01*
X028467Y027347D01*
X028425Y027364D01*
X028275D01*
X027911Y027214D01*
X027761Y02685D01*
X027911Y026486D01*
X028181Y026375D01*
X028171Y026325D01*
X0278D01*
Y0259D01*
X02835D01*
X0289D01*
Y02618D01*
X028946Y026199D01*
X029579Y025567D01*
Y023182D01*
X027781Y021384D01*
X027687Y021157D01*
Y017892D01*
X027781Y017665D01*
X029673Y015773D01*
X0299Y015679D01*
X044647D01*
X044874Y015773D01*
X048791Y01969D01*
X050062D01*
Y02109D01*
X048662D01*
Y020469D01*
X044514Y016321D01*
X039636D01*
X039617Y016367D01*
X040088Y016839D01*
X040264Y016911D01*
X040375Y017181D01*
X040425D01*
X040536Y016911D01*
X0409Y016761D01*
X041264Y016911D01*
X041375Y017181D01*
X041425D01*
X041536Y016911D01*
X0419Y016761D01*
X042264Y016911D01*
X042414Y017275D01*
Y017425D01*
X042264Y017789D01*
X0419Y017939D01*
X041536Y017789D01*
X041425Y017519D01*
X041375D01*
X041264Y017789D01*
X0409Y017939D01*
X040536Y017789D01*
X040425Y017519D01*
X040375D01*
X040264Y017789D01*
X0399Y017939D01*
X039536Y017789D01*
X039425Y017519D01*
X039375Y017529D01*
Y0179D01*
X038425D01*
Y017329D01*
X038404Y017309D01*
X035194D01*
X034445Y018058D01*
X034464Y018104D01*
X03545D01*
Y018349D01*
X035456Y018352D01*
X037964Y02086D01*
X038006Y020832D01*
X03786Y02048D01*
X038095Y019913D01*
X038661Y019678D01*
X039228Y019913D01*
X039463Y02048D01*
X039228Y021047D01*
X038661Y021282D01*
X03831Y021136D01*
X038282Y021177D01*
X04863Y031525D01*
X054875D01*
X054948Y031349D01*
X055445Y031143D01*
X055943Y031349D01*
X056149Y031847D01*
X055943Y032344D01*
X055445Y03255D01*
X054948Y032344D01*
X054875Y032168D01*
X05428D01*
X05426Y032214D01*
X055266Y033219D01*
X055442Y033146D01*
X055939Y033353D01*
X056145Y03385D01*
X055939Y034347D01*
X055442Y034554D01*
X054944Y034347D01*
X054738Y03385D01*
X054811Y033674D01*
X053799Y032662D01*
X048292D01*
X048065Y032568D01*
X039398Y0239D01*
X035356D01*
X035339Y023942D01*
X034975Y024093D01*
X034825D01*
X034461Y023942D01*
X034311Y023579D01*
X034461Y023215D01*
X034731Y023104D01*
Y023054D01*
X034461Y022942D01*
X034332Y022629D01*
X0349D01*
X035468D01*
X035339Y022942D01*
X035069Y023054D01*
Y023104D01*
X035339Y023215D01*
X035356Y023258D01*
X039388D01*
X039407Y023211D01*
X035249Y019054D01*
X035079D01*
X035069Y019104D01*
X035339Y019215D01*
X035489Y019579D01*
X035339Y019942D01*
X035069Y020054D01*
Y020104D01*
X035339Y020215D01*
X035489Y020579D01*
X035339Y020942D01*
X035069Y021054D01*
Y021104D01*
X035339Y021215D01*
X035489Y021579D01*
X035339Y021942D01*
X035069Y022054D01*
Y022104D01*
X035339Y022215D01*
X035468Y022529D01*
X0349D01*
X034332D01*
X034461Y022215D01*
X034731Y022104D01*
Y022054D01*
X034461Y021942D01*
X034311Y021579D01*
X034461Y021215D01*
X034731Y021104D01*
Y021054D01*
X034461Y020942D01*
X034311Y020579D01*
X034461Y020215D01*
X034731Y020104D01*
Y020054D01*
X034461Y019942D01*
X034311Y019579D01*
X034461Y019215D01*
X034731Y019104D01*
X034721Y019054D01*
X03435D01*
Y018218D01*
X034304Y018199D01*
X034259Y018243D01*
Y039155D01*
X034518Y039413D01*
X034731Y039325D01*
Y039275D01*
X034461Y039164D01*
X034311Y0388D01*
X034461Y038436D01*
X034731Y038325D01*
X034721Y038275D01*
X03435D01*
Y037325D01*
X03545D01*
Y038275D01*
X035079D01*
X035069Y038325D01*
X035339Y038436D01*
X035489Y0388D01*
X035472Y038842D01*
X036277Y039648D01*
X036371Y039875D01*
Y041767D01*
X038333Y043729D01*
X04403D01*
X044257Y043823D01*
X045037Y044602D01*
X04506Y044593D01*
X045083Y044602D01*
X047163Y042523D01*
X04739Y042429D01*
X048662D01*
Y04205D01*
X050062D01*
Y04345D01*
X048662D01*
Y043071D01*
X047523D01*
X046048Y044547D01*
X046069Y044596D01*
X046404Y044736D01*
X046533Y045046D01*
X046587D01*
X046716Y044736D01*
X04706Y044593D01*
X047404Y044736D01*
X047536Y045053D01*
X047538Y045058D01*
X047592D01*
X047594Y045053D01*
X047726Y044736D01*
X04802Y044614D01*
Y04508D01*
Y045546D01*
X047726Y045424D01*
X047594Y045107D01*
X047592Y045102D01*
X047538D01*
X047536Y045107D01*
X047404Y045424D01*
X04706Y045567D01*
X046716Y045424D01*
X046587Y045114D01*
X046533D01*
X046404Y045424D01*
X046381Y045434D01*
Y045927D01*
X047433Y046979D01*
X04855D01*
Y0453D01*
X04955D01*
Y046979D01*
X04995D01*
Y0453D01*
X05095D01*
Y046979D01*
X051017D01*
X052109Y045887D01*
Y045434D01*
X052086Y045424D01*
X051957Y045114D01*
X051903D01*
X051774Y045424D01*
X05143Y045567D01*
X051086Y045424D01*
X050943Y04508D01*
X051086Y044736D01*
X05143Y044593D01*
X051774Y044736D01*
X051903Y045046D01*
X051957D01*
X052086Y044736D01*
X05243Y044593D01*
X052774Y044736D01*
X052903Y045046D01*
X052957D01*
X053086Y044736D01*
X05343Y044593D01*
X053774Y044736D01*
X053906Y045053D01*
X053908Y045058D01*
X053962D01*
X053964Y045053D01*
X054096Y044736D01*
X05439Y044614D01*
Y04508D01*
Y045546D01*
X054096Y045424D01*
X053964Y045107D01*
X053962Y045102D01*
X053908D01*
X053906Y045107D01*
X053774Y045424D01*
X05343Y045567D01*
X053086Y045424D01*
X052957Y045114D01*
X052903D01*
X052774Y045424D01*
X052751Y045434D01*
Y04602D01*
X052657Y046247D01*
X051377Y047527D01*
X05115Y047621D01*
D02*
G37*
G36*
X035611Y0453D02*
X035186D01*
Y0448D01*
X035611D01*
Y0453D01*
D02*
G37*
G36*
X040176D02*
X039711D01*
Y044782D01*
X040025Y044911D01*
X040176Y045275D01*
Y0453D01*
D02*
G37*
G36*
X032864D02*
X0324D01*
Y044782D01*
X032714Y044911D01*
X032864Y045275D01*
Y0453D01*
D02*
G37*
G36*
X054906Y04503D02*
X05449D01*
Y044614D01*
X054784Y044736D01*
X054906Y04503D01*
D02*
G37*
G36*
X048536D02*
X04812D01*
Y044614D01*
X048414Y044736D01*
X048536Y04503D01*
D02*
G37*
G36*
X04455Y04345D02*
X0439D01*
Y0428D01*
X04455D01*
Y04345D01*
D02*
G37*
G36*
X0438D02*
X04315D01*
Y0428D01*
X0438D01*
Y04345D01*
D02*
G37*
G36*
X055558Y042399D02*
X055442D01*
X055432Y042395D01*
X055421Y042397D01*
X055307Y042374D01*
X055297Y042368D01*
X055286D01*
X055179Y042323D01*
X055171Y042316D01*
X05516Y042313D01*
X055063Y042249D01*
X055057Y042239D01*
X055047Y042235D01*
X054965Y042153D01*
X054961Y042143D01*
X054951Y042137D01*
X054887Y04204D01*
X054885Y042029D01*
X054877Y042021D01*
X054832Y041914D01*
Y041903D01*
X054826Y041893D01*
X054803Y041779D01*
X054805Y041768D01*
X054801Y041758D01*
Y041642D01*
X054805Y041632D01*
X054803Y041621D01*
X054826Y041507D01*
X054832Y041497D01*
Y041486D01*
X054877Y041379D01*
X054885Y041371D01*
X054887Y04136D01*
X054951Y041263D01*
X054961Y041257D01*
X054965Y041247D01*
X055047Y041165D01*
X055057Y041161D01*
X055063Y041151D01*
X05516Y041087D01*
X055171Y041084D01*
X055179Y041077D01*
X055286Y041032D01*
X055297D01*
X055307Y041026D01*
X055421Y041003D01*
X055432Y041005D01*
X055442Y041001D01*
X055558D01*
X055568Y041005D01*
X055579Y041003D01*
X055693Y041026D01*
X055703Y041032D01*
X055714D01*
X055821Y041077D01*
X055829Y041084D01*
X05584Y041087D01*
X055937Y041151D01*
X055943Y041161D01*
X055953Y041165D01*
X056035Y041247D01*
X056039Y041257D01*
X056049Y041263D01*
X056113Y04136D01*
X056115Y041371D01*
X056123Y041379D01*
X056168Y041486D01*
Y041497D01*
X056174Y041507D01*
X056197Y041621D01*
X056195Y041632D01*
X056199Y041642D01*
Y041758D01*
X056195Y041768D01*
X056197Y041779D01*
X056174Y041893D01*
X056168Y041903D01*
Y041914D01*
X056123Y042021D01*
X056115Y042029D01*
X056113Y04204D01*
X056049Y042137D01*
X056039Y042143D01*
X056035Y042153D01*
X055953Y042235D01*
X055943Y042239D01*
X055937Y042249D01*
X05584Y042313D01*
X055829Y042316D01*
X055821Y042323D01*
X055714Y042368D01*
X055703D01*
X055693Y042374D01*
X055579Y042397D01*
X055568Y042395D01*
X055558Y042399D01*
D02*
G37*
G36*
X04455Y0427D02*
X0439D01*
Y04205D01*
X04455D01*
Y0427D01*
D02*
G37*
G36*
X0438D02*
X04315D01*
Y04205D01*
X0438D01*
Y0427D01*
D02*
G37*
G36*
X051791Y043472D02*
X051225Y043237D01*
X05099Y04267D01*
X051225Y042103D01*
X051791Y041868D01*
X052358Y042103D01*
X052593Y04267D01*
X052358Y043237D01*
X051791Y043472D01*
D02*
G37*
G36*
X038661D02*
X038095Y043237D01*
X03786Y04267D01*
X038095Y042103D01*
X038661Y041868D01*
X039228Y042103D01*
X039463Y04267D01*
X039228Y043237D01*
X038661Y043472D01*
D02*
G37*
G36*
X034975Y043314D02*
X034825D01*
X034461Y043164D01*
X034311Y0428D01*
X034461Y042436D01*
X034731Y042325D01*
Y042275D01*
X034461Y042164D01*
X034332Y04185D01*
X0349D01*
X035468D01*
X035339Y042164D01*
X035069Y042275D01*
Y042325D01*
X035339Y042436D01*
X035489Y0428D01*
X035339Y043164D01*
X034975Y043314D01*
D02*
G37*
G36*
X02985Y04265D02*
X0293D01*
Y0418D01*
X02985D01*
Y04265D01*
D02*
G37*
G36*
X0292D02*
X02865D01*
Y0418D01*
X0292D01*
Y04265D01*
D02*
G37*
G36*
X03235D02*
X03115D01*
Y04085D01*
X03235D01*
Y04265D01*
D02*
G37*
G36*
X02985Y0417D02*
X0293D01*
Y04085D01*
X02985D01*
Y0417D01*
D02*
G37*
G36*
X0292D02*
X02865D01*
Y04085D01*
X0292D01*
Y0417D01*
D02*
G37*
G36*
X028008Y039246D02*
X027892D01*
X027882Y039242D01*
X027871Y039244D01*
X027757Y039222D01*
X027747Y039215D01*
X027736D01*
X027629Y039171D01*
X027621Y039163D01*
X02761Y039161D01*
X027513Y039096D01*
X027507Y039087D01*
X027497Y039083D01*
X027415Y039001D01*
X027411Y03899D01*
X027401Y038984D01*
X027337Y038888D01*
X027334Y038877D01*
X027327Y038869D01*
X027282Y038761D01*
Y03875D01*
X027276Y038741D01*
X027253Y038627D01*
X027255Y038616D01*
X027251Y038606D01*
Y038489D01*
X027255Y038479D01*
X027253Y038468D01*
X027276Y038354D01*
X027282Y038345D01*
Y038334D01*
X027327Y038226D01*
X027334Y038219D01*
X027337Y038208D01*
X027401Y038111D01*
X027411Y038105D01*
X027415Y038095D01*
X027497Y038012D01*
X027507Y038008D01*
X027513Y037999D01*
X02761Y037934D01*
X027621Y037932D01*
X027629Y037924D01*
X027736Y03788D01*
X027747D01*
X027757Y037874D01*
X027871Y037851D01*
X027882Y037853D01*
X027892Y037849D01*
X028008D01*
X028018Y037853D01*
X028029Y037851D01*
X028143Y037874D01*
X028153Y03788D01*
X028164D01*
X028271Y037924D01*
X028279Y037932D01*
X02829Y037934D01*
X028387Y037999D01*
X028393Y038008D01*
X028403Y038012D01*
X028485Y038095D01*
X028489Y038105D01*
X028499Y038111D01*
X028563Y038208D01*
X028565Y038219D01*
X028573Y038226D01*
X028618Y038334D01*
Y038345D01*
X028624Y038354D01*
X028647Y038468D01*
X028645Y038479D01*
X028649Y038489D01*
Y038606D01*
X028645Y038616D01*
X028647Y038627D01*
X028624Y038741D01*
X028618Y03875D01*
Y038761D01*
X028573Y038869D01*
X028565Y038877D01*
X028563Y038888D01*
X028499Y038984D01*
X028489Y03899D01*
X028485Y039001D01*
X028403Y039083D01*
X028393Y039087D01*
X028387Y039096D01*
X02829Y039161D01*
X028279Y039163D01*
X028271Y039171D01*
X028164Y039215D01*
X028153D01*
X028143Y039222D01*
X028029Y039244D01*
X028018Y039242D01*
X028008Y039246D01*
D02*
G37*
G36*
X03165Y04035D02*
X02985D01*
Y03915D01*
X03165D01*
Y04035D01*
D02*
G37*
G36*
X055132Y038033D02*
Y0374D01*
X055765D01*
X05558Y037847D01*
X055132Y038033D01*
D02*
G37*
G36*
X055032Y038033D02*
X054585Y037847D01*
X0544Y0374D01*
X055032D01*
Y038033D01*
D02*
G37*
G36*
Y0373D02*
X0544D01*
X054585Y036853D01*
X055032Y036667D01*
Y0373D01*
D02*
G37*
G36*
X055765D02*
X055132D01*
Y036667D01*
X05558Y036853D01*
X055765Y0373D01*
D02*
G37*
G36*
X0289Y0346D02*
X0284D01*
Y034175D01*
X0289D01*
Y0346D01*
D02*
G37*
G36*
X0283D02*
X0278D01*
Y034175D01*
X0283D01*
Y0346D01*
D02*
G37*
G36*
X0355Y034591D02*
X035117Y034433D01*
X034959Y03405D01*
X035117Y033667D01*
X0355Y033509D01*
X035883Y033667D01*
X036041Y03405D01*
X035883Y034433D01*
X0355Y034591D01*
D02*
G37*
G36*
X028425Y031814D02*
X0284D01*
Y03135D01*
X028918D01*
X028789Y031664D01*
X028425Y031814D01*
D02*
G37*
G36*
X0283D02*
X028275D01*
X027911Y031664D01*
X027782Y03135D01*
X0283D01*
Y031814D01*
D02*
G37*
G36*
X0355Y032091D02*
X035117Y031933D01*
X034959Y03155D01*
X035117Y031167D01*
X0355Y031009D01*
X035883Y031167D01*
X036041Y03155D01*
X035883Y031933D01*
X0355Y032091D01*
D02*
G37*
G36*
X028918Y03125D02*
X02835D01*
X027782D01*
X027911Y030936D01*
X028181Y030825D01*
X028171Y030775D01*
X0278D01*
Y029825D01*
X0289D01*
Y030775D01*
X028529D01*
X028519Y030825D01*
X028789Y030936D01*
X028918Y03125D01*
D02*
G37*
G36*
X055446Y03055D02*
X054948Y030344D01*
X054742Y029846D01*
X054948Y029349D01*
X055446Y029143D01*
X055943Y029349D01*
X056149Y029846D01*
X055943Y030344D01*
X055446Y03055D01*
D02*
G37*
G36*
X0355Y030191D02*
X035117Y030033D01*
X034959Y02965D01*
X035117Y029267D01*
X0355Y029109D01*
X035883Y029267D01*
X036041Y02965D01*
X035883Y030033D01*
X0355Y030191D01*
D02*
G37*
G36*
X055446Y02855D02*
X054948Y028344D01*
X054742Y027846D01*
X054948Y027349D01*
X055446Y027143D01*
X055943Y027349D01*
X056149Y027846D01*
X055943Y028344D01*
X055446Y02855D01*
D02*
G37*
G36*
X0355Y027691D02*
X035117Y027533D01*
X034959Y02715D01*
X035117Y026767D01*
X0355Y026609D01*
X035883Y026767D01*
X036041Y02715D01*
X035883Y027533D01*
X0355Y027691D01*
D02*
G37*
G36*
X0289Y0258D02*
X0284D01*
Y025375D01*
X0289D01*
Y0258D01*
D02*
G37*
G36*
X0283D02*
X0278D01*
Y025375D01*
X0283D01*
Y0258D01*
D02*
G37*
G36*
X028008Y023498D02*
X027892D01*
X027882Y023494D01*
X027871Y023496D01*
X027757Y023474D01*
X027747Y023467D01*
X027736D01*
X027629Y023423D01*
X027621Y023415D01*
X02761Y023413D01*
X027513Y023348D01*
X027507Y023339D01*
X027497Y023335D01*
X027415Y023253D01*
X027411Y023242D01*
X027401Y023236D01*
X027337Y023139D01*
X027334Y023129D01*
X027327Y023121D01*
X027282Y023013D01*
Y023002D01*
X027276Y022993D01*
X027253Y022879D01*
X027255Y022868D01*
X027251Y022858D01*
Y022741D01*
X027255Y022731D01*
X027253Y02272D01*
X027276Y022606D01*
X027282Y022597D01*
Y022586D01*
X027327Y022478D01*
X027334Y022471D01*
X027337Y02246D01*
X027401Y022363D01*
X027411Y022357D01*
X027415Y022347D01*
X027497Y022264D01*
X027507Y02226D01*
X027513Y022251D01*
X02761Y022186D01*
X027621Y022184D01*
X027629Y022176D01*
X027736Y022132D01*
X027747D01*
X027757Y022126D01*
X027871Y022103D01*
X027882Y022105D01*
X027892Y022101D01*
X028008D01*
X028018Y022105D01*
X028029Y022103D01*
X028143Y022126D01*
X028153Y022132D01*
X028164D01*
X028271Y022176D01*
X028279Y022184D01*
X02829Y022186D01*
X028387Y022251D01*
X028393Y02226D01*
X028403Y022264D01*
X028485Y022347D01*
X028489Y022357D01*
X028499Y022363D01*
X028563Y02246D01*
X028565Y022471D01*
X028573Y022478D01*
X028618Y022586D01*
Y022597D01*
X028624Y022606D01*
X028647Y02272D01*
X028645Y022731D01*
X028649Y022741D01*
Y022858D01*
X028645Y022868D01*
X028647Y022879D01*
X028624Y022993D01*
X028618Y023002D01*
Y023013D01*
X028573Y023121D01*
X028565Y023129D01*
X028563Y023139D01*
X028499Y023236D01*
X028489Y023242D01*
X028485Y023253D01*
X028403Y023335D01*
X028393Y023339D01*
X028387Y023348D01*
X02829Y023413D01*
X028279Y023415D01*
X028271Y023423D01*
X028164Y023467D01*
X028153D01*
X028143Y023474D01*
X028029Y023496D01*
X028018Y023494D01*
X028008Y023498D01*
D02*
G37*
G36*
X055082Y024854D02*
X054585Y024647D01*
X054379Y02415D01*
X054585Y023653D01*
X055082Y023446D01*
X05558Y023653D01*
X055786Y02415D01*
X05558Y024647D01*
X055082Y024854D01*
D02*
G37*
G36*
X055132Y022833D02*
Y0222D01*
X055765D01*
X05558Y022647D01*
X055132Y022833D01*
D02*
G37*
G36*
X055032Y022833D02*
X054585Y022647D01*
X0544Y0222D01*
X055032D01*
Y022833D01*
D02*
G37*
G36*
Y0221D02*
X0544D01*
X054585Y021653D01*
X055032Y021467D01*
Y0221D01*
D02*
G37*
G36*
X055765D02*
X055132D01*
Y021467D01*
X05558Y021653D01*
X055765Y0221D01*
D02*
G37*
G36*
X04455Y02109D02*
X0439D01*
Y02044D01*
X04455D01*
Y02109D01*
D02*
G37*
G36*
X0438D02*
X04315D01*
Y02044D01*
X0438D01*
Y02109D01*
D02*
G37*
G36*
X055558Y020349D02*
X055442D01*
X055432Y020345D01*
X055421Y020347D01*
X055307Y020324D01*
X055297Y020318D01*
X055286D01*
X055179Y020273D01*
X055171Y020266D01*
X05516Y020263D01*
X055063Y020199D01*
X055057Y020189D01*
X055047Y020185D01*
X054965Y020103D01*
X054961Y020093D01*
X054951Y020087D01*
X054887Y01999D01*
X054885Y019979D01*
X054877Y019971D01*
X054832Y019864D01*
Y019853D01*
X054826Y019843D01*
X054803Y019729D01*
X054805Y019718D01*
X054801Y019708D01*
Y019592D01*
X054805Y019582D01*
X054803Y019571D01*
X054826Y019457D01*
X054832Y019447D01*
Y019436D01*
X054877Y019329D01*
X054885Y019321D01*
X054887Y01931D01*
X054951Y019213D01*
X054961Y019207D01*
X054965Y019197D01*
X055047Y019115D01*
X055057Y019111D01*
X055063Y019101D01*
X05516Y019037D01*
X055171Y019035D01*
X055179Y019027D01*
X055286Y018982D01*
X055297D01*
X055307Y018976D01*
X055421Y018953D01*
X055432Y018955D01*
X055442Y018951D01*
X055558D01*
X055568Y018955D01*
X055579Y018953D01*
X055693Y018976D01*
X055703Y018982D01*
X055714D01*
X055821Y019027D01*
X055829Y019035D01*
X05584Y019037D01*
X055937Y019101D01*
X055943Y019111D01*
X055953Y019115D01*
X056035Y019197D01*
X056039Y019207D01*
X056049Y019213D01*
X056113Y01931D01*
X056115Y019321D01*
X056123Y019329D01*
X056168Y019436D01*
Y019447D01*
X056174Y019457D01*
X056197Y019571D01*
X056195Y019582D01*
X056199Y019592D01*
Y019708D01*
X056195Y019718D01*
X056197Y019729D01*
X056174Y019843D01*
X056168Y019853D01*
Y019864D01*
X056123Y019971D01*
X056115Y019979D01*
X056113Y01999D01*
X056049Y020087D01*
X056039Y020093D01*
X056035Y020103D01*
X055953Y020185D01*
X055943Y020189D01*
X055937Y020199D01*
X05584Y020263D01*
X055829Y020266D01*
X055821Y020273D01*
X055714Y020318D01*
X055703D01*
X055693Y020324D01*
X055579Y020347D01*
X055568Y020345D01*
X055558Y020349D01*
D02*
G37*
G36*
X04455Y02034D02*
X0439D01*
Y01969D01*
X04455D01*
Y02034D01*
D02*
G37*
G36*
X0438D02*
X04315D01*
Y01969D01*
X0438D01*
Y02034D01*
D02*
G37*
G36*
X051791Y021282D02*
X051225Y021047D01*
X05099Y02048D01*
X051225Y019913D01*
X051791Y019678D01*
X052358Y019913D01*
X052593Y02048D01*
X052358Y021047D01*
X051791Y021282D01*
D02*
G37*
%LPD*%
G36*
X032331Y032475D02*
Y032425D01*
X032061Y032314D01*
X031911Y03195D01*
X032061Y031586D01*
X032331Y031475D01*
Y031425D01*
X032061Y031314D01*
X031911Y03095D01*
X032061Y030586D01*
X032331Y030475D01*
Y030425D01*
X032061Y030314D01*
X031911Y02995D01*
X032061Y029586D01*
X032331Y029475D01*
Y029425D01*
X032061Y029314D01*
X031911Y02895D01*
X032061Y028586D01*
X032331Y028475D01*
X032321Y028425D01*
X03195D01*
Y027475D01*
X03305D01*
Y028425D01*
X032679D01*
X032669Y028475D01*
X032939Y028586D01*
X033073Y028911D01*
X033123Y028901D01*
Y017906D01*
X033217Y017679D01*
X034528Y016367D01*
X034509Y016321D01*
X030033D01*
X028329Y018025D01*
Y021024D01*
X030127Y022822D01*
X030221Y023049D01*
Y0257D01*
X030127Y025927D01*
X029045Y027009D01*
X029044Y027015D01*
X031627Y029598D01*
X031721Y029825D01*
Y032117D01*
X032153Y032549D01*
X032331Y032475D01*
D02*
G37*
%LPC*%
G36*
X02985Y02085D02*
X0293D01*
Y02D01*
X02985D01*
Y02085D01*
D02*
G37*
G36*
X0292D02*
X02865D01*
Y02D01*
X0292D01*
Y02085D01*
D02*
G37*
G36*
X03235D02*
X03115D01*
Y01905D01*
X03235D01*
Y02085D01*
D02*
G37*
G36*
X02985Y0199D02*
X0293D01*
Y01905D01*
X02985D01*
Y0199D01*
D02*
G37*
G36*
X0292D02*
X02865D01*
Y01905D01*
X0292D01*
Y0199D01*
D02*
G37*
G36*
X03165Y01855D02*
X02985D01*
Y01735D01*
X03165D01*
Y01855D01*
D02*
G37*
%LPD*%
D24*
X04403Y04405D02*
X04506Y04508D01*
X0382Y04405D02*
X04403D01*
X03605Y0419D02*
X0382Y04405D01*
X03605Y039875D02*
Y0419D01*
X034975Y0388D02*
X03605Y039875D01*
X0349Y0388D02*
X034975D01*
X033444Y017906D02*
Y039492D01*
X034752Y0408D01*
X0349D01*
X0299Y023049D02*
Y0257D01*
X028818Y026782D02*
X0299Y0257D01*
X028418Y026782D02*
X028818D01*
X049037Y02039D02*
X049362D01*
X0314Y03225D02*
X0321Y03295D01*
X0314Y029825D02*
Y03225D01*
X028425Y02685D02*
X0314Y029825D01*
X03445Y0398D02*
X0349D01*
X033938Y039288D02*
X03445Y0398D01*
X033938Y01811D02*
Y039288D01*
X033444Y017906D02*
X034856Y016494D01*
X03235Y04835D02*
Y048425D01*
X033075Y04915D01*
X05445D01*
X056117Y047483D01*
Y044444D02*
Y047483D01*
X0541Y042427D02*
X056117Y044444D01*
X0541Y040332D02*
Y042427D01*
Y040332D02*
X055082Y03935D01*
X04506Y04508D02*
X04739Y04275D01*
X049362D01*
X033938Y01811D02*
X035061Y016987D01*
X038537D02*
X0389Y01735D01*
X035061Y016987D02*
X038537D01*
X053932Y03234D02*
X055442Y03385D01*
X048292Y03234D02*
X053932D01*
X039531Y023579D02*
X048292Y03234D01*
X0349Y023579D02*
X039531D01*
X035229Y018579D02*
X048497Y031847D01*
X0349Y018579D02*
X035229D01*
X048497Y031847D02*
X055445D01*
X039289Y016494D02*
X0399Y017105D01*
X034856Y016494D02*
X039289D01*
X0399Y017105D02*
Y01735D01*
X044647Y016D02*
X049037Y02039D01*
X0299Y016D02*
X044647D01*
X028008Y017892D02*
X0299Y016D01*
X028008Y017892D02*
Y021157D01*
X0299Y023049D01*
X02835Y02685D02*
X028418Y026782D01*
X0321Y03295D02*
X0325D01*
X02835Y02685D02*
X028425D01*
X02835Y048275D02*
Y04835D01*
X027622Y047547D02*
X02835Y048275D01*
X027622Y040778D02*
Y047547D01*
Y040778D02*
X0292Y0392D01*
Y036425D02*
Y0392D01*
X028425Y03565D02*
X0292Y036425D01*
X02835Y03565D02*
X028425D01*
X0473Y0473D02*
X05115D01*
X04606Y04606D02*
X0473Y0473D01*
X04606Y04508D02*
Y04606D01*
X05243Y04508D02*
Y04602D01*
X05115Y0473D02*
X05243Y04602D01*
D25*
X0355Y03405D02*
D03*
Y03155D02*
D03*
Y02715D02*
D03*
Y02965D02*
D03*
D26*
X04807Y04508D02*
D03*
X04706D02*
D03*
X04606D02*
D03*
X04506D02*
D03*
X05444D02*
D03*
X05343D02*
D03*
X05243D02*
D03*
X05143D02*
D03*
D27*
X04408Y04615D02*
D03*
X04905D02*
D03*
X05045D02*
D03*
X05542D02*
D03*
D28*
X04385Y02039D02*
D03*
X049362D02*
D03*
Y04275D02*
D03*
X04385D02*
D03*
D29*
X038661Y04535D02*
D03*
X037661D02*
D03*
X036661D02*
D03*
X039661D02*
D03*
X0399Y01735D02*
D03*
X0409D02*
D03*
X0419D02*
D03*
X03135Y04835D02*
D03*
X03035D02*
D03*
X02935D02*
D03*
X03235D02*
D03*
X03135Y04535D02*
D03*
X03035D02*
D03*
X02935D02*
D03*
X03235D02*
D03*
X038661Y04835D02*
D03*
X037661D02*
D03*
X036661D02*
D03*
X039661D02*
D03*
D30*
X035661Y04535D02*
D03*
X0389Y01735D02*
D03*
X02835Y04835D02*
D03*
Y04535D02*
D03*
X035661Y04835D02*
D03*
D31*
X055082Y03735D02*
D03*
Y03935D02*
D03*
X055446Y027846D02*
D03*
X055442Y03385D02*
D03*
X055445Y031847D02*
D03*
X055446Y029846D02*
D03*
X055082Y02215D02*
D03*
Y02415D02*
D03*
D32*
X0349Y023579D02*
D03*
Y021579D02*
D03*
Y020579D02*
D03*
Y019579D02*
D03*
Y022579D02*
D03*
Y0428D02*
D03*
Y0408D02*
D03*
Y0398D02*
D03*
Y0388D02*
D03*
Y0418D02*
D03*
X02835Y03565D02*
D03*
Y02685D02*
D03*
Y0313D02*
D03*
X0325Y03295D02*
D03*
Y03095D02*
D03*
Y02995D02*
D03*
Y02895D02*
D03*
Y03195D02*
D03*
D33*
X0349Y018579D02*
D03*
Y0378D02*
D03*
X02835Y03465D02*
D03*
Y02585D02*
D03*
Y0303D02*
D03*
X0325Y02795D02*
D03*
D34*
X03175Y01995D02*
D03*
X02925D02*
D03*
X03175Y04175D02*
D03*
X02925D02*
D03*
D35*
X03075Y01795D02*
D03*
Y03975D02*
D03*
M02*
