G04*
G04 #@! TF.GenerationSoftware,Altium Limited,Altium Designer,19.0.4 (130)*
G04*
G04 Layer_Color=12632256*
%FSTAX24Y24*%
%MOIN*%
G70*
G01*
G75*
%ADD22O,0.0750X0.0900*%
%ADD23R,0.0750X0.0900*%
%ADD24R,0.0900X0.0750*%
%ADD25O,0.0900X0.0750*%
%ADD26C,0.1100*%
%ADD27R,0.1200X0.1200*%
%ADD28R,0.1000X0.1600*%
%ADD29R,0.1600X0.1000*%
D22*
X04975Y0395D02*
D03*
X04875D02*
D03*
X04775D02*
D03*
X05075D02*
D03*
X04255Y0426D02*
D03*
X04155D02*
D03*
X04055D02*
D03*
X04355D02*
D03*
X04255Y0395D02*
D03*
X04155D02*
D03*
X04055D02*
D03*
X04355D02*
D03*
X04975Y0426D02*
D03*
X04875D02*
D03*
X04775D02*
D03*
X05075D02*
D03*
D23*
X04675Y0395D02*
D03*
X03955Y0426D02*
D03*
Y0395D02*
D03*
X04675Y0426D02*
D03*
D24*
X0501Y02045D02*
D03*
X0349Y018579D02*
D03*
Y0378D02*
D03*
X02835Y0356D02*
D03*
Y02465D02*
D03*
Y0303D02*
D03*
X0325Y02795D02*
D03*
D25*
X0501Y02145D02*
D03*
Y02245D02*
D03*
Y02345D02*
D03*
X0349Y023579D02*
D03*
Y021579D02*
D03*
Y020579D02*
D03*
Y019579D02*
D03*
Y022579D02*
D03*
Y0428D02*
D03*
Y0408D02*
D03*
Y0398D02*
D03*
Y0388D02*
D03*
Y0418D02*
D03*
X02835Y0366D02*
D03*
Y02565D02*
D03*
Y0313D02*
D03*
X0325Y03295D02*
D03*
Y03095D02*
D03*
Y02995D02*
D03*
Y02895D02*
D03*
Y03195D02*
D03*
D26*
X055082Y03735D02*
D03*
Y03935D02*
D03*
X055446Y027846D02*
D03*
X055442Y03385D02*
D03*
X055445Y031847D02*
D03*
X055446Y029846D02*
D03*
X055082Y02215D02*
D03*
Y02415D02*
D03*
D27*
X03546Y03465D02*
D03*
Y027351D02*
D03*
X0514D02*
D03*
Y03465D02*
D03*
D28*
X03175Y01995D02*
D03*
X02925D02*
D03*
X03175Y04175D02*
D03*
X02925D02*
D03*
D29*
X03075Y01795D02*
D03*
Y03975D02*
D03*
M02*
