G04*
G04 #@! TF.GenerationSoftware,Altium Limited,Altium Designer,19.0.4 (130)*
G04*
G04 Layer_Color=16711935*
%FSTAX24Y24*%
%MOIN*%
G70*
G01*
G75*
%ADD13C,0.0880*%
%ADD14C,0.0780*%
%ADD15R,0.0880X0.1580*%
%ADD16R,0.1280X0.1280*%
%ADD17O,0.0830X0.0980*%
%ADD18R,0.0830X0.0980*%
%ADD19C,0.1180*%
%ADD20O,0.0980X0.0830*%
%ADD21R,0.0980X0.0830*%
%ADD22R,0.1080X0.1680*%
%ADD23R,0.1680X0.1080*%
D13*
X0355Y03405D02*
D03*
Y03155D02*
D03*
Y02715D02*
D03*
Y02965D02*
D03*
D14*
X04807Y04508D02*
D03*
X04706D02*
D03*
X04606D02*
D03*
X04506D02*
D03*
X05444D02*
D03*
X05343D02*
D03*
X05243D02*
D03*
X05143D02*
D03*
D15*
X04408Y04615D02*
D03*
X04905D02*
D03*
X05045D02*
D03*
X05542D02*
D03*
D16*
X04385Y02039D02*
D03*
X049362D02*
D03*
Y04275D02*
D03*
X04385D02*
D03*
D17*
X038661Y04535D02*
D03*
X037661D02*
D03*
X036661D02*
D03*
X039661D02*
D03*
X0399Y01735D02*
D03*
X0409D02*
D03*
X0419D02*
D03*
X03135Y04835D02*
D03*
X03035D02*
D03*
X02935D02*
D03*
X03235D02*
D03*
X03135Y04535D02*
D03*
X03035D02*
D03*
X02935D02*
D03*
X03235D02*
D03*
X038661Y04835D02*
D03*
X037661D02*
D03*
X036661D02*
D03*
X039661D02*
D03*
D18*
X035661Y04535D02*
D03*
X0389Y01735D02*
D03*
X02835Y04835D02*
D03*
Y04535D02*
D03*
X035661Y04835D02*
D03*
D19*
X055082Y03735D02*
D03*
Y03935D02*
D03*
X055446Y027846D02*
D03*
X055442Y03385D02*
D03*
X055445Y031847D02*
D03*
X055446Y029846D02*
D03*
X055082Y02215D02*
D03*
Y02415D02*
D03*
D20*
X0349Y023579D02*
D03*
Y021579D02*
D03*
Y020579D02*
D03*
Y019579D02*
D03*
Y022579D02*
D03*
Y0428D02*
D03*
Y0408D02*
D03*
Y0398D02*
D03*
Y0388D02*
D03*
Y0418D02*
D03*
X02835Y03565D02*
D03*
Y02685D02*
D03*
Y0313D02*
D03*
X0325Y03295D02*
D03*
Y03095D02*
D03*
Y02995D02*
D03*
Y02895D02*
D03*
Y03195D02*
D03*
D21*
X0349Y018579D02*
D03*
Y0378D02*
D03*
X02835Y03465D02*
D03*
Y02585D02*
D03*
Y0303D02*
D03*
X0325Y02795D02*
D03*
D22*
X03175Y01995D02*
D03*
X02925D02*
D03*
X03175Y04175D02*
D03*
X02925D02*
D03*
D23*
X03075Y01795D02*
D03*
Y03975D02*
D03*
M02*
