M48
;Layer_Color=9474304
;FILE_FORMAT=2:4
INCH,LZ
;TYPE=PLATED
T1F00S00C0.0310
T3F00S00C0.0340
T4F00S00C0.0350
T5F00S00C0.0360
T6F00S00C0.0500
%
T01
X04506Y04508
X04606
X04706
X04807
X05143
X05243
X05343
X05444
T03
X0349Y018579
Y019579
Y020579
Y021579
Y022579
Y023579
X0325Y02795
Y02895
Y02995
Y03095
X0389Y01735
X0399
X0409
X0419
X02835Y02585
Y02685
Y0303
Y0313
Y03465
Y03565
Y04535
X02935
X03035
X03135
X03235
X035661
X036661
X037661
X038661
X039661
X0349Y0428
Y0418
Y0408
Y0398
Y0388
Y0378
X0325Y03295
Y03195
X03235Y04835
X03135
X035661
X036661
X037661
X038661
X039661
X03035
X02935
X02835
T04
X0355Y02715
Y02965
Y03155
Y03405
T05
X049362Y02039
X04385
Y04275
X049362
T06
X055082Y02215
Y02415
X055446Y027846
Y029846
X055445Y031847
X055442Y03385
X055082Y03735
Y03935
M30
