G04*
G04 #@! TF.GenerationSoftware,Altium Limited,Altium Designer,19.0.4 (130)*
G04*
G04 Layer_Color=128*
%FSTAX24Y24*%
%MOIN*%
G70*
G01*
G75*
%ADD36C,0.0020*%
D36*
X035325Y03405D02*
X035675D01*
X0355Y033875D02*
Y034225D01*
X035325Y03155D02*
X035675D01*
X0355Y031375D02*
Y031725D01*
X035325Y02715D02*
X035675D01*
X0355Y026975D02*
Y027325D01*
X035325Y02965D02*
X035675D01*
X0355Y029475D02*
Y029825D01*
X047915Y04508D02*
X048225D01*
X04807Y044925D02*
Y045235D01*
X046905Y04508D02*
X047215D01*
X04706Y044925D02*
Y045235D01*
X045905Y04508D02*
X046215D01*
X04606Y044925D02*
Y045235D01*
X044905Y04508D02*
X045215D01*
X04506Y044925D02*
Y045235D01*
X043925Y04615D02*
X044235D01*
X04408Y045995D02*
Y046305D01*
X048895Y04615D02*
X049205D01*
X04905Y045995D02*
Y046305D01*
X054285Y04508D02*
X054595D01*
X05444Y044925D02*
Y045235D01*
X053275Y04508D02*
X053585D01*
X05343Y044925D02*
Y045235D01*
X052275Y04508D02*
X052585D01*
X05243Y044925D02*
Y045235D01*
X051275Y04508D02*
X051585D01*
X05143Y044925D02*
Y045235D01*
X050295Y04615D02*
X050605D01*
X05045Y045995D02*
Y046305D01*
X055265Y04615D02*
X055575D01*
X05542Y045995D02*
Y046305D01*
X04367Y02039D02*
X04403D01*
X04385Y02021D02*
Y02057D01*
X049182Y02039D02*
X049542D01*
X049362Y02021D02*
Y02057D01*
X049182Y04275D02*
X049542D01*
X049362Y04257D02*
Y04293D01*
X04367Y04275D02*
X04403D01*
X04385Y04257D02*
Y04293D01*
X038491Y04535D02*
X038831D01*
X038661Y04518D02*
Y04552D01*
X037491Y04535D02*
X037831D01*
X037661Y04518D02*
Y04552D01*
X036491Y04535D02*
X036831D01*
X036661Y04518D02*
Y04552D01*
X035491Y04535D02*
X035831D01*
X035661Y04518D02*
Y04552D01*
X039491Y04535D02*
X039831D01*
X039661Y04518D02*
Y04552D01*
X03873Y01735D02*
X03907D01*
X0389Y01718D02*
Y01752D01*
X03973Y01735D02*
X04007D01*
X0399Y01718D02*
Y01752D01*
X04073Y01735D02*
X04107D01*
X0409Y01718D02*
Y01752D01*
X04173Y01735D02*
X04207D01*
X0419Y01718D02*
Y01752D01*
X054832Y03735D02*
X055332D01*
X055082Y0371D02*
Y0376D01*
X054832Y03935D02*
X055332D01*
X055082Y0391D02*
Y0396D01*
X055196Y027846D02*
X055696D01*
X055446Y027596D02*
Y028096D01*
X055192Y03385D02*
X055692D01*
X055442Y0336D02*
Y0341D01*
X055195Y031847D02*
X055695D01*
X055445Y031597D02*
Y032097D01*
X055196Y029846D02*
X055696D01*
X055446Y029596D02*
Y030096D01*
X03473Y023579D02*
X03507D01*
X0349Y023409D02*
Y023749D01*
X03473Y021579D02*
X03507D01*
X0349Y021409D02*
Y021749D01*
X03473Y020579D02*
X03507D01*
X0349Y020409D02*
Y020749D01*
X03473Y019579D02*
X03507D01*
X0349Y019409D02*
Y019749D01*
X03473Y018579D02*
X03507D01*
X0349Y018409D02*
Y018749D01*
X03473Y022579D02*
X03507D01*
X0349Y022409D02*
Y022749D01*
X03473Y0428D02*
X03507D01*
X0349Y04263D02*
Y04297D01*
X03473Y0408D02*
X03507D01*
X0349Y04063D02*
Y04097D01*
X03473Y0398D02*
X03507D01*
X0349Y03963D02*
Y03997D01*
X03473Y0388D02*
X03507D01*
X0349Y03863D02*
Y03897D01*
X03473Y0378D02*
X03507D01*
X0349Y03763D02*
Y03797D01*
X03473Y0418D02*
X03507D01*
X0349Y04163D02*
Y04197D01*
X02818Y03465D02*
X02852D01*
X02835Y03448D02*
Y03482D01*
X02818Y03565D02*
X02852D01*
X02835Y03548D02*
Y03582D01*
X054832Y02215D02*
X055332D01*
X055082Y0219D02*
Y0224D01*
X054832Y02415D02*
X055332D01*
X055082Y0239D02*
Y0244D01*
X02818Y02585D02*
X02852D01*
X02835Y02568D02*
Y02602D01*
X02818Y02685D02*
X02852D01*
X02835Y02668D02*
Y02702D01*
X02818Y0303D02*
X02852D01*
X02835Y03013D02*
Y03047D01*
X02818Y0313D02*
X02852D01*
X02835Y03113D02*
Y03147D01*
X03233Y03295D02*
X03267D01*
X0325Y03278D02*
Y03312D01*
X03233Y03095D02*
X03267D01*
X0325Y03078D02*
Y03112D01*
X03233Y02995D02*
X03267D01*
X0325Y02978D02*
Y03012D01*
X03233Y02895D02*
X03267D01*
X0325Y02878D02*
Y02912D01*
X03233Y02795D02*
X03267D01*
X0325Y02778D02*
Y02812D01*
X03233Y03195D02*
X03267D01*
X0325Y03178D02*
Y03212D01*
X03118Y04835D02*
X03152D01*
X03135Y04818D02*
Y04852D01*
X03018Y04835D02*
X03052D01*
X03035Y04818D02*
Y04852D01*
X02918Y04835D02*
X02952D01*
X02935Y04818D02*
Y04852D01*
X02818Y04835D02*
X02852D01*
X02835Y04818D02*
Y04852D01*
X03218Y04835D02*
X03252D01*
X03235Y04818D02*
Y04852D01*
X03118Y04535D02*
X03152D01*
X03135Y04518D02*
Y04552D01*
X03018Y04535D02*
X03052D01*
X03035Y04518D02*
Y04552D01*
X02918Y04535D02*
X02952D01*
X02935Y04518D02*
Y04552D01*
X02818Y04535D02*
X02852D01*
X02835Y04518D02*
Y04552D01*
X03218Y04535D02*
X03252D01*
X03235Y04518D02*
Y04552D01*
X038491Y04835D02*
X038831D01*
X038661Y04818D02*
Y04852D01*
X037491Y04835D02*
X037831D01*
X037661Y04818D02*
Y04852D01*
X036491Y04835D02*
X036831D01*
X036661Y04818D02*
Y04852D01*
X035491Y04835D02*
X035831D01*
X035661Y04818D02*
Y04852D01*
X039491Y04835D02*
X039831D01*
X039661Y04818D02*
Y04852D01*
X0315Y01995D02*
X032D01*
X03175Y0197D02*
Y0202D01*
X029Y01995D02*
X0295D01*
X02925Y0197D02*
Y0202D01*
X0305Y01795D02*
X031D01*
X03075Y0177D02*
Y0182D01*
X0315Y04175D02*
X032D01*
X03175Y0415D02*
Y042D01*
X029Y04175D02*
X0295D01*
X02925Y0415D02*
Y042D01*
X0305Y03975D02*
X031D01*
X03075Y0395D02*
Y04D01*
M02*
