M48
;Layer_Color=9474304
;FILE_FORMAT=2:4
INCH,LZ
;TYPE=PLATED
T2F00S00C0.0310
T7F00S00C0.0500
%
G90
G05
T02
G00X04408Y045905
M15
G01Y046395
M16
G00X04905Y045905
M15
G01Y046395
M16
G00X05045Y045905
M15
G01Y046395
M16
G00X05542Y045905
M15
G01Y046395
M16
T07
G00X03175Y0197
M15
G01Y0202
M16
G00X02925Y0197
M15
G01Y0202
M16
G00X0305Y01795
M15
G01X031
M16
G00X0305Y03975
M15
G01X031
M16
G00X02925Y0415
M15
G01Y042
M16
G00X03175Y0415
M15
G01Y042
M16
M17
M30
