G04*
G04 #@! TF.GenerationSoftware,Altium Limited,Altium Designer,19.1.7 (138)*
G04*
G04 Layer_Color=65535*
%FSTAX24Y24*%
%MOIN*%
G70*
G01*
G75*
%ADD10C,0.0079*%
%ADD11C,0.0100*%
%ADD12C,0.0050*%
%ADD13C,0.0070*%
%ADD14C,0.0080*%
G36*
X03535Y02885D02*
X0351Y0291D01*
Y02895D01*
X03485D01*
Y02875D01*
X0351D01*
Y0286D01*
X03535Y02885D01*
D02*
G37*
G36*
X038255Y027405D02*
Y026695D01*
X038605Y027045D01*
X038615D01*
X038255Y027405D01*
D02*
G37*
G36*
Y035655D02*
Y034945D01*
X038605Y035295D01*
X038615D01*
X038255Y035655D01*
D02*
G37*
G36*
X03535Y0514D02*
X0351Y05165D01*
Y0515D01*
X03485D01*
Y0513D01*
X0351D01*
Y05115D01*
X03535Y0514D01*
D02*
G37*
G36*
X038255Y053355D02*
Y052645D01*
X038605Y052995D01*
X038615D01*
X038255Y053355D01*
D02*
G37*
D10*
X062847Y028616D02*
G03*
X062847Y028616I-000039J0D01*
G01*
X04165Y0219D02*
X04365D01*
X04165Y0299D02*
X04365D01*
Y0219D02*
Y0299D01*
X04165Y0219D02*
Y0299D01*
X04075Y0375D02*
Y0425D01*
X03875Y0375D02*
X04075D01*
X03875D02*
Y0425D01*
X04075D01*
D11*
X0309Y01755D02*
Y05675D01*
Y01755D02*
X0667Y01755D01*
X0309Y05675D02*
X0667Y05675D01*
X061489Y043439D02*
X064339D01*
X061489Y041639D02*
Y043439D01*
Y041639D02*
X064339D01*
X061489Y038939D02*
X064339D01*
X061489Y037139D02*
Y038939D01*
Y037139D02*
X064339D01*
X042689Y034139D02*
X045539D01*
Y032339D02*
Y034139D01*
X042689Y032339D02*
X045539D01*
X042689Y030139D02*
Y043245D01*
Y030139D02*
X044028D01*
X063D02*
X064339D01*
Y031478D01*
X063Y051789D02*
X064339D01*
Y05045D02*
Y051789D01*
X042689Y030139D02*
Y043245D01*
Y030139D02*
X044028D01*
X064339D02*
Y051789D01*
X042689D02*
X064339D01*
X042689Y030139D02*
X064339D01*
X03872Y048245D02*
X042689D01*
X03872Y043245D02*
Y048245D01*
Y043245D02*
X042689D01*
Y051789D02*
X044028D01*
X042689Y048245D02*
Y051789D01*
X0449Y05675D02*
X0449Y01755D01*
X0661D02*
Y05675D01*
X0667Y01755D02*
Y05675D01*
X03835Y0464D02*
Y0476D01*
X03145Y0464D02*
Y0476D01*
Y0388D02*
Y04D01*
X03835Y0388D02*
Y04D01*
Y0388D02*
Y0476D01*
X03145Y0388D02*
X03835D01*
X03145Y0476D02*
X03835D01*
X03145Y0388D02*
Y0476D01*
X03205D01*
X040789Y047746D02*
X040999D01*
X040894Y047851D02*
Y047641D01*
X041314Y047904D02*
X041104D01*
Y047746D01*
X041209Y047799D01*
X041261D01*
X041314Y047746D01*
Y047641D01*
X041261Y047589D01*
X041156D01*
X041104Y047641D01*
X041419Y047904D02*
Y047694D01*
X041524Y047589D01*
X041629Y047694D01*
Y047904D01*
X040999Y046854D02*
X040789D01*
Y046539D01*
X040999D01*
X040789Y046696D02*
X040894D01*
X041104Y046539D02*
Y046854D01*
X041314Y046539D01*
Y046854D01*
X041419Y046539D02*
Y046749D01*
X041524Y046854D01*
X041629Y046749D01*
Y046539D01*
Y046696D01*
X041419D01*
X040789Y045854D02*
X040894D01*
X040841D01*
Y045539D01*
X040789D01*
X040894D01*
X041051D02*
Y045854D01*
X041261Y045539D01*
Y045854D01*
X041366Y045539D02*
X041471D01*
X041419D01*
Y045854D01*
X041366Y045801D01*
X040789Y044904D02*
X040894D01*
X040841D01*
Y044589D01*
X040789D01*
X040894D01*
X041051D02*
Y044904D01*
X041261Y044589D01*
Y044904D01*
X041576Y044589D02*
X041366D01*
X041576Y044799D01*
Y044851D01*
X041524Y044904D01*
X041419D01*
X041366Y044851D01*
X040999Y043851D02*
X040946Y043904D01*
X040841D01*
X040789Y043851D01*
Y043641D01*
X040841Y043589D01*
X040946D01*
X040999Y043641D01*
Y043746D01*
X040894D01*
X041104Y043589D02*
Y043904D01*
X041314Y043589D01*
Y043904D01*
X041419D02*
Y043589D01*
X041576D01*
X041629Y043641D01*
Y043851D01*
X041576Y043904D01*
X041419D01*
X041839Y047746D02*
X042049D01*
X041944Y047851D02*
Y047641D01*
X042364Y047904D02*
X042154D01*
Y047746D01*
X042259Y047799D01*
X042311D01*
X042364Y047746D01*
Y047641D01*
X042311Y047589D01*
X042206D01*
X042154Y047641D01*
X042469Y047904D02*
Y047694D01*
X042574Y047589D01*
X042679Y047694D01*
Y047904D01*
X042049Y046854D02*
X041839D01*
Y046539D01*
X042049D01*
X041839Y046696D02*
X041944D01*
X042154Y046539D02*
Y046854D01*
X042364Y046539D01*
Y046854D01*
X042469D02*
Y046539D01*
X042626D01*
X042679Y046591D01*
Y046644D01*
X042626Y046696D01*
X042469D01*
X042626D01*
X042679Y046749D01*
Y046801D01*
X042626Y046854D01*
X042469D01*
X041839Y045854D02*
X041944D01*
X041891D01*
Y045539D01*
X041839D01*
X041944D01*
X042101D02*
Y045854D01*
X042311Y045539D01*
Y045854D01*
X042416Y045801D02*
X042469Y045854D01*
X042574D01*
X042626Y045801D01*
Y045749D01*
X042574Y045696D01*
X042521D01*
X042574D01*
X042626Y045644D01*
Y045591D01*
X042574Y045539D01*
X042469D01*
X042416Y045591D01*
X041839Y044904D02*
X041944D01*
X041891D01*
Y044589D01*
X041839D01*
X041944D01*
X042101D02*
Y044904D01*
X042311Y044589D01*
Y044904D01*
X042574Y044589D02*
Y044904D01*
X042416Y044746D01*
X042626D01*
X042049Y043851D02*
X041996Y043904D01*
X041891D01*
X041839Y043851D01*
Y043641D01*
X041891Y043589D01*
X041996D01*
X042049Y043641D01*
Y043746D01*
X041944D01*
X042154Y043589D02*
Y043904D01*
X042364Y043589D01*
Y043904D01*
X042469D02*
Y043589D01*
X042626D01*
X042679Y043641D01*
Y043851D01*
X042626Y043904D01*
X042469D01*
X03255Y046815D02*
Y046605D01*
X032655Y0465D01*
X03276Y046605D01*
Y046815D01*
X033075Y046762D02*
X033022Y046815D01*
X032917D01*
X032865Y046762D01*
Y046552D01*
X032917Y0465D01*
X033022D01*
X033075Y046552D01*
X03339Y046762D02*
X033337Y046815D01*
X033232D01*
X03318Y046762D01*
Y046552D01*
X033232Y0465D01*
X033337D01*
X03339Y046552D01*
X03276Y045812D02*
X032707Y045865D01*
X032602D01*
X03255Y045812D01*
Y045602D01*
X032602Y04555D01*
X032707D01*
X03276Y045602D01*
Y045707D01*
X032655D01*
X032865Y04555D02*
Y045865D01*
X033075Y04555D01*
Y045865D01*
X03318D02*
Y04555D01*
X033337D01*
X03339Y045602D01*
Y045812D01*
X033337Y045865D01*
X03318D01*
X03276Y044812D02*
X032707Y044865D01*
X032602D01*
X03255Y044812D01*
Y04476D01*
X032602Y044707D01*
X032707D01*
X03276Y044655D01*
Y044602D01*
X032707Y04455D01*
X032602D01*
X03255Y044602D01*
X033075Y044812D02*
X033022Y044865D01*
X032917D01*
X032865Y044812D01*
Y044602D01*
X032917Y04455D01*
X033022D01*
X033075Y044602D01*
X03318Y044865D02*
Y04455D01*
X03339D01*
X03276Y043812D02*
X032707Y043865D01*
X032602D01*
X03255Y043812D01*
Y04376D01*
X032602Y043707D01*
X032707D01*
X03276Y043655D01*
Y043602D01*
X032707Y04355D01*
X032602D01*
X03255Y043602D01*
X032865Y043865D02*
Y04355D01*
X033022D01*
X033075Y043602D01*
Y043812D01*
X033022Y043865D01*
X032865D01*
X03318Y04355D02*
Y04376D01*
X033285Y043865D01*
X03339Y04376D01*
Y04355D01*
Y043707D01*
X03318D01*
X03255Y042865D02*
X03276Y04255D01*
Y042865D02*
X03255Y04255D01*
X032865Y042865D02*
Y04255D01*
X033022D01*
X033075Y042602D01*
Y042812D01*
X033022Y042865D01*
X032865D01*
X03318Y04255D02*
Y04276D01*
X033285Y042865D01*
X03339Y04276D01*
Y04255D01*
Y042707D01*
X03318D01*
X03255Y041865D02*
X03276Y04155D01*
Y041865D02*
X03255Y04155D01*
X033075Y041812D02*
X033022Y041865D01*
X032917D01*
X032865Y041812D01*
Y041602D01*
X032917Y04155D01*
X033022D01*
X033075Y041602D01*
X03318Y041865D02*
Y04155D01*
X03339D01*
X03255Y0406D02*
Y04081D01*
X032655Y040915D01*
X03276Y04081D01*
Y0406D01*
Y040757D01*
X03255D01*
X032865Y040915D02*
Y0406D01*
X033022D01*
X033075Y040652D01*
Y040862D01*
X033022Y040915D01*
X032865D01*
X03318Y040862D02*
X033232Y040915D01*
X033337D01*
X03339Y040862D01*
Y040652D01*
X033337Y0406D01*
X033232D01*
X03318Y040652D01*
Y040862D01*
X03255Y039815D02*
X032655D01*
X032602D01*
Y0395D01*
X03255D01*
X032655D01*
X032812D02*
Y039815D01*
X033022Y0395D01*
Y039815D01*
X033127D02*
X033337D01*
X033232D01*
Y0395D01*
X04535Y05595D02*
Y056265D01*
X045507Y056422D01*
X045665Y056265D01*
Y05595D01*
Y056186D01*
X04535D01*
X045822Y05595D02*
Y056422D01*
X046058D01*
X046137Y056344D01*
Y056186D01*
X046058Y056107D01*
X045822D01*
X04598D02*
X046137Y05595D01*
X046295Y056422D02*
Y05595D01*
X046531D01*
X046609Y056029D01*
Y056344D01*
X046531Y056422D01*
X046295D01*
X046767D02*
Y056029D01*
X046846Y05595D01*
X047003D01*
X047082Y056029D01*
Y056422D01*
X047239D02*
X047397D01*
X047318D01*
Y05595D01*
X047239D01*
X047397D01*
X047633D02*
Y056422D01*
X047948Y05595D01*
Y056422D01*
X048341D02*
X048184D01*
X048105Y056344D01*
Y056029D01*
X048184Y05595D01*
X048341D01*
X04842Y056029D01*
Y056344D01*
X048341Y056422D01*
X048577Y055871D02*
X048892D01*
X04905Y05595D02*
Y056422D01*
X049207Y056265D01*
X049364Y056422D01*
Y05595D01*
X049837Y056422D02*
X049522D01*
Y05595D01*
X049837D01*
X049522Y056186D02*
X049679D01*
X050309Y056344D02*
X05023Y056422D01*
X050073D01*
X049994Y056344D01*
Y056029D01*
X050073Y05595D01*
X05023D01*
X050309Y056029D01*
Y056186D01*
X050152D01*
X050466Y05595D02*
Y056265D01*
X050624Y056422D01*
X050781Y056265D01*
Y05595D01*
Y056186D01*
X050466D01*
X051254Y05595D02*
X050939D01*
X051254Y056265D01*
Y056344D01*
X051175Y056422D01*
X051017D01*
X050939Y056344D01*
X051726Y056422D02*
X051411D01*
Y056186D01*
X051568Y056265D01*
X051647D01*
X051726Y056186D01*
Y056029D01*
X051647Y05595D01*
X05149D01*
X051411Y056029D01*
X052198Y056422D02*
X052041Y056344D01*
X051883Y056186D01*
Y056029D01*
X051962Y05595D01*
X052119D01*
X052198Y056029D01*
Y056107D01*
X052119Y056186D01*
X051883D01*
X052356Y056344D02*
X052434Y056422D01*
X052592D01*
X05267Y056344D01*
Y056029D01*
X052592Y05595D01*
X052434D01*
X052356Y056029D01*
Y056344D01*
X052828Y055871D02*
X053143D01*
X0533Y05595D02*
Y056422D01*
X053536D01*
X053615Y056344D01*
Y056186D01*
X053536Y056107D01*
X0533D01*
X053458D02*
X053615Y05595D01*
X054087Y056422D02*
X053772D01*
Y05595D01*
X054087D01*
X053772Y056186D02*
X05393D01*
X054245Y056422D02*
Y056107D01*
X054402Y05595D01*
X05456Y056107D01*
Y056422D01*
X054717Y056344D02*
X054796Y056422D01*
X054953D01*
X055032Y056344D01*
Y056265D01*
X054953Y056186D01*
X054874D01*
X054953D01*
X055032Y056107D01*
Y056029D01*
X054953Y05595D01*
X054796D01*
X054717Y056029D01*
X055189Y055871D02*
X055504D01*
X055662Y056186D02*
X055976D01*
X056134Y055871D02*
X056449D01*
X056606Y05595D02*
Y056422D01*
X056842D01*
X056921Y056344D01*
Y056186D01*
X056842Y056107D01*
X056606D01*
X056764D02*
X056921Y05595D01*
X057393Y056422D02*
X057078D01*
Y05595D01*
X057393D01*
X057078Y056186D02*
X057236D01*
X057551Y056422D02*
X057866D01*
X057708D01*
Y05595D01*
X058023D02*
Y056265D01*
X05818Y056422D01*
X058338Y056265D01*
Y05595D01*
Y056186D01*
X058023D01*
X058495Y056422D02*
X058653D01*
X058574D01*
Y05595D01*
X058495D01*
X058653D01*
X058889Y056422D02*
Y05595D01*
X059204D01*
X0593Y0297D02*
Y0291D01*
Y0294D01*
X0597D01*
Y0297D01*
Y0291D01*
X0599Y029D02*
X0603D01*
X0605Y0297D02*
Y0291D01*
X0608D01*
X060899Y0292D01*
Y0293D01*
X0608Y0294D01*
X0605D01*
X0608D01*
X060899Y0295D01*
Y0296D01*
X0608Y0297D01*
X0605D01*
X061099Y0295D02*
Y0291D01*
Y0293D01*
X061199Y0294D01*
X061299Y0295D01*
X061399D01*
X061699Y0291D02*
X061899D01*
X061799D01*
Y0295D01*
X061699D01*
X062599Y0297D02*
Y0291D01*
X062299D01*
X062199Y0292D01*
Y0294D01*
X062299Y0295D01*
X062599D01*
X062999Y0289D02*
X063099D01*
X063199Y029D01*
Y0295D01*
X062899D01*
X062799Y0294D01*
Y0292D01*
X062899Y0291D01*
X063199D01*
X063699D02*
X063499D01*
X063399Y0292D01*
Y0294D01*
X063499Y0295D01*
X063699D01*
X063799Y0294D01*
Y0293D01*
X063399D01*
X063998Y0291D02*
X064198D01*
X064098D01*
Y0297D01*
X063998Y0296D01*
X060878Y05245D02*
X06135D01*
X061114D01*
Y052765D01*
X060878D01*
X06135D01*
X060878Y052922D02*
X06135D01*
Y053158D01*
X061271Y053237D01*
X060956D01*
X060878Y053158D01*
Y052922D01*
X061429Y053395D02*
Y053709D01*
X060878Y054182D02*
Y053867D01*
X061114D01*
X061035Y054024D01*
Y054103D01*
X061114Y054182D01*
X061271D01*
X06135Y054103D01*
Y053946D01*
X061271Y053867D01*
X060878Y054339D02*
X061193D01*
X06135Y054497D01*
X061193Y054654D01*
X060878D01*
X061429Y054811D02*
Y055126D01*
X060878Y05552D02*
Y055362D01*
X060956Y055284D01*
X061271D01*
X06135Y055362D01*
Y05552D01*
X061271Y055599D01*
X060956D01*
X060878Y05552D01*
Y055756D02*
X061271D01*
X06135Y055835D01*
Y055992D01*
X061271Y056071D01*
X060878D01*
Y056228D02*
Y056543D01*
Y056386D01*
X06135D01*
X0474Y02855D02*
Y02895D01*
X0476Y02915D01*
X0478Y02895D01*
Y02855D01*
Y02885D01*
X0474D01*
X048Y02855D02*
Y02915D01*
X0483D01*
X0484Y02905D01*
Y02885D01*
X0483Y02875D01*
X048D01*
X0482D02*
X0484Y02855D01*
X0486Y02915D02*
Y02855D01*
X0489D01*
X048999Y02865D01*
Y02905D01*
X0489Y02915D01*
X0486D01*
X049199D02*
Y02865D01*
X049299Y02855D01*
X049499D01*
X049599Y02865D01*
Y02915D01*
X049799D02*
X049999D01*
X049899D01*
Y02855D01*
X049799D01*
X049999D01*
X050299D02*
Y02915D01*
X050699Y02855D01*
Y02915D01*
X051199D02*
X050999D01*
X050899Y02905D01*
Y02865D01*
X050999Y02855D01*
X051199D01*
X051299Y02865D01*
Y02905D01*
X051199Y02915D01*
X051499Y02845D02*
X051899D01*
X052098Y02855D02*
Y02915D01*
X052498Y02855D01*
Y02915D01*
X052698Y02855D02*
Y02895D01*
X052898Y02915D01*
X053098Y02895D01*
Y02855D01*
Y02885D01*
X052698D01*
X053298Y02855D02*
Y02915D01*
X053698Y02855D01*
Y02915D01*
X054198D02*
X053998D01*
X053898Y02905D01*
Y02865D01*
X053998Y02855D01*
X054198D01*
X054298Y02865D01*
Y02905D01*
X054198Y02915D01*
X04445Y02355D02*
X04385D01*
X04405Y02375D01*
X04385Y02395D01*
X04445D01*
Y02415D02*
X04385D01*
Y02445D01*
X04395Y02455D01*
X04415D01*
X04425Y02445D01*
Y02415D01*
X04385Y02475D02*
X04435D01*
X04445Y02485D01*
Y02505D01*
X04435Y025149D01*
X04385D01*
X04455Y025349D02*
Y025749D01*
X04385Y026349D02*
Y026149D01*
Y026249D01*
X04435D01*
X04445Y026149D01*
Y026049D01*
X04435Y025949D01*
X04385Y026549D02*
X04435D01*
X04445Y026649D01*
Y026849D01*
X04435Y026949D01*
X04385D01*
X04445Y027149D02*
X04385D01*
X04405Y027349D01*
X04385Y027549D01*
X04445D01*
Y027749D02*
X04385D01*
Y028049D01*
X04395Y028149D01*
X04415D01*
X04425Y028049D01*
Y027749D01*
X0315Y04795D02*
Y04855D01*
X0317Y04835D01*
X0319Y04855D01*
Y04795D01*
X0321D02*
Y04855D01*
X0324D01*
X0325Y04845D01*
Y04825D01*
X0324Y04815D01*
X0321D01*
X0327Y04855D02*
Y04805D01*
X0328Y04795D01*
X033D01*
X033099Y04805D01*
Y04855D01*
X033699D02*
X033499Y04845D01*
X033299Y04825D01*
Y04805D01*
X033399Y04795D01*
X033599D01*
X033699Y04805D01*
Y04815D01*
X033599Y04825D01*
X033299D01*
X033899Y04845D02*
X033999Y04855D01*
X034199D01*
X034299Y04845D01*
Y04805D01*
X034199Y04795D01*
X033999D01*
X033899Y04805D01*
Y04845D01*
X034899Y04855D02*
X034499D01*
Y04825D01*
X034699Y04835D01*
X034799D01*
X034899Y04825D01*
Y04805D01*
X034799Y04795D01*
X034599D01*
X034499Y04805D01*
X035099Y04845D02*
X035199Y04855D01*
X035399D01*
X035499Y04845D01*
Y04805D01*
X035399Y04795D01*
X035199D01*
X035099Y04805D01*
Y04845D01*
X038572Y025685D02*
Y025843D01*
Y025764D01*
X038179D01*
X0381Y025843D01*
Y025921D01*
X038179Y026D01*
X0381Y025528D02*
X038572D01*
Y025292D01*
X038494Y025213D01*
X038336D01*
X038257Y025292D01*
Y025528D01*
X038021Y025055D02*
Y024741D01*
X0381Y024583D02*
X038572D01*
X038415Y024426D01*
X038572Y024268D01*
X0381D01*
X038572Y023875D02*
Y024032D01*
X038494Y024111D01*
X038179D01*
X0381Y024032D01*
Y023875D01*
X038179Y023796D01*
X038494D01*
X038572Y023875D01*
Y023639D02*
Y023324D01*
Y023481D01*
X0381D01*
X038572Y02293D02*
Y023088D01*
X038494Y023166D01*
X038179D01*
X0381Y023088D01*
Y02293D01*
X038179Y022851D01*
X038494D01*
X038572Y02293D01*
X0381Y022694D02*
X038572D01*
Y022458D01*
X038494Y022379D01*
X038336D01*
X038257Y022458D01*
Y022694D01*
Y022537D02*
X0381Y022379D01*
X038021Y022222D02*
Y021907D01*
X0381Y021513D02*
X038572D01*
X038336Y021749D01*
Y021435D01*
X038322Y034435D02*
Y034593D01*
Y034514D01*
X037929D01*
X03785Y034593D01*
Y034671D01*
X037929Y03475D01*
X03785Y034278D02*
X038322D01*
Y034042D01*
X038244Y033963D01*
X038086D01*
X038007Y034042D01*
Y034278D01*
X037771Y033805D02*
Y033491D01*
X03785Y033333D02*
X038322D01*
X038165Y033176D01*
X038322Y033018D01*
X03785D01*
X038322Y032625D02*
Y032782D01*
X038244Y032861D01*
X037929D01*
X03785Y032782D01*
Y032625D01*
X037929Y032546D01*
X038244D01*
X038322Y032625D01*
Y032389D02*
Y032074D01*
Y032231D01*
X03785D01*
X038322Y03168D02*
Y031838D01*
X038244Y031916D01*
X037929D01*
X03785Y031838D01*
Y03168D01*
X037929Y031601D01*
X038244D01*
X038322Y03168D01*
X03785Y031444D02*
X038322D01*
Y031208D01*
X038244Y031129D01*
X038086D01*
X038007Y031208D01*
Y031444D01*
Y031287D02*
X03785Y031129D01*
X037771Y030972D02*
Y030657D01*
X038244Y030499D02*
X038322Y030421D01*
Y030263D01*
X038244Y030185D01*
X038165D01*
X038086Y030263D01*
Y030342D01*
Y030263D01*
X038007Y030185D01*
X037929D01*
X03785Y030263D01*
Y030421D01*
X037929Y030499D01*
X0312Y03395D02*
Y03335D01*
Y03365D01*
X0316D01*
Y03395D01*
Y03335D01*
X0318Y03395D02*
Y03335D01*
X0321D01*
X0322Y03345D01*
Y03385D01*
X0321Y03395D01*
X0318D01*
X0324Y03325D02*
X032799D01*
X032999Y03335D02*
Y03395D01*
X033199Y03375D01*
X033399Y03395D01*
Y03335D01*
X033899Y03395D02*
X033699D01*
X033599Y03385D01*
Y03345D01*
X033699Y03335D01*
X033899D01*
X033999Y03345D01*
Y03385D01*
X033899Y03395D01*
X034199D02*
X034599D01*
X034399D01*
Y03335D01*
X035099Y03395D02*
X034899D01*
X034799Y03385D01*
Y03345D01*
X034899Y03335D01*
X035099D01*
X035199Y03345D01*
Y03385D01*
X035099Y03395D01*
X035399Y03335D02*
Y03395D01*
X035699D01*
X035799Y03385D01*
Y03365D01*
X035699Y03355D01*
X035399D01*
X035599D02*
X035799Y03335D01*
X0413Y03745D02*
X0419D01*
X0416D01*
Y03785D01*
X0413D01*
X0419D01*
X042Y03805D02*
Y03845D01*
X0413Y03865D02*
X0419D01*
Y03895D01*
X0418Y039049D01*
X0417D01*
X0416Y03895D01*
Y03865D01*
Y03895D01*
X0415Y039049D01*
X0414D01*
X0413Y03895D01*
Y03865D01*
X0415Y039249D02*
X0419D01*
X0417D01*
X0416Y039349D01*
X0415Y039449D01*
Y039549D01*
X0419Y039849D02*
Y040049D01*
Y039949D01*
X0415D01*
Y039849D01*
X0413Y040749D02*
X0419D01*
Y040449D01*
X0418Y040349D01*
X0416D01*
X0415Y040449D01*
Y040749D01*
X0421Y041149D02*
Y041249D01*
X042Y041349D01*
X0415D01*
Y041049D01*
X0416Y040949D01*
X0418D01*
X0419Y041049D01*
Y041349D01*
Y041849D02*
Y041649D01*
X0418Y041549D01*
X0416D01*
X0415Y041649D01*
Y041849D01*
X0416Y041949D01*
X0417D01*
Y041549D01*
X0419Y042548D02*
Y042148D01*
X0415Y042548D01*
X0414D01*
X0413Y042448D01*
Y042248D01*
X0414Y042148D01*
X041428Y048765D02*
Y048607D01*
Y048686D01*
X041821D01*
X0419Y048607D01*
Y048529D01*
X041821Y04845D01*
X0419Y048922D02*
X041428D01*
Y049158D01*
X041506Y049237D01*
X041664D01*
X041743Y049158D01*
Y048922D01*
X041979Y049395D02*
Y049709D01*
X0419Y049867D02*
X041428D01*
X041585Y050024D01*
X041428Y050182D01*
X0419D01*
X041428Y050575D02*
Y050418D01*
X041506Y050339D01*
X041821D01*
X0419Y050418D01*
Y050575D01*
X041821Y050654D01*
X041506D01*
X041428Y050575D01*
Y050811D02*
Y051126D01*
Y050969D01*
X0419D01*
X041428Y05152D02*
Y051362D01*
X041506Y051284D01*
X041821D01*
X0419Y051362D01*
Y05152D01*
X041821Y051599D01*
X041506D01*
X041428Y05152D01*
X0419Y051756D02*
X041428D01*
Y051992D01*
X041506Y052071D01*
X041664D01*
X041743Y051992D01*
Y051756D01*
Y051913D02*
X0419Y052071D01*
X041979Y052228D02*
Y052543D01*
X041428Y053015D02*
Y052701D01*
X0419D01*
Y053015D01*
X041664Y052701D02*
Y052858D01*
X0419Y053173D02*
X041428D01*
X0419Y053488D01*
X041428D01*
X041506Y05396D02*
X041428Y053881D01*
Y053724D01*
X041506Y053645D01*
X041821D01*
X0419Y053724D01*
Y053881D01*
X041821Y05396D01*
X041428Y054354D02*
Y054196D01*
X041506Y054117D01*
X041821D01*
X0419Y054196D01*
Y054354D01*
X041821Y054432D01*
X041506D01*
X041428Y054354D01*
Y05459D02*
X0419D01*
Y054826D01*
X041821Y054905D01*
X041506D01*
X041428Y054826D01*
Y05459D01*
Y055377D02*
Y055062D01*
X0419D01*
Y055377D01*
X041664Y055062D02*
Y055219D01*
X0419Y055534D02*
X041428D01*
Y05577D01*
X041506Y055849D01*
X041664D01*
X041743Y05577D01*
Y055534D01*
Y055692D02*
X0419Y055849D01*
X0314Y05445D02*
Y05385D01*
Y05415D01*
X0318D01*
Y05445D01*
Y05385D01*
X032Y05445D02*
Y05385D01*
X0323D01*
X0324Y05395D01*
Y05435D01*
X0323Y05445D01*
X032D01*
X0326Y05375D02*
X032999D01*
X033599Y05445D02*
X033199D01*
Y05415D01*
X033399Y05425D01*
X033499D01*
X033599Y05415D01*
Y05395D01*
X033499Y05385D01*
X033299D01*
X033199Y05395D01*
X033799Y05445D02*
Y05405D01*
X033999Y05385D01*
X034199Y05405D01*
Y05445D01*
X034399Y05375D02*
X034799D01*
X034999Y05445D02*
X035199D01*
X035099D01*
Y05385D01*
X034999D01*
X035199D01*
X035499D02*
Y05445D01*
X035899Y05385D01*
Y05445D01*
D12*
X0473Y0281D02*
X0643D01*
X0473Y0211D02*
Y0281D01*
Y0211D02*
X0643D01*
Y0281D01*
D13*
X03495Y0329D02*
X03525D01*
Y02485D02*
Y02495D01*
X03495D02*
X03525D01*
X03495Y02485D02*
Y02495D01*
X03115Y0256D02*
X0317D01*
Y02615D01*
X03115D02*
X0317D01*
X0311Y0276D02*
X03165D01*
Y02815D01*
X0311D02*
X03165D01*
X0311Y0296D02*
X03165D01*
Y03015D01*
X0311D02*
X03165D01*
X0311Y0316D02*
X03165D01*
Y03215D01*
X0311D02*
X03165D01*
X0361Y02485D02*
Y03285D01*
X0311D02*
X0361D01*
X0311Y02485D02*
X03495D01*
X0311D02*
Y03285D01*
X03525Y02485D02*
X0361D01*
X03525Y0494D02*
X0361D01*
X03495D02*
Y0495D01*
X03525D01*
Y0494D02*
Y0495D01*
X0361Y0494D02*
Y05338D01*
X0311Y0534D02*
X0361D01*
X0311Y0494D02*
X03495D01*
X0311D02*
Y0534D01*
Y0527D02*
X03165D01*
Y05215D02*
Y0527D01*
X0311Y05215D02*
X03165D01*
X0311Y0507D02*
X03165D01*
Y05015D02*
Y0507D01*
X0311Y05015D02*
X03165D01*
X03495Y05345D02*
X03525D01*
X04115Y021D02*
Y028D01*
X03875Y021D02*
X03975D01*
X03875D02*
Y028D01*
X04115D01*
X03975Y021D02*
X04115D01*
X03878Y02675D02*
X03908D01*
Y02625D02*
Y02675D01*
X03878Y02625D02*
X03908D01*
X03877Y02276D02*
X03907D01*
Y02226D02*
Y02276D01*
X03877Y02226D02*
X03907D01*
X04115Y02925D02*
Y03625D01*
X03875Y02925D02*
X03975D01*
X03875D02*
Y03625D01*
X04115D01*
X03975Y02925D02*
X04115D01*
X03878Y035D02*
X03908D01*
Y0345D02*
Y035D01*
X03878Y0345D02*
X03908D01*
X03877Y03101D02*
X03907D01*
Y03051D02*
Y03101D01*
X03877Y03051D02*
X03907D01*
X03975Y049D02*
X04115D01*
X03875Y054D02*
X04115D01*
X03875Y049D02*
Y054D01*
Y049D02*
X03975D01*
X04115D02*
Y054D01*
X03875Y05298D02*
X03905D01*
Y05248D02*
Y05298D01*
X03875Y05248D02*
X03905D01*
X03877Y0505D02*
X03907D01*
Y05D02*
Y0505D01*
X03877Y05D02*
X03907D01*
D14*
X042267Y0214D02*
X04235Y021483D01*
Y02165D01*
X042267Y021733D01*
X041933D01*
X04185Y02165D01*
Y021483D01*
X041933Y0214D01*
X042017D01*
X0421Y021483D01*
Y021733D01*
X04335Y0214D02*
Y021567D01*
Y021483D01*
X04285D01*
X042933Y0214D01*
X043983Y02925D02*
X0439Y029333D01*
Y0295D01*
X043983Y029583D01*
X044067D01*
X04415Y0295D01*
X044233Y029583D01*
X044317D01*
X0444Y0295D01*
Y029333D01*
X044317Y02925D01*
X044233D01*
X04415Y029333D01*
X044067Y02925D01*
X043983D01*
X04415Y029333D02*
Y0295D01*
X04235Y0302D02*
Y030367D01*
Y030283D01*
X04185D01*
X041933Y0302D01*
X04185Y03095D02*
X041933Y030783D01*
X0421Y030617D01*
X042267D01*
X04235Y0307D01*
Y030866D01*
X042267Y03095D01*
X042183D01*
X0421Y030866D01*
Y030617D01*
M02*
