G04*
G04 #@! TF.GenerationSoftware,Altium Limited,Altium Designer,19.1.7 (138)*
G04*
G04 Layer_Color=128*
%FSTAX24Y24*%
%MOIN*%
G70*
G01*
G75*
%ADD48C,0.0020*%
D48*
X064833Y046478D02*
X065167D01*
X065Y04631D02*
Y046645D01*
X064833Y045478D02*
X065167D01*
X065Y04531D02*
Y045645D01*
X064833Y044478D02*
X065167D01*
X065Y04431D02*
Y044645D01*
X064833Y043478D02*
X065167D01*
X065Y04331D02*
Y043645D01*
X064833Y042478D02*
X065167D01*
X065Y04231D02*
Y042645D01*
X064833Y041478D02*
X065167D01*
X065Y04131D02*
Y041645D01*
X064833Y040478D02*
X065167D01*
X065Y04031D02*
Y040645D01*
X064833Y039478D02*
X065167D01*
X065Y03931D02*
Y039645D01*
X064833Y037478D02*
X065167D01*
X065Y03731D02*
Y037645D01*
X064833Y036478D02*
X065167D01*
X065Y03631D02*
Y036645D01*
X064833Y035478D02*
X065167D01*
X065Y03531D02*
Y035645D01*
X064833Y034478D02*
X065167D01*
X065Y03431D02*
Y034645D01*
X064833Y033478D02*
X065167D01*
X065Y03331D02*
Y033645D01*
X064833Y032478D02*
X065167D01*
X065Y03231D02*
Y032645D01*
X064833Y031478D02*
X065167D01*
X065Y03131D02*
Y031645D01*
X064833Y030478D02*
X065167D01*
X065Y03031D02*
Y030645D01*
X064833Y028478D02*
X065167D01*
X065Y02831D02*
Y028645D01*
X064833Y027478D02*
X065167D01*
X065Y02731D02*
Y027645D01*
X064833Y026478D02*
X065167D01*
X065Y02631D02*
Y026645D01*
X064833Y025478D02*
X065167D01*
X065Y02531D02*
Y025645D01*
X064833Y024478D02*
X065167D01*
X065Y02431D02*
Y024645D01*
X064833Y023478D02*
X065167D01*
X065Y02331D02*
Y023645D01*
X064833Y022578D02*
X065167D01*
X065Y02241D02*
Y022745D01*
X064833Y021578D02*
X065167D01*
X065Y02141D02*
Y021745D01*
X062833Y019478D02*
X063167D01*
X063Y01931D02*
Y019645D01*
X062833Y020478D02*
X063167D01*
X063Y02031D02*
Y020645D01*
X061833Y019478D02*
X062167D01*
X062Y01931D02*
Y019645D01*
X061833Y020478D02*
X062167D01*
X062Y02031D02*
Y020645D01*
X060833Y019478D02*
X061167D01*
X061Y01931D02*
Y019645D01*
X060833Y020478D02*
X061167D01*
X061Y02031D02*
Y020645D01*
X059833Y019478D02*
X060167D01*
X06Y01931D02*
Y019645D01*
X059833Y020478D02*
X060167D01*
X06Y02031D02*
Y020645D01*
X06437Y051978D02*
X06563D01*
X065Y051348D02*
Y052607D01*
X06237Y031478D02*
X06363D01*
X063Y030848D02*
Y032107D01*
X05137Y031478D02*
X05263D01*
X052Y030848D02*
Y032107D01*
X04537Y051478D02*
X04663D01*
X046Y050848D02*
Y052107D01*
X06437Y019478D02*
X06563D01*
X065Y018848D02*
Y020107D01*
X058833Y020478D02*
X059167D01*
X059Y02031D02*
Y020645D01*
X058833Y019478D02*
X059167D01*
X059Y01931D02*
Y019645D01*
X057833Y020478D02*
X058167D01*
X058Y02031D02*
Y020645D01*
X057833Y019478D02*
X058167D01*
X058Y01931D02*
Y019645D01*
X056833Y020478D02*
X057167D01*
X057Y02031D02*
Y020645D01*
X056833Y019478D02*
X057167D01*
X057Y01931D02*
Y019645D01*
X055833Y020478D02*
X056167D01*
X056Y02031D02*
Y020645D01*
X055833Y019478D02*
X056167D01*
X056Y01931D02*
Y019645D01*
X054833Y020478D02*
X055167D01*
X055Y02031D02*
Y020645D01*
X054833Y019478D02*
X055167D01*
X055Y01931D02*
Y019645D01*
X053833Y020478D02*
X054167D01*
X054Y02031D02*
Y020645D01*
X053833Y019478D02*
X054167D01*
X054Y01931D02*
Y019645D01*
X052833Y020478D02*
X053167D01*
X053Y02031D02*
Y020645D01*
X052833Y019478D02*
X053167D01*
X053Y01931D02*
Y019645D01*
X051833Y020478D02*
X052167D01*
X052Y02031D02*
Y020645D01*
X051833Y019478D02*
X052167D01*
X052Y01931D02*
Y019645D01*
X050833Y020478D02*
X051167D01*
X051Y02031D02*
Y020645D01*
X050833Y019478D02*
X051167D01*
X051Y01931D02*
Y019645D01*
X049833Y020478D02*
X050167D01*
X05Y02031D02*
Y020645D01*
X049833Y019478D02*
X050167D01*
X05Y01931D02*
Y019645D01*
X048833Y020478D02*
X049167D01*
X049Y02031D02*
Y020645D01*
X048833Y019478D02*
X049167D01*
X049Y01931D02*
Y019645D01*
X047833Y020478D02*
X048167D01*
X048Y02031D02*
Y020645D01*
X047833Y019478D02*
X048167D01*
X048Y01931D02*
Y019645D01*
X046833Y020478D02*
X047167D01*
X047Y02031D02*
Y020645D01*
X046833Y019478D02*
X047167D01*
X047Y01931D02*
Y019645D01*
X045833Y020478D02*
X046167D01*
X046Y02031D02*
Y020645D01*
X045833Y019478D02*
X046167D01*
X046Y01931D02*
Y019645D01*
X045833Y023478D02*
X046167D01*
X046Y02331D02*
Y023645D01*
X045833Y024478D02*
X046167D01*
X046Y02431D02*
Y024645D01*
X045833Y025478D02*
X046167D01*
X046Y02531D02*
Y025645D01*
X045833Y026478D02*
X046167D01*
X046Y02631D02*
Y026645D01*
X045833Y027478D02*
X046167D01*
X046Y02731D02*
Y027645D01*
X045833Y028478D02*
X046167D01*
X046Y02831D02*
Y028645D01*
X045833Y029478D02*
X046167D01*
X046Y02931D02*
Y029645D01*
X045833Y030478D02*
X046167D01*
X046Y03031D02*
Y030645D01*
X045833Y032478D02*
X046167D01*
X046Y03231D02*
Y032645D01*
X045833Y033478D02*
X046167D01*
X046Y03331D02*
Y033645D01*
X045833Y034478D02*
X046167D01*
X046Y03431D02*
Y034645D01*
X045833Y035478D02*
X046167D01*
X046Y03531D02*
Y035645D01*
X045833Y036478D02*
X046167D01*
X046Y03631D02*
Y036645D01*
X045833Y037478D02*
X046167D01*
X046Y03731D02*
Y037645D01*
X045833Y038478D02*
X046167D01*
X046Y03831D02*
Y038645D01*
X045833Y039478D02*
X046167D01*
X046Y03931D02*
Y039645D01*
X045833Y041078D02*
X046167D01*
X046Y04091D02*
Y041245D01*
X045833Y042078D02*
X046167D01*
X046Y04191D02*
Y042245D01*
X045833Y043078D02*
X046167D01*
X046Y04291D02*
Y043245D01*
X045833Y044078D02*
X046167D01*
X046Y04391D02*
Y044245D01*
X045833Y045078D02*
X046167D01*
X046Y04491D02*
Y045245D01*
X045833Y046078D02*
X046167D01*
X046Y04591D02*
Y046245D01*
X045833Y047078D02*
X046167D01*
X046Y04691D02*
Y047245D01*
X045833Y048078D02*
X046167D01*
X046Y04791D02*
Y048245D01*
X045833Y049078D02*
X046167D01*
X046Y04891D02*
Y049245D01*
X045833Y050078D02*
X046167D01*
X046Y04991D02*
Y050245D01*
X04537Y021978D02*
X04663D01*
X046Y021348D02*
Y022607D01*
X06235Y05575D02*
X06295D01*
X06265Y05545D02*
Y05605D01*
X06235Y05375D02*
X06295D01*
X06265Y05345D02*
Y05405D01*
X062409Y031478D02*
X063591D01*
X063Y030887D02*
Y032068D01*
X043437Y031478D02*
X044618D01*
X044028Y030887D02*
Y032068D01*
X043437Y05045D02*
X044618D01*
X044028Y049859D02*
Y051041D01*
X062409Y05045D02*
X063591D01*
X063Y049859D02*
Y051041D01*
X03907Y047745D02*
X03937D01*
X03922Y047595D02*
Y047895D01*
X04007Y047745D02*
X04037D01*
X04022Y047595D02*
Y047895D01*
X03907Y046745D02*
X03937D01*
X03922Y046595D02*
Y046895D01*
X04007Y046745D02*
X04037D01*
X04022Y046595D02*
Y046895D01*
X03907Y045745D02*
X03937D01*
X03922Y045595D02*
Y045895D01*
X04007Y045745D02*
X04037D01*
X04022Y045595D02*
Y045895D01*
X03907Y044745D02*
X03937D01*
X03922Y044595D02*
Y044895D01*
X04007Y044745D02*
X04037D01*
X04022Y044595D02*
Y044895D01*
X03907Y043745D02*
X03937D01*
X03922Y043595D02*
Y043895D01*
X04007Y043745D02*
X04037D01*
X04022Y043595D02*
Y043895D01*
X062623Y0216D02*
X062977D01*
X0628Y021423D02*
Y021777D01*
X061623Y0216D02*
X061977D01*
X0618Y021423D02*
Y021777D01*
X060623Y0216D02*
X060977D01*
X0608Y021423D02*
Y021777D01*
X059623Y0216D02*
X059977D01*
X0598Y021423D02*
Y021777D01*
X058623Y0216D02*
X058977D01*
X0588Y021423D02*
Y021777D01*
X057623Y0216D02*
X057977D01*
X0578Y021423D02*
Y021777D01*
X056623Y0216D02*
X056977D01*
X0568Y021423D02*
Y021777D01*
X055623Y0216D02*
X055977D01*
X0558Y021423D02*
Y021777D01*
X054623Y0216D02*
X054977D01*
X0548Y021423D02*
Y021777D01*
X053623Y0216D02*
X053977D01*
X0538Y021423D02*
Y021777D01*
X052623Y0216D02*
X052977D01*
X0528Y021423D02*
Y021777D01*
X051623Y0216D02*
X051977D01*
X0518Y021423D02*
Y021777D01*
X050623Y0216D02*
X050977D01*
X0508Y021423D02*
Y021777D01*
X049623Y0216D02*
X049977D01*
X0498Y021423D02*
Y021777D01*
X048623Y0216D02*
X048977D01*
X0488Y021423D02*
Y021777D01*
X048623Y0276D02*
X048977D01*
X0488Y027423D02*
Y027777D01*
X049623Y0276D02*
X049977D01*
X0498Y027423D02*
Y027777D01*
X050623Y0276D02*
X050977D01*
X0508Y027423D02*
Y027777D01*
X051623Y0276D02*
X051977D01*
X0518Y027423D02*
Y027777D01*
X052623Y0276D02*
X052977D01*
X0528Y027423D02*
Y027777D01*
X053623Y0276D02*
X053977D01*
X0538Y027423D02*
Y027777D01*
X054623Y0276D02*
X054977D01*
X0548Y027423D02*
Y027777D01*
X055623Y0276D02*
X055977D01*
X0558Y027423D02*
Y027777D01*
X056623Y0276D02*
X056977D01*
X0568Y027423D02*
Y027777D01*
X057623Y0276D02*
X057977D01*
X0578Y027423D02*
Y027777D01*
X058623Y0276D02*
X058977D01*
X0588Y027423D02*
Y027777D01*
X059623Y0276D02*
X059977D01*
X0598Y027423D02*
Y027777D01*
X060623Y0276D02*
X060977D01*
X0608Y027423D02*
Y027777D01*
X061623Y0276D02*
X061977D01*
X0618Y027423D02*
Y027777D01*
X062623Y0276D02*
X062977D01*
X0628Y027423D02*
Y027777D01*
X042973Y0224D02*
X043327D01*
X04315Y022223D02*
Y022577D01*
X042973Y0234D02*
X043327D01*
X04315Y023223D02*
Y023577D01*
X042973Y0244D02*
X043327D01*
X04315Y024223D02*
Y024577D01*
X042973Y0254D02*
X043327D01*
X04315Y025223D02*
Y025577D01*
X042973Y0264D02*
X043327D01*
X04315Y026223D02*
Y026577D01*
X042973Y0274D02*
X043327D01*
X04315Y027223D02*
Y027577D01*
X042973Y0284D02*
X043327D01*
X04315Y028223D02*
Y028577D01*
X042973Y0294D02*
X043327D01*
X04315Y029223D02*
Y029577D01*
X041973Y0224D02*
X042327D01*
X04215Y022223D02*
Y022577D01*
X041973Y0234D02*
X042327D01*
X04215Y023223D02*
Y023577D01*
X041973Y0244D02*
X042327D01*
X04215Y024223D02*
Y024577D01*
X041973Y0254D02*
X042327D01*
X04215Y025223D02*
Y025577D01*
X041973Y0264D02*
X042327D01*
X04215Y026223D02*
Y026577D01*
X041973Y0274D02*
X042327D01*
X04215Y027223D02*
Y027577D01*
X041973Y0284D02*
X042327D01*
X04215Y028223D02*
Y028577D01*
X041973Y0294D02*
X042327D01*
X04215Y029223D02*
Y029577D01*
X0319Y0427D02*
X0322D01*
X03205Y04255D02*
Y04285D01*
X0319Y0437D02*
X0322D01*
X03205Y04355D02*
Y04385D01*
X0319Y0447D02*
X0322D01*
X03205Y04455D02*
Y04485D01*
X0319Y0457D02*
X0322D01*
X03205Y04555D02*
Y04585D01*
X0319Y0467D02*
X0322D01*
X03205Y04655D02*
Y04685D01*
X036459Y04D02*
X037641D01*
X03705Y039409D02*
Y040591D01*
X036459Y0464D02*
X037641D01*
X03705Y045809D02*
Y046991D01*
X0319Y0417D02*
X0322D01*
X03205Y04155D02*
Y04185D01*
X0319Y0407D02*
X0322D01*
X03205Y04055D02*
Y04085D01*
X0319Y0397D02*
X0322D01*
X03205Y03955D02*
Y03985D01*
X0348Y03185D02*
X0354D01*
X0351Y03155D02*
Y03215D01*
X034804Y025846D02*
X035404D01*
X035104Y025546D02*
Y026146D01*
X034801Y027849D02*
X035401D01*
X035101Y027549D02*
Y028149D01*
X0348Y02985D02*
X0354D01*
X0351Y02955D02*
Y03015D01*
X0348Y0504D02*
X0354D01*
X0351Y0501D02*
Y0507D01*
X0348Y0524D02*
X0354D01*
X0351Y0521D02*
Y0527D01*
X03958Y023D02*
X03992D01*
X03975Y02283D02*
Y02317D01*
X03958Y027D02*
X03992D01*
X03975Y02683D02*
Y02717D01*
X03958Y026D02*
X03992D01*
X03975Y02583D02*
Y02617D01*
X03958Y025D02*
X03992D01*
X03975Y02483D02*
Y02517D01*
X03958Y024D02*
X03992D01*
X03975Y02383D02*
Y02417D01*
X03958Y022D02*
X03992D01*
X03975Y02183D02*
Y02217D01*
X03958Y03125D02*
X03992D01*
X03975Y03108D02*
Y03142D01*
X03958Y03525D02*
X03992D01*
X03975Y03508D02*
Y03542D01*
X03958Y03425D02*
X03992D01*
X03975Y03408D02*
Y03442D01*
X03958Y03325D02*
X03992D01*
X03975Y03308D02*
Y03342D01*
X03958Y03225D02*
X03992D01*
X03975Y03208D02*
Y03242D01*
X03958Y03025D02*
X03992D01*
X03975Y03008D02*
Y03042D01*
X03958Y05D02*
X03992D01*
X03975Y04983D02*
Y05017D01*
X03958Y051D02*
X03992D01*
X03975Y05083D02*
Y05117D01*
X03958Y052D02*
X03992D01*
X03975Y05183D02*
Y05217D01*
X03958Y053D02*
X03992D01*
X03975Y05283D02*
Y05317D01*
X039073Y042D02*
X039427D01*
X03925Y041823D02*
Y042177D01*
X039073Y041D02*
X039427D01*
X03925Y040823D02*
Y041177D01*
X039073Y04D02*
X039427D01*
X03925Y039823D02*
Y040177D01*
X039073Y039D02*
X039427D01*
X03925Y038823D02*
Y039177D01*
X039073Y038D02*
X039427D01*
X03925Y037823D02*
Y038177D01*
X040073Y042D02*
X040427D01*
X04025Y041823D02*
Y042177D01*
X040073Y041D02*
X040427D01*
X04025Y040823D02*
Y041177D01*
X040073Y04D02*
X040427D01*
X04025Y039823D02*
Y040177D01*
X040073Y039D02*
X040427D01*
X04025Y038823D02*
Y039177D01*
X040073Y038D02*
X040427D01*
X04025Y037823D02*
Y038177D01*
X054782Y03085D02*
X055018D01*
X0549Y030732D02*
Y030968D01*
X054782Y03195D02*
X055018D01*
X0549Y031832D02*
Y032068D01*
X064532Y0205D02*
X064768D01*
X06465Y020382D02*
Y020618D01*
X065482Y02075D02*
X065718D01*
X0656Y020632D02*
Y020868D01*
X048682Y02245D02*
X048918D01*
X0488Y022332D02*
Y022568D01*
X049632Y0188D02*
X049868D01*
X04975Y018682D02*
Y018918D01*
X056732Y0246D02*
X056968D01*
X05685Y024482D02*
Y024718D01*
X049132Y0183D02*
X049368D01*
X04925Y018182D02*
Y018418D01*
X040732Y02775D02*
X040968D01*
X04085Y027632D02*
Y027868D01*
X040282Y0284D02*
X040518D01*
X0404Y028282D02*
Y028518D01*
X039682Y029D02*
X039918D01*
X0398Y028882D02*
Y029118D01*
X053782Y02885D02*
X054018D01*
X0539Y028732D02*
Y028968D01*
X052882Y02885D02*
X053118D01*
X053Y028732D02*
Y028968D01*
X055282Y02945D02*
X055518D01*
X0554Y029332D02*
Y029568D01*
X056182Y02945D02*
X056418D01*
X0563Y029332D02*
Y029568D01*
M02*
