G04*
G04 #@! TF.GenerationSoftware,Altium Limited,Altium Designer,19.1.7 (138)*
G04*
G04 Layer_Color=32896*
%FSTAX24Y24*%
%MOIN*%
G70*
G01*
G75*
%ADD12C,0.0050*%
%ADD13C,0.0070*%
%ADD46C,0.0094*%
G36*
X0624Y05475D02*
X06265Y055D01*
Y05485D01*
X0629D01*
Y05465D01*
X06265D01*
Y0545D01*
X0624Y05475D01*
D02*
G37*
D12*
X064701Y057478D02*
X066D01*
X061161D02*
X064701D01*
X054626D02*
X061161D01*
X04998D02*
X054626D01*
X045D02*
X04998D01*
X045Y017478D02*
Y057478D01*
Y017478D02*
X066D01*
Y057478D01*
X04998D02*
Y059978D01*
X054626D01*
Y057478D02*
Y059978D01*
X064701Y057478D02*
Y05819D01*
X061161D02*
X064701D01*
X061161Y057478D02*
Y05819D01*
D13*
X0625Y0568D02*
X0628D01*
X0661Y0535D02*
X06665D01*
X0661D02*
Y05405D01*
X06665D01*
X0661Y0555D02*
X06665D01*
X0661D02*
Y05605D01*
X06665D01*
Y05275D02*
Y05675D01*
X0628Y05275D02*
X06665D01*
X06165Y05675D02*
X06665D01*
X06165Y05275D02*
Y05673D01*
X0625Y05275D02*
Y05285D01*
X0628D01*
Y05275D02*
Y05285D01*
X06165Y05275D02*
X0625D01*
D46*
X066335Y046458D02*
G03*
X066335Y046458I-000047J0D01*
G01*
M02*
