G04*
G04 #@! TF.GenerationSoftware,Altium Limited,Altium Designer,19.1.7 (138)*
G04*
G04 Layer_Physical_Order=2*
G04 Layer_Color=16711680*
%FSTAX24Y24*%
%MOIN*%
G70*
G01*
G75*
%ADD29C,0.0118*%
%ADD30C,0.0236*%
%ADD32R,0.0535X0.0535*%
%ADD33C,0.0535*%
%ADD34C,0.1260*%
%ADD35O,0.1200X0.1100*%
%ADD36C,0.1496*%
%ADD37R,0.0600X0.0600*%
%ADD38C,0.0600*%
%ADD39C,0.0709*%
%ADD40R,0.0709X0.0709*%
%ADD41R,0.0591X0.0591*%
%ADD42C,0.0591*%
%ADD43O,0.0900X0.0750*%
%ADD44R,0.0900X0.0750*%
%ADD45C,0.0500*%
G36*
X0667Y01755D02*
X0309D01*
Y05675D01*
X0667D01*
Y01755D01*
D02*
G37*
%LPC*%
G36*
X0627Y056403D02*
D01*
Y0558D01*
X063348D01*
X063341Y055877D01*
X063303Y056D01*
X063243Y056113D01*
X063162Y056212D01*
X063063Y056293D01*
X06295Y056353D01*
X062827Y056391D01*
X0627Y056403D01*
D02*
G37*
G36*
X0626D02*
X062473Y056391D01*
X06235Y056353D01*
X062237Y056293D01*
X062138Y056212D01*
X062057Y056113D01*
X061997Y056D01*
X061959Y055877D01*
X061952Y0558D01*
X0626D01*
Y056403D01*
D02*
G37*
G36*
Y0557D02*
X061952D01*
X061959Y055623D01*
X061997Y0555D01*
X062057Y055387D01*
X062138Y055288D01*
X062237Y055207D01*
X06235Y055147D01*
X062473Y055109D01*
X0626Y055097D01*
D01*
Y0557D01*
D02*
G37*
G36*
X0627Y054403D02*
X0626D01*
X062473Y054391D01*
X06235Y054353D01*
X062237Y054293D01*
X062138Y054212D01*
X062057Y054113D01*
X061997Y054D01*
X061959Y053877D01*
X061947Y05375D01*
X061959Y053623D01*
X061997Y0535D01*
X062057Y053387D01*
X062138Y053288D01*
X062237Y053207D01*
X06235Y053147D01*
X062473Y053109D01*
X0626Y053097D01*
X0627D01*
X062827Y053109D01*
X06295Y053147D01*
X063063Y053207D01*
X063162Y053288D01*
X063243Y053387D01*
X063303Y0535D01*
X063341Y053623D01*
X063353Y05375D01*
X063341Y053877D01*
X063303Y054D01*
X063243Y054113D01*
X063162Y054212D01*
X063063Y054293D01*
X06295Y054353D01*
X062827Y054391D01*
X0627Y054403D01*
D02*
G37*
G36*
X03505Y053053D02*
X034923Y053041D01*
X0348Y053003D01*
X034687Y052943D01*
X034588Y052862D01*
X034507Y052763D01*
X034447Y05265D01*
X034409Y052527D01*
X034402Y05245D01*
X03505D01*
Y053053D01*
D02*
G37*
G36*
X063348Y0557D02*
X0627D01*
Y055097D01*
X062827Y055109D01*
X06295Y055147D01*
X062975Y05516D01*
X065678Y052458D01*
Y052361D01*
X065629Y052349D01*
X06561Y052385D01*
X065519Y052496D01*
X065407Y052587D01*
X065281Y052655D01*
X065143Y052697D01*
X065Y052711D01*
X064857Y052697D01*
X064719Y052655D01*
X064593Y052587D01*
X064481Y052496D01*
X06439Y052385D01*
X064322Y052258D01*
X064281Y052121D01*
X064267Y051978D01*
X064281Y051834D01*
X064322Y051697D01*
X06439Y05157D01*
X064481Y051459D01*
X064593Y051368D01*
X064719Y0513D01*
X064857Y051258D01*
X065Y051244D01*
X065143Y051258D01*
X065281Y0513D01*
X065407Y051368D01*
X065519Y051459D01*
X06561Y05157D01*
X065629Y051606D01*
X065678Y051594D01*
Y04247D01*
X06505Y041842D01*
Y041528D01*
X065364D01*
X066057Y04222D01*
X066057Y04222D01*
X066105Y042292D01*
X066122Y042378D01*
X066122Y042378D01*
Y05255D01*
X066105Y052635D01*
X066057Y052707D01*
X066057Y052707D01*
X06329Y055475D01*
X063303Y0555D01*
X063341Y055623D01*
X063348Y0557D01*
D02*
G37*
G36*
X03505Y05235D02*
X034402D01*
X034409Y052273D01*
X034447Y05215D01*
X03446Y052125D01*
X031038Y048703D01*
X03099Y048631D01*
X030973Y048546D01*
X030973Y048546D01*
Y027304D01*
X030973Y027304D01*
X03099Y027219D01*
X031038Y027147D01*
X035343Y022843D01*
X035343Y022843D01*
X035415Y022795D01*
X0355Y022778D01*
X0355Y022778D01*
X039253D01*
X03926Y02276D01*
X039336Y022661D01*
X039435Y022585D01*
X039551Y022537D01*
X039642Y022525D01*
Y022475D01*
X039551Y022463D01*
X039435Y022415D01*
X039336Y022339D01*
X03926Y02224D01*
X039212Y022124D01*
X039196Y022D01*
X039212Y021876D01*
X03926Y02176D01*
X039336Y021661D01*
X039435Y021585D01*
X039551Y021537D01*
X039675Y021521D01*
X039825D01*
X039949Y021537D01*
X040065Y021585D01*
X040164Y021661D01*
X04024Y02176D01*
X040288Y021876D01*
X040304Y022D01*
X040288Y022124D01*
X04024Y02224D01*
X040164Y022339D01*
X040065Y022415D01*
X039949Y022463D01*
X039858Y022475D01*
Y022525D01*
X039949Y022537D01*
X040065Y022585D01*
X040164Y022661D01*
X04024Y02276D01*
X040288Y022876D01*
X040298Y02295D01*
X03975D01*
Y02305D01*
X040298D01*
X040288Y023124D01*
X04024Y02324D01*
X040164Y023339D01*
X040065Y023415D01*
X039949Y023463D01*
X039858Y023475D01*
Y023525D01*
X039949Y023537D01*
X040065Y023585D01*
X040164Y023661D01*
X04024Y02376D01*
X040288Y023876D01*
X040304Y024D01*
X040288Y024124D01*
X04024Y02424D01*
X040164Y024339D01*
X040065Y024415D01*
X039949Y024463D01*
X039858Y024475D01*
Y024525D01*
X039949Y024537D01*
X040065Y024585D01*
X040164Y024661D01*
X04024Y02476D01*
X040288Y024876D01*
X040304Y025D01*
X040288Y025124D01*
X040256Y025201D01*
X04181Y026756D01*
X041845Y026809D01*
X041858Y026871D01*
Y027063D01*
X041908Y027088D01*
X041951Y027055D01*
X042047Y027015D01*
X04215Y027001D01*
X042253Y027015D01*
X04229Y02703D01*
X042488Y026833D01*
Y026687D01*
X04244Y026671D01*
X042432Y026682D01*
X042349Y026745D01*
X042253Y026785D01*
X04215Y026799D01*
X042047Y026785D01*
X041951Y026745D01*
X041868Y026682D01*
X041805Y026599D01*
X041765Y026503D01*
X041751Y0264D01*
X041765Y026297D01*
X041805Y026201D01*
X041868Y026118D01*
X041951Y026055D01*
X042047Y026015D01*
X04215Y026001D01*
X042253Y026015D01*
X042349Y026055D01*
X042432Y026118D01*
X04244Y026129D01*
X042488Y026113D01*
Y025967D01*
X04229Y02577D01*
X042253Y025785D01*
X04215Y025799D01*
X042047Y025785D01*
X041951Y025745D01*
X041868Y025682D01*
X041805Y025599D01*
X041765Y025503D01*
X041751Y0254D01*
X041765Y025297D01*
X041805Y025201D01*
X041868Y025118D01*
X041951Y025055D01*
X042047Y025015D01*
X04215Y025001D01*
X042253Y025015D01*
X04229Y02503D01*
X042488Y024833D01*
Y024687D01*
X04244Y024671D01*
X042432Y024682D01*
X042349Y024745D01*
X042253Y024785D01*
X04215Y024799D01*
X042047Y024785D01*
X041951Y024745D01*
X041868Y024682D01*
X041805Y024599D01*
X041765Y024503D01*
X041751Y0244D01*
X041765Y024297D01*
X041805Y024201D01*
X041868Y024118D01*
X041951Y024055D01*
X042047Y024015D01*
X04215Y024001D01*
X042253Y024015D01*
X042349Y024055D01*
X042432Y024118D01*
X04244Y024129D01*
X042488Y024113D01*
Y023967D01*
X04229Y02377D01*
X042253Y023785D01*
X04215Y023799D01*
X042047Y023785D01*
X041951Y023745D01*
X041868Y023682D01*
X041805Y023599D01*
X041765Y023503D01*
X041751Y0234D01*
X041765Y023297D01*
X041805Y023201D01*
X041868Y023118D01*
X041951Y023055D01*
X042047Y023015D01*
X04215Y023001D01*
X042253Y023015D01*
X042349Y023055D01*
X042432Y023118D01*
X042495Y023201D01*
X042535Y023297D01*
X042549Y0234D01*
X042535Y023503D01*
X04252Y02354D01*
X042765Y023785D01*
X0428Y023838D01*
X042812Y0239D01*
Y024113D01*
X04286Y024129D01*
X042868Y024118D01*
X042951Y024055D01*
X043047Y024015D01*
X04315Y024001D01*
X043253Y024015D01*
X043349Y024055D01*
X043432Y024118D01*
X043495Y024201D01*
X043535Y024297D01*
X043549Y0244D01*
X043535Y024503D01*
X04352Y02454D01*
X044721Y025742D01*
X045677D01*
X045701Y025692D01*
X045679Y025663D01*
X045642Y025573D01*
X04563Y025478D01*
X045642Y025382D01*
X045679Y025292D01*
X045738Y025216D01*
X045746Y02521D01*
X04573Y025162D01*
X04475D01*
X044688Y02515D01*
X044635Y025115D01*
X04329Y02377D01*
X043253Y023785D01*
X04315Y023799D01*
X043047Y023785D01*
X042951Y023745D01*
X042868Y023682D01*
X042805Y023599D01*
X042765Y023503D01*
X042751Y0234D01*
X042765Y023297D01*
X042805Y023201D01*
X042868Y023118D01*
X042951Y023055D01*
X043047Y023015D01*
X04315Y023001D01*
X043253Y023015D01*
X043349Y023055D01*
X043432Y023118D01*
X043495Y023201D01*
X043535Y023297D01*
X043549Y0234D01*
X043535Y023503D01*
X04352Y02354D01*
X044817Y024838D01*
X045784D01*
X045801Y024788D01*
X045738Y02474D01*
X045679Y024663D01*
X045642Y024573D01*
X04563Y024478D01*
X045642Y024382D01*
X045679Y024292D01*
X045701Y024263D01*
X045677Y024213D01*
X044801D01*
X044739Y024201D01*
X044687Y024166D01*
X043316Y022795D01*
X042755D01*
Y022005D01*
X043545D01*
Y022566D01*
X044868Y023889D01*
X045928D01*
X045931Y023839D01*
X045904Y023835D01*
X045815Y023798D01*
X045738Y02374D01*
X045679Y023663D01*
X045642Y023573D01*
X04563Y023478D01*
X045642Y023382D01*
X045679Y023292D01*
X045738Y023216D01*
X045815Y023157D01*
X045904Y02312D01*
X046Y023107D01*
X046096Y02312D01*
X046185Y023157D01*
X046262Y023216D01*
X046321Y023292D01*
X046358Y023382D01*
X04637Y023478D01*
X046358Y023573D01*
X046321Y023663D01*
X046262Y02374D01*
X046185Y023798D01*
X046096Y023835D01*
X046069Y023839D01*
X046072Y023889D01*
X049282D01*
X051385Y021786D01*
X051357Y021719D01*
X051342Y0216D01*
X051357Y021481D01*
X051403Y021371D01*
X051476Y021276D01*
X051571Y021203D01*
X051681Y021157D01*
X0518Y021142D01*
X051919Y021157D01*
X052029Y021203D01*
X052124Y021276D01*
X052197Y021371D01*
X052243Y021481D01*
X052258Y0216D01*
X052243Y021719D01*
X052197Y021829D01*
X052124Y021924D01*
X052029Y021997D01*
X051919Y022043D01*
X0518Y022058D01*
X051681Y022043D01*
X051614Y022015D01*
X049463Y024166D01*
X049411Y024201D01*
X049349Y024213D01*
X046323D01*
X046299Y024263D01*
X046321Y024292D01*
X046358Y024382D01*
X04637Y024478D01*
X046358Y024573D01*
X046321Y024663D01*
X046262Y02474D01*
X046199Y024788D01*
X046216Y024838D01*
X049333D01*
X052385Y021786D01*
X052357Y021719D01*
X052342Y0216D01*
X052357Y021481D01*
X052403Y021371D01*
X052476Y021276D01*
X052571Y021203D01*
X052681Y021157D01*
X0528Y021142D01*
X052919Y021157D01*
X053029Y021203D01*
X053124Y021276D01*
X053197Y021371D01*
X053243Y021481D01*
X053258Y0216D01*
X053243Y021719D01*
X053197Y021829D01*
X053124Y021924D01*
X053029Y021997D01*
X052919Y022043D01*
X0528Y022058D01*
X052681Y022043D01*
X052614Y022015D01*
X049588Y025042D01*
X049607Y025088D01*
X050083D01*
X053385Y021786D01*
X053357Y021719D01*
X053342Y0216D01*
X053357Y021481D01*
X053403Y021371D01*
X053476Y021276D01*
X053571Y021203D01*
X053681Y021157D01*
X0538Y021142D01*
X053919Y021157D01*
X054029Y021203D01*
X054124Y021276D01*
X054197Y021371D01*
X054243Y021481D01*
X054258Y0216D01*
X054243Y021719D01*
X054197Y021829D01*
X054124Y021924D01*
X054029Y021997D01*
X053919Y022043D01*
X0538Y022058D01*
X053681Y022043D01*
X053614Y022015D01*
X050338Y025292D01*
X050357Y025338D01*
X050833D01*
X054385Y021786D01*
X054357Y021719D01*
X054342Y0216D01*
X054357Y021481D01*
X054403Y021371D01*
X054476Y021276D01*
X054571Y021203D01*
X054681Y021157D01*
X0548Y021142D01*
X054919Y021157D01*
X055029Y021203D01*
X055124Y021276D01*
X055197Y021371D01*
X055243Y021481D01*
X055258Y0216D01*
X055243Y021719D01*
X055197Y021829D01*
X055124Y021924D01*
X055029Y021997D01*
X054919Y022043D01*
X0548Y022058D01*
X054681Y022043D01*
X054614Y022015D01*
X051088Y025542D01*
X051107Y025588D01*
X051583D01*
X055385Y021786D01*
X055357Y021719D01*
X055342Y0216D01*
X055357Y021481D01*
X055403Y021371D01*
X055476Y021276D01*
X055571Y021203D01*
X055681Y021157D01*
X0558Y021142D01*
X055919Y021157D01*
X056029Y021203D01*
X056124Y021276D01*
X056197Y021371D01*
X056243Y021481D01*
X056258Y0216D01*
X056243Y021719D01*
X056197Y021829D01*
X056124Y021924D01*
X056029Y021997D01*
X055919Y022043D01*
X0558Y022058D01*
X055681Y022043D01*
X055614Y022015D01*
X05187Y02576D01*
X051889Y025806D01*
X052365D01*
X056385Y021786D01*
X056357Y021719D01*
X056342Y0216D01*
X056357Y021481D01*
X056403Y021371D01*
X056476Y021276D01*
X056571Y021203D01*
X056681Y021157D01*
X0568Y021142D01*
X056919Y021157D01*
X057029Y021203D01*
X057124Y021276D01*
X057197Y021371D01*
X057243Y021481D01*
X057258Y0216D01*
X057243Y021719D01*
X057197Y021829D01*
X057124Y021924D01*
X057029Y021997D01*
X056919Y022043D01*
X0568Y022058D01*
X056681Y022043D01*
X056614Y022015D01*
X052651Y025978D01*
X052671Y026024D01*
X05323D01*
X057413Y021842D01*
X057403Y021829D01*
X057357Y021719D01*
X057342Y0216D01*
X057357Y021481D01*
X057403Y021371D01*
X057476Y021276D01*
X057571Y021203D01*
X057681Y021157D01*
X0578Y021142D01*
X057919Y021157D01*
X058029Y021203D01*
X058124Y021276D01*
X058197Y021371D01*
X058243Y021481D01*
X058254Y021571D01*
X058307Y021589D01*
X058349Y021548D01*
X058357Y021481D01*
X058403Y021371D01*
X058476Y021276D01*
X058571Y021203D01*
X058681Y021157D01*
X0588Y021142D01*
X058919Y021157D01*
X059029Y021203D01*
X059124Y021276D01*
X059197Y021371D01*
X059243Y021481D01*
X059258Y0216D01*
X059243Y021719D01*
X059197Y021829D01*
X059124Y021924D01*
X059029Y021997D01*
X05893Y022038D01*
X05894Y022088D01*
X05966D01*
X05967Y022038D01*
X059571Y021997D01*
X059476Y021924D01*
X059403Y021829D01*
X059357Y021719D01*
X059342Y0216D01*
X059357Y021481D01*
X059403Y021371D01*
X059476Y021276D01*
X059571Y021203D01*
X059681Y021157D01*
X0598Y021142D01*
X059919Y021157D01*
X060029Y021203D01*
X060124Y021276D01*
X060197Y021371D01*
X060243Y021481D01*
X060258Y0216D01*
X060243Y021719D01*
X060197Y021829D01*
X060124Y021924D01*
X060029Y021997D01*
X05993Y022038D01*
X05994Y022088D01*
X06066D01*
X06067Y022038D01*
X060571Y021997D01*
X060476Y021924D01*
X060403Y021829D01*
X060357Y021719D01*
X060342Y0216D01*
X060357Y021481D01*
X060403Y021371D01*
X060476Y021276D01*
X060571Y021203D01*
X060681Y021157D01*
X0608Y021142D01*
X060919Y021157D01*
X061029Y021203D01*
X061124Y021276D01*
X061197Y021371D01*
X061243Y021481D01*
X061258Y0216D01*
X061243Y021719D01*
X061197Y021829D01*
X061124Y021924D01*
X061029Y021997D01*
X06093Y022038D01*
X06094Y022088D01*
X06166D01*
X06167Y022038D01*
X061571Y021997D01*
X061476Y021924D01*
X061403Y021829D01*
X061357Y021719D01*
X061342Y0216D01*
X061357Y021481D01*
X061403Y021371D01*
X061476Y021276D01*
X061571Y021203D01*
X061681Y021157D01*
X0618Y021142D01*
X061919Y021157D01*
X062029Y021203D01*
X062124Y021276D01*
X062197Y021371D01*
X062243Y021481D01*
X062258Y0216D01*
X062243Y021719D01*
X062197Y021829D01*
X062124Y021924D01*
X062029Y021997D01*
X06193Y022038D01*
X06194Y022088D01*
X06266D01*
X06267Y022038D01*
X062571Y021997D01*
X062476Y021924D01*
X062403Y021829D01*
X062357Y021719D01*
X062342Y0216D01*
X062357Y021481D01*
X062403Y021371D01*
X062476Y021276D01*
X062571Y021203D01*
X062681Y021157D01*
X0628Y021142D01*
X062919Y021157D01*
X063029Y021203D01*
X063124Y021276D01*
X063197Y021371D01*
X063214Y021413D01*
X063264Y021403D01*
Y020801D01*
X063214Y020776D01*
X063185Y020798D01*
X063096Y020835D01*
X063Y020848D01*
X062904Y020835D01*
X062815Y020798D01*
X062738Y02074D01*
X062679Y020663D01*
X062642Y020573D01*
X06263Y020478D01*
X062642Y020382D01*
X062679Y020292D01*
X062738Y020216D01*
X062815Y020157D01*
X062904Y02012D01*
X063Y020107D01*
X063096Y02012D01*
X063185Y020157D01*
X063214Y020179D01*
X063264Y020154D01*
Y019801D01*
X063214Y019776D01*
X063185Y019798D01*
X063096Y019835D01*
X063Y019848D01*
X062904Y019835D01*
X062815Y019798D01*
X062738Y01974D01*
X062679Y019663D01*
X062642Y019573D01*
X06263Y019478D01*
X062642Y019382D01*
X062679Y019292D01*
X062738Y019216D01*
X062815Y019157D01*
X062904Y01912D01*
X063Y019107D01*
X063041Y019112D01*
X063064Y019065D01*
X062588Y018589D01*
X059118D01*
X058348Y019359D01*
X058358Y019382D01*
X05837Y019478D01*
X058358Y019573D01*
X058321Y019663D01*
X058262Y01974D01*
X058185Y019798D01*
X058096Y019835D01*
X058Y019848D01*
X057904Y019835D01*
X057815Y019798D01*
X057738Y01974D01*
X057679Y019663D01*
X057642Y019573D01*
X05763Y019478D01*
X057642Y019382D01*
X057679Y019292D01*
X057738Y019216D01*
X057815Y019157D01*
X057904Y01912D01*
X058Y019107D01*
X058096Y01912D01*
X058119Y019129D01*
X058832Y018417D01*
X058812Y01837D01*
X058336D01*
X057348Y019359D01*
X057358Y019382D01*
X05737Y019478D01*
X057358Y019573D01*
X057321Y019663D01*
X057262Y01974D01*
X057185Y019798D01*
X057096Y019835D01*
X057Y019848D01*
X056904Y019835D01*
X056815Y019798D01*
X056738Y01974D01*
X056679Y019663D01*
X056642Y019573D01*
X05663Y019478D01*
X056642Y019382D01*
X056679Y019292D01*
X056738Y019216D01*
X056815Y019157D01*
X056904Y01912D01*
X057Y019107D01*
X057096Y01912D01*
X057119Y019129D01*
X05805Y018199D01*
X058031Y018152D01*
X057555D01*
X056348Y019359D01*
X056358Y019382D01*
X05637Y019478D01*
X056358Y019573D01*
X056321Y019663D01*
X056262Y01974D01*
X056185Y019798D01*
X056096Y019835D01*
X056Y019848D01*
X055904Y019835D01*
X055815Y019798D01*
X055738Y01974D01*
X055679Y019663D01*
X055642Y019573D01*
X05563Y019478D01*
X055642Y019382D01*
X055679Y019292D01*
X055738Y019216D01*
X055815Y019157D01*
X055904Y01912D01*
X056Y019107D01*
X056096Y01912D01*
X056119Y019129D01*
X057268Y01798D01*
X057249Y017934D01*
X056773D01*
X055348Y019359D01*
X055358Y019382D01*
X05537Y019478D01*
X055358Y019573D01*
X055321Y019663D01*
X055262Y01974D01*
X055185Y019798D01*
X055096Y019835D01*
X055Y019848D01*
X054904Y019835D01*
X054815Y019798D01*
X054738Y01974D01*
X054679Y019663D01*
X054642Y019573D01*
X05463Y019478D01*
X054642Y019382D01*
X054679Y019292D01*
X054738Y019216D01*
X054815Y019157D01*
X054904Y01912D01*
X055Y019107D01*
X055096Y01912D01*
X055119Y019129D01*
X056591Y017657D01*
X056643Y017622D01*
X056706Y01761D01*
X062926D01*
X062988Y017622D01*
X063041Y017657D01*
X064195Y018812D01*
X064231Y018865D01*
X064243Y018927D01*
Y019287D01*
X064293Y019294D01*
X064322Y019197D01*
X06439Y01907D01*
X064481Y018959D01*
X064593Y018868D01*
X064719Y0188D01*
X064857Y018758D01*
X065Y018744D01*
X065143Y018758D01*
X065281Y0188D01*
X065407Y018868D01*
X065519Y018959D01*
X06561Y01907D01*
X065678Y019197D01*
X065719Y019334D01*
X065733Y019478D01*
X065719Y019621D01*
X065678Y019758D01*
X06561Y019885D01*
X065519Y019996D01*
X065407Y020087D01*
X065281Y020155D01*
X065143Y020197D01*
X065Y020211D01*
X06492Y020203D01*
X064901Y020247D01*
X0649Y020251D01*
X064956Y020323D01*
X064991Y020409D01*
X065003Y0205D01*
X064991Y020591D01*
X064956Y020677D01*
X0649Y02075D01*
X064827Y020806D01*
X064741Y020841D01*
X064736Y020842D01*
Y021254D01*
X064786Y021279D01*
X064815Y021257D01*
X064904Y02122D01*
X065Y021207D01*
X065096Y02122D01*
X065185Y021257D01*
X065262Y021316D01*
X065321Y021392D01*
X065328Y021409D01*
X065378Y021399D01*
Y021021D01*
X06535Y021D01*
X065294Y020927D01*
X065259Y020841D01*
X065247Y02075D01*
X065259Y020659D01*
X065294Y020573D01*
X06535Y0205D01*
X065423Y020444D01*
X065509Y020409D01*
X0656Y020397D01*
X065691Y020409D01*
X065777Y020444D01*
X06585Y0205D01*
X065906Y020573D01*
X065941Y020659D01*
X065953Y02075D01*
X065941Y020841D01*
X065906Y020927D01*
X06585Y021D01*
X065822Y021021D01*
Y021491D01*
X065822Y038878D01*
X065822Y038878D01*
X065805Y038963D01*
X065757Y039035D01*
X065757Y039035D01*
X065364Y039428D01*
X06537Y039478D01*
X065358Y039573D01*
X065321Y039663D01*
X065262Y03974D01*
X065185Y039798D01*
X065096Y039835D01*
X065Y039848D01*
X064951Y039842D01*
X064385Y040407D01*
X064313Y040455D01*
X064228Y040472D01*
X064228Y040472D01*
X044742D01*
X043057Y042157D01*
X042985Y042205D01*
X0429Y042222D01*
X0429Y042222D01*
X040578D01*
X040532Y042282D01*
X040449Y042345D01*
X040353Y042385D01*
X04025Y042399D01*
X040147Y042385D01*
X040051Y042345D01*
X039968Y042282D01*
X039922Y042222D01*
X039645D01*
Y042395D01*
X038855D01*
Y041605D01*
X039645D01*
Y041778D01*
X039922D01*
X039968Y041718D01*
X040051Y041655D01*
X040147Y041615D01*
X04025Y041601D01*
X040353Y041615D01*
X040449Y041655D01*
X040532Y041718D01*
X040578Y041778D01*
X042808D01*
X044493Y040093D01*
X044493Y040093D01*
X044565Y040045D01*
X04465Y040028D01*
X04465Y040028D01*
X064135D01*
X064636Y039527D01*
X06463Y039478D01*
X064642Y039382D01*
X064679Y039292D01*
X064738Y039216D01*
X064815Y039157D01*
X064904Y03912D01*
X065Y039107D01*
X065049Y039114D01*
X065378Y038785D01*
Y037656D01*
X065328Y037646D01*
X065321Y037663D01*
X065262Y03774D01*
X065185Y037798D01*
X065096Y037835D01*
X065Y037848D01*
X064904Y037835D01*
X064815Y037798D01*
X064738Y03774D01*
X064679Y037663D01*
X064642Y037573D01*
X06463Y037478D01*
X064642Y037382D01*
X064679Y037292D01*
X064738Y037216D01*
X064815Y037157D01*
X064904Y03712D01*
X065Y037107D01*
X065096Y03712D01*
X065185Y037157D01*
X065262Y037216D01*
X065321Y037292D01*
X065328Y037309D01*
X065378Y037299D01*
Y036656D01*
X065328Y036646D01*
X065321Y036663D01*
X065262Y03674D01*
X065185Y036798D01*
X065096Y036835D01*
X065Y036848D01*
X064904Y036835D01*
X064815Y036798D01*
X064738Y03674D01*
X064679Y036663D01*
X064642Y036573D01*
X06463Y036478D01*
X064642Y036382D01*
X064679Y036292D01*
X064738Y036216D01*
X064815Y036157D01*
X064904Y03612D01*
X065Y036107D01*
X065096Y03612D01*
X065185Y036157D01*
X065262Y036216D01*
X065321Y036292D01*
X065328Y036309D01*
X065378Y036299D01*
Y035656D01*
X065328Y035646D01*
X065321Y035663D01*
X065262Y03574D01*
X065185Y035798D01*
X065096Y035835D01*
X065Y035848D01*
X064904Y035835D01*
X064815Y035798D01*
X064738Y03574D01*
X064679Y035663D01*
X064642Y035573D01*
X06463Y035478D01*
X064642Y035382D01*
X064679Y035292D01*
X064738Y035216D01*
X064815Y035157D01*
X064904Y03512D01*
X065Y035107D01*
X065096Y03512D01*
X065185Y035157D01*
X065262Y035216D01*
X065321Y035292D01*
X065328Y035309D01*
X065378Y035299D01*
Y034656D01*
X065328Y034646D01*
X065321Y034663D01*
X065262Y03474D01*
X065185Y034798D01*
X065096Y034835D01*
X065Y034848D01*
X064904Y034835D01*
X064815Y034798D01*
X064738Y03474D01*
X064679Y034663D01*
X064642Y034573D01*
X06463Y034478D01*
X064642Y034382D01*
X064679Y034292D01*
X064738Y034216D01*
X064815Y034157D01*
X064904Y03412D01*
X065Y034107D01*
X065096Y03412D01*
X065185Y034157D01*
X065262Y034216D01*
X065321Y034292D01*
X065328Y034309D01*
X065378Y034299D01*
Y033656D01*
X065328Y033646D01*
X065321Y033663D01*
X065262Y03374D01*
X065185Y033798D01*
X065096Y033835D01*
X065Y033848D01*
X064904Y033835D01*
X064815Y033798D01*
X064738Y03374D01*
X064679Y033663D01*
X064642Y033573D01*
X06463Y033478D01*
X064642Y033382D01*
X064679Y033292D01*
X064738Y033216D01*
X064815Y033157D01*
X064904Y03312D01*
X065Y033107D01*
X065096Y03312D01*
X065185Y033157D01*
X065262Y033216D01*
X065321Y033292D01*
X065328Y033309D01*
X065378Y033299D01*
Y032656D01*
X065328Y032646D01*
X065321Y032663D01*
X065262Y03274D01*
X065185Y032798D01*
X065096Y032835D01*
X065Y032848D01*
X064904Y032835D01*
X064815Y032798D01*
X064738Y03274D01*
X064679Y032663D01*
X064642Y032573D01*
X06463Y032478D01*
X064642Y032382D01*
X064679Y032292D01*
X064738Y032216D01*
X064815Y032157D01*
X064904Y03212D01*
X065Y032107D01*
X065096Y03212D01*
X065185Y032157D01*
X065262Y032216D01*
X065321Y032292D01*
X065328Y032309D01*
X065378Y032299D01*
Y031656D01*
X065328Y031646D01*
X065321Y031663D01*
X065262Y03174D01*
X065185Y031798D01*
X065096Y031835D01*
X065Y031848D01*
X064904Y031835D01*
X064815Y031798D01*
X064738Y03174D01*
X064679Y031663D01*
X064642Y031573D01*
X06463Y031478D01*
X064642Y031382D01*
X064679Y031292D01*
X064738Y031216D01*
X064815Y031157D01*
X064904Y03112D01*
X065Y031107D01*
X065096Y03112D01*
X065185Y031157D01*
X065262Y031216D01*
X065321Y031292D01*
X065328Y031309D01*
X065378Y031299D01*
Y030656D01*
X065328Y030646D01*
X065321Y030663D01*
X065262Y03074D01*
X065185Y030798D01*
X065096Y030835D01*
X065Y030848D01*
X064904Y030835D01*
X064815Y030798D01*
X064738Y03074D01*
X064679Y030663D01*
X064642Y030573D01*
X06463Y030478D01*
X064642Y030382D01*
X064679Y030292D01*
X064738Y030216D01*
X064815Y030157D01*
X064904Y03012D01*
X065Y030107D01*
X065096Y03012D01*
X065185Y030157D01*
X065262Y030216D01*
X065321Y030292D01*
X065328Y030309D01*
X065378Y030299D01*
X065378Y028656D01*
X065328Y028646D01*
X065321Y028663D01*
X065262Y02874D01*
X065185Y028798D01*
X065096Y028835D01*
X065Y028848D01*
X064904Y028835D01*
X064815Y028798D01*
X064738Y02874D01*
X064679Y028663D01*
X064642Y028573D01*
X06463Y028478D01*
X064642Y028382D01*
X064679Y028292D01*
X064738Y028216D01*
X064815Y028157D01*
X064904Y02812D01*
X065Y028107D01*
X065096Y02812D01*
X065185Y028157D01*
X065262Y028216D01*
X065321Y028292D01*
X065328Y028309D01*
X065378Y028299D01*
Y027656D01*
X065328Y027646D01*
X065321Y027663D01*
X065262Y02774D01*
X065185Y027798D01*
X065096Y027835D01*
X065Y027848D01*
X064904Y027835D01*
X064815Y027798D01*
X064738Y02774D01*
X064679Y027663D01*
X064642Y027573D01*
X06463Y027478D01*
X064642Y027382D01*
X064679Y027292D01*
X064738Y027216D01*
X064815Y027157D01*
X064904Y02712D01*
X065Y027107D01*
X065096Y02712D01*
X065185Y027157D01*
X065262Y027216D01*
X065321Y027292D01*
X065328Y027309D01*
X065378Y027299D01*
Y026656D01*
X065328Y026646D01*
X065321Y026663D01*
X065262Y02674D01*
X065185Y026798D01*
X065096Y026835D01*
X065Y026848D01*
X064904Y026835D01*
X064815Y026798D01*
X064738Y02674D01*
X064679Y026663D01*
X064642Y026573D01*
X06463Y026478D01*
X064642Y026382D01*
X064679Y026292D01*
X064738Y026216D01*
X064815Y026157D01*
X064904Y02612D01*
X065Y026107D01*
X065096Y02612D01*
X065185Y026157D01*
X065262Y026216D01*
X065321Y026292D01*
X065328Y026309D01*
X065378Y026299D01*
Y025656D01*
X065328Y025646D01*
X065321Y025663D01*
X065262Y02574D01*
X065185Y025798D01*
X065096Y025835D01*
X065Y025848D01*
X064904Y025835D01*
X064815Y025798D01*
X064738Y02574D01*
X064679Y025663D01*
X064642Y025573D01*
X06463Y025478D01*
X064642Y025382D01*
X064679Y025292D01*
X064738Y025216D01*
X064815Y025157D01*
X064904Y02512D01*
X065Y025107D01*
X065096Y02512D01*
X065185Y025157D01*
X065262Y025216D01*
X065321Y025292D01*
X065328Y025309D01*
X065378Y025299D01*
Y024656D01*
X065328Y024646D01*
X065321Y024663D01*
X065262Y02474D01*
X065185Y024798D01*
X065096Y024835D01*
X065Y024848D01*
X064904Y024835D01*
X064815Y024798D01*
X064738Y02474D01*
X064679Y024663D01*
X064642Y024573D01*
X06463Y024478D01*
X064642Y024382D01*
X064679Y024292D01*
X064738Y024216D01*
X064815Y024157D01*
X064904Y02412D01*
X065Y024107D01*
X065096Y02412D01*
X065185Y024157D01*
X065262Y024216D01*
X065321Y024292D01*
X065328Y024309D01*
X065378Y024299D01*
Y023656D01*
X065328Y023646D01*
X065321Y023663D01*
X065262Y02374D01*
X065185Y023798D01*
X065096Y023835D01*
X065Y023848D01*
X064904Y023835D01*
X064815Y023798D01*
X064738Y02374D01*
X064679Y023663D01*
X064642Y023573D01*
X06463Y023478D01*
X064642Y023382D01*
X064679Y023292D01*
X064738Y023216D01*
X064815Y023157D01*
X064904Y02312D01*
X065Y023107D01*
X065096Y02312D01*
X065185Y023157D01*
X065262Y023216D01*
X065321Y023292D01*
X065328Y023309D01*
X065378Y023299D01*
Y022756D01*
X065328Y022746D01*
X065321Y022763D01*
X065262Y02284D01*
X065185Y022898D01*
X065096Y022935D01*
X065Y022948D01*
X064904Y022935D01*
X064815Y022898D01*
X064738Y02284D01*
X064679Y022763D01*
X064642Y022673D01*
X06463Y022578D01*
X064642Y022482D01*
X064679Y022392D01*
X064738Y022316D01*
X064815Y022257D01*
X064904Y02222D01*
X065Y022207D01*
X065096Y02222D01*
X065185Y022257D01*
X065262Y022316D01*
X065321Y022392D01*
X065328Y022409D01*
X065378Y022399D01*
Y021756D01*
X065328Y021746D01*
X065321Y021763D01*
X065262Y02184D01*
X065185Y021898D01*
X065096Y021935D01*
X065Y021948D01*
X064904Y021935D01*
X064815Y021898D01*
X064769Y021863D01*
X064767Y021863D01*
X064705Y021875D01*
X064688Y021901D01*
X063352Y023237D01*
X063299Y023272D01*
X063237Y023285D01*
X059282D01*
X057224Y025342D01*
X057172Y025377D01*
X05711Y025389D01*
X05624D01*
X054215Y027414D01*
X054243Y027481D01*
X054258Y0276D01*
X054243Y027719D01*
X054197Y027829D01*
X054124Y027924D01*
X054029Y027997D01*
X053962Y028025D01*
Y02805D01*
X05395Y028112D01*
X053915Y028165D01*
X053335Y028744D01*
X053341Y028759D01*
X053353Y02885D01*
X053341Y028941D01*
X053306Y029027D01*
X05325Y0291D01*
X053177Y029156D01*
X053091Y029191D01*
X053Y029203D01*
X052909Y029191D01*
X052823Y029156D01*
X05275Y0291D01*
X052694Y029027D01*
X052659Y028941D01*
X052647Y02885D01*
X052659Y028759D01*
X052694Y028673D01*
X05275Y0286D01*
X052823Y028544D01*
X052909Y028509D01*
X053Y028497D01*
X053091Y028509D01*
X053106Y028515D01*
X053575Y028046D01*
X053561Y027989D01*
X053476Y027924D01*
X053403Y027829D01*
X053357Y027719D01*
X053342Y0276D01*
X053357Y027481D01*
X053403Y027371D01*
X053476Y027276D01*
X053486Y027268D01*
X05347Y027221D01*
X053409D01*
X053215Y027414D01*
X053243Y027481D01*
X053258Y0276D01*
X053243Y027719D01*
X053197Y027829D01*
X053124Y027924D01*
X053029Y027997D01*
X052919Y028043D01*
X0528Y028058D01*
X052681Y028043D01*
X052571Y027997D01*
X052476Y027924D01*
X052403Y027829D01*
X052357Y027719D01*
X052342Y0276D01*
X052357Y027481D01*
X052403Y027371D01*
X052476Y027276D01*
X052571Y027203D01*
X052681Y027157D01*
X0528Y027142D01*
X052919Y027157D01*
X052986Y027185D01*
X053122Y027049D01*
X053103Y027003D01*
X048901D01*
X048811Y027093D01*
X048829Y027146D01*
X048919Y027157D01*
X049029Y027203D01*
X049124Y027276D01*
X049197Y027371D01*
X049243Y027481D01*
X049258Y0276D01*
X049243Y027719D01*
X049197Y027829D01*
X049124Y027924D01*
X049029Y027997D01*
X048919Y028043D01*
X0488Y028058D01*
X048681Y028043D01*
X048571Y027997D01*
X04848Y027927D01*
X048446Y027934D01*
X04843Y02794D01*
Y029507D01*
X048418Y029569D01*
X048383Y029622D01*
X04655Y031455D01*
X046497Y03149D01*
X046435Y031502D01*
X045232D01*
X04517Y03149D01*
X045117Y031455D01*
X044888Y031226D01*
X044845Y031252D01*
X044863Y031311D01*
X04488Y031478D01*
X044863Y031644D01*
X044815Y031804D01*
X044736Y031951D01*
X04463Y03208D01*
X044501Y032186D01*
X044354Y032265D01*
X044194Y032313D01*
X044028Y03233D01*
X043861Y032313D01*
X043701Y032265D01*
X043554Y032186D01*
X043425Y03208D01*
X043319Y031951D01*
X04324Y031804D01*
X043192Y031644D01*
X043175Y031478D01*
X043192Y031311D01*
X04324Y031151D01*
X043319Y031004D01*
X043425Y030875D01*
X043538Y030783D01*
X04352Y030733D01*
X042572D01*
X040256Y033049D01*
X040288Y033126D01*
X040304Y03325D01*
X040288Y033374D01*
X04024Y03349D01*
X040164Y033589D01*
X040065Y033665D01*
X039949Y033713D01*
X039858Y033725D01*
Y033775D01*
X039949Y033787D01*
X040065Y033835D01*
X040164Y033911D01*
X04024Y03401D01*
X040288Y034126D01*
X040304Y03425D01*
X040288Y034374D01*
X04024Y03449D01*
X040164Y034589D01*
X040065Y034665D01*
X039949Y034713D01*
X039856Y034725D01*
X039859Y034775D01*
X0403D01*
Y035725D01*
X0392D01*
Y034775D01*
X039641D01*
X039644Y034725D01*
X039551Y034713D01*
X039435Y034665D01*
X039336Y034589D01*
X03926Y03449D01*
X039212Y034374D01*
X039196Y03425D01*
X039212Y034126D01*
X03926Y03401D01*
X039336Y033911D01*
X039435Y033835D01*
X039551Y033787D01*
X039642Y033775D01*
Y033725D01*
X039551Y033713D01*
X039435Y033665D01*
X039336Y033589D01*
X03926Y03349D01*
X039212Y033374D01*
X039196Y03325D01*
X039212Y033126D01*
X03926Y03301D01*
X039336Y032911D01*
X039435Y032835D01*
X039551Y032787D01*
X039642Y032775D01*
Y032725D01*
X039551Y032713D01*
X039435Y032665D01*
X039336Y032589D01*
X03926Y03249D01*
X039212Y032374D01*
X039196Y03225D01*
X039212Y032126D01*
X039232Y032078D01*
X03919Y03205D01*
X038586Y032654D01*
Y037003D01*
X039192Y037609D01*
X0392Y037608D01*
Y03795D01*
X038858D01*
X038863Y037909D01*
X038295Y03734D01*
X038248Y03736D01*
Y038622D01*
X038295Y038641D01*
X038861Y038074D01*
X038858Y03805D01*
X0392D01*
Y038392D01*
X039176Y038389D01*
X038572Y038992D01*
Y042783D01*
X039142Y043352D01*
X03917Y043348D01*
Y043695D01*
X038824D01*
X038827Y043667D01*
X038281Y04312D01*
X038235Y04314D01*
Y044514D01*
X038763Y045042D01*
X038881D01*
X038906Y044992D01*
X038871Y044947D01*
X038831Y04485D01*
X038817Y044745D01*
X038831Y044641D01*
X038871Y044544D01*
X038935Y04446D01*
X039019Y044396D01*
X039116Y044356D01*
X03922Y044342D01*
X039325Y044356D01*
X039422Y044396D01*
X039506Y04446D01*
X03957Y044544D01*
X03961Y044641D01*
X039624Y044745D01*
X03961Y04485D01*
X03957Y044947D01*
X039535Y044992D01*
X03956Y045042D01*
X039694D01*
X039847Y044889D01*
X039831Y04485D01*
X039817Y044745D01*
X039831Y044641D01*
X039871Y044544D01*
X039935Y04446D01*
X040019Y044396D01*
X040116Y044356D01*
X04022Y044342D01*
X040325Y044356D01*
X040422Y044396D01*
X040506Y04446D01*
X04057Y044544D01*
X04061Y044641D01*
X040624Y044745D01*
X04061Y04485D01*
X04057Y044947D01*
X040506Y045031D01*
X040422Y045095D01*
X040325Y045135D01*
X04022Y045149D01*
X040116Y045135D01*
X040076Y045119D01*
X039876Y045319D01*
X039823Y045354D01*
X039761Y045367D01*
X039466D01*
X039449Y045416D01*
X039506Y04546D01*
X03957Y045544D01*
X03961Y045641D01*
X039624Y045745D01*
X03961Y04585D01*
X03957Y045947D01*
X039506Y046031D01*
X039422Y046095D01*
X039325Y046135D01*
X03922Y046149D01*
X039116Y046135D01*
X039019Y046095D01*
X038935Y046031D01*
X038871Y045947D01*
X038831Y04585D01*
X038817Y045745D01*
X038831Y045641D01*
X038871Y045544D01*
X038935Y04546D01*
X038992Y045416D01*
X038975Y045367D01*
X038696D01*
X038634Y045354D01*
X038581Y045319D01*
X037958Y044696D01*
X037923Y044644D01*
X037911Y044581D01*
Y040256D01*
X037861Y040249D01*
X037837Y040326D01*
X037759Y040473D01*
X037653Y040603D01*
X037523Y040709D01*
X037376Y040787D01*
X037216Y040836D01*
X03705Y040852D01*
X036884Y040836D01*
X036724Y040787D01*
X036577Y040709D01*
X036447Y040603D01*
X036355Y04049D01*
X036305Y040508D01*
Y040607D01*
X036293Y040669D01*
X036258Y040722D01*
X032423Y044556D01*
X03244Y044596D01*
X032453Y0447D01*
X03244Y044804D01*
X032399Y044902D01*
X032335Y044985D01*
X032252Y045049D01*
X032154Y04509D01*
X03205Y045103D01*
X031946Y04509D01*
X031848Y045049D01*
X031804Y045016D01*
X031754Y04504D01*
Y04536D01*
X031804Y045384D01*
X031848Y045351D01*
X031946Y04531D01*
X032Y045303D01*
Y0457D01*
Y046097D01*
X031946Y04609D01*
X031848Y046049D01*
X031804Y046016D01*
X031754Y04604D01*
Y04609D01*
X031964Y0463D01*
X03245D01*
Y0471D01*
X032272D01*
Y047258D01*
X034809Y049794D01*
X034923Y049759D01*
X035037Y049748D01*
X037197Y047588D01*
X037197Y047588D01*
X03727Y04754D01*
X037355Y047523D01*
X03882D01*
Y047345D01*
X03962D01*
Y048145D01*
X03882D01*
Y047968D01*
X037447D01*
X035564Y049851D01*
X035566Y049901D01*
X035612Y049938D01*
X035693Y050037D01*
X035753Y05015D01*
X035791Y050273D01*
X035803Y0504D01*
X035791Y050527D01*
X035753Y05065D01*
X035693Y050763D01*
X035612Y050862D01*
X035513Y050943D01*
X0354Y051003D01*
X035277Y051041D01*
X03515Y051053D01*
X03505D01*
X034923Y051041D01*
X0348Y051003D01*
X034687Y050943D01*
X034588Y050862D01*
X034507Y050763D01*
X034447Y05065D01*
X034409Y050527D01*
X034397Y0504D01*
X034409Y050273D01*
X034447Y05015D01*
X034478Y050092D01*
X031893Y047507D01*
X031845Y047435D01*
X031828Y04735D01*
X031828Y04735D01*
Y0471D01*
X03165D01*
Y046614D01*
X031464Y046429D01*
X031418Y046448D01*
Y048454D01*
X034775Y05181D01*
X0348Y051797D01*
X034923Y051759D01*
X03505Y051747D01*
D01*
Y05235D01*
D02*
G37*
G36*
X046Y052211D02*
X045857Y052197D01*
X045719Y052155D01*
X045593Y052087D01*
X045481Y051996D01*
X04539Y051885D01*
X045322Y051758D01*
X045281Y051621D01*
X045267Y051478D01*
X045281Y051334D01*
X045322Y051197D01*
X04539Y05107D01*
X045481Y050959D01*
X045593Y050868D01*
X045719Y0508D01*
X045857Y050758D01*
X046Y050744D01*
X046143Y050758D01*
X046281Y0508D01*
X046407Y050868D01*
X046519Y050959D01*
X04661Y05107D01*
X046678Y051197D01*
X046719Y051334D01*
X046733Y051478D01*
X046719Y051621D01*
X046678Y051758D01*
X04661Y051885D01*
X046519Y051996D01*
X046407Y052087D01*
X046281Y052155D01*
X046143Y052197D01*
X046Y052211D01*
D02*
G37*
G36*
X060179Y051143D02*
X060063D01*
X060053Y051141D01*
X060043D01*
X059929Y051118D01*
X059919Y051114D01*
X05991Y051112D01*
X059802Y051068D01*
X059794Y051062D01*
X059785Y051058D01*
X059688Y050993D01*
X059681Y050986D01*
X059672Y050981D01*
X05959Y050899D01*
X059585Y05089D01*
X059577Y050883D01*
X059513Y050786D01*
X059509Y050777D01*
X059503Y050769D01*
X059459Y050661D01*
X059457Y050651D01*
X059453Y050642D01*
X05943Y050528D01*
Y050518D01*
X059428Y050508D01*
Y050392D01*
X05943Y050382D01*
Y050372D01*
X059453Y050258D01*
X059457Y050249D01*
X059459Y050239D01*
X059503Y050131D01*
X059509Y050123D01*
X059513Y050114D01*
X059577Y050017D01*
X059585Y05001D01*
X05959Y050001D01*
X059672Y049919D01*
X059681Y049914D01*
X059688Y049907D01*
X059785Y049842D01*
X059794Y049838D01*
X059802Y049832D01*
X05991Y049788D01*
X059919Y049786D01*
X059929Y049782D01*
X060043Y049759D01*
X060053D01*
X060063Y049757D01*
X060179D01*
X060189Y049759D01*
X060199D01*
X060313Y049782D01*
X060322Y049786D01*
X060332Y049788D01*
X06044Y049832D01*
X060448Y049838D01*
X060457Y049842D01*
X060554Y049907D01*
X060561Y049914D01*
X060569Y049919D01*
X060652Y050001D01*
X060657Y05001D01*
X060664Y050017D01*
X060729Y050114D01*
X060733Y050123D01*
X060738Y050131D01*
X060783Y050239D01*
X060785Y050249D01*
X060789Y050258D01*
X060811Y050372D01*
Y050382D01*
X060813Y050392D01*
Y050508D01*
X060811Y050518D01*
Y050528D01*
X060789Y050642D01*
X060785Y050651D01*
X060783Y050661D01*
X060738Y050769D01*
X060733Y050777D01*
X060729Y050786D01*
X060664Y050883D01*
X060657Y05089D01*
X060652Y050899D01*
X060569Y050981D01*
X060561Y050986D01*
X060554Y050993D01*
X060457Y051058D01*
X060448Y051062D01*
X06044Y051068D01*
X060332Y051112D01*
X060322Y051114D01*
X060313Y051118D01*
X060199Y051141D01*
X060189D01*
X060179Y051143D01*
D02*
G37*
G36*
X037325D02*
X037208D01*
X037198Y051141D01*
X037188D01*
X037074Y051118D01*
X037065Y051114D01*
X037055Y051112D01*
X036948Y051068D01*
X036939Y051062D01*
X03693Y051058D01*
X036833Y050993D01*
X036826Y050986D01*
X036818Y050981D01*
X036736Y050899D01*
X03673Y05089D01*
X036723Y050883D01*
X036658Y050786D01*
X036654Y050777D01*
X036649Y050769D01*
X036604Y050661D01*
X036602Y050651D01*
X036599Y050642D01*
X036576Y050528D01*
Y050518D01*
X036574Y050508D01*
Y050392D01*
X036576Y050382D01*
Y050372D01*
X036599Y050258D01*
X036602Y050249D01*
X036604Y050239D01*
X036649Y050131D01*
X036654Y050123D01*
X036658Y050114D01*
X036723Y050017D01*
X03673Y05001D01*
X036736Y050001D01*
X036818Y049919D01*
X036826Y049914D01*
X036833Y049907D01*
X03693Y049842D01*
X036939Y049838D01*
X036948Y049832D01*
X037055Y049788D01*
X037065Y049786D01*
X037074Y049782D01*
X037188Y049759D01*
X037198D01*
X037208Y049757D01*
X037325D01*
X037334Y049759D01*
X037344D01*
X037459Y049782D01*
X037468Y049786D01*
X037478Y049788D01*
X037585Y049832D01*
X037594Y049838D01*
X037603Y049842D01*
X0377Y049907D01*
X037707Y049914D01*
X037715Y049919D01*
X037797Y050001D01*
X037803Y05001D01*
X03781Y050017D01*
X037875Y050114D01*
X037878Y050123D01*
X037884Y050131D01*
X037928Y050239D01*
X03793Y050249D01*
X037934Y050258D01*
X037957Y050372D01*
Y050382D01*
X037959Y050392D01*
Y050508D01*
X037957Y050518D01*
Y050528D01*
X037934Y050642D01*
X03793Y050651D01*
X037928Y050661D01*
X037884Y050769D01*
X037878Y050777D01*
X037875Y050786D01*
X03781Y050883D01*
X037803Y05089D01*
X037797Y050899D01*
X037715Y050981D01*
X037707Y050986D01*
X0377Y050993D01*
X037603Y051058D01*
X037594Y051062D01*
X037585Y051068D01*
X037478Y051112D01*
X037468Y051114D01*
X037459Y051118D01*
X037344Y051141D01*
X037334D01*
X037325Y051143D01*
D02*
G37*
G36*
X046Y050448D02*
X045904Y050435D01*
X045815Y050398D01*
X045738Y05034D01*
X045679Y050263D01*
X045642Y050173D01*
X04563Y050078D01*
X045642Y049982D01*
X045679Y049892D01*
X045738Y049816D01*
X045815Y049757D01*
X045904Y04972D01*
X046Y049707D01*
X046096Y04972D01*
X046185Y049757D01*
X046262Y049816D01*
X046321Y049892D01*
X046358Y049982D01*
X04637Y050078D01*
X046358Y050173D01*
X046321Y050263D01*
X046262Y05034D01*
X046185Y050398D01*
X046096Y050435D01*
X046Y050448D01*
D02*
G37*
G36*
X063Y051302D02*
X062834Y051286D01*
X062674Y051237D01*
X062527Y051159D01*
X062397Y051053D01*
X062291Y050923D01*
X062213Y050776D01*
X062164Y050616D01*
X062148Y05045D01*
X062164Y050284D01*
X062213Y050124D01*
X062291Y049977D01*
X062397Y049847D01*
X062527Y049741D01*
X062674Y049663D01*
X062834Y049614D01*
X063Y049598D01*
X063166Y049614D01*
X063326Y049663D01*
X063473Y049741D01*
X063603Y049847D01*
X063709Y049977D01*
X063787Y050124D01*
X063836Y050284D01*
X063852Y05045D01*
X063836Y050616D01*
X063787Y050776D01*
X063709Y050923D01*
X063603Y051053D01*
X063473Y051159D01*
X063326Y051237D01*
X063166Y051286D01*
X063Y051302D01*
D02*
G37*
G36*
X044028D02*
X043861Y051286D01*
X043701Y051237D01*
X043554Y051159D01*
X043425Y051053D01*
X043319Y050923D01*
X04324Y050776D01*
X043192Y050616D01*
X043175Y05045D01*
X043192Y050284D01*
X04324Y050124D01*
X043319Y049977D01*
X043425Y049847D01*
X043554Y049741D01*
X043701Y049663D01*
X043861Y049614D01*
X044028Y049598D01*
X044194Y049614D01*
X044354Y049663D01*
X044501Y049741D01*
X04463Y049847D01*
X044736Y049977D01*
X044815Y050124D01*
X044863Y050284D01*
X04488Y05045D01*
X044863Y050616D01*
X044815Y050776D01*
X044736Y050923D01*
X04463Y051053D01*
X044501Y051159D01*
X044354Y051237D01*
X044194Y051286D01*
X044028Y051302D01*
D02*
G37*
G36*
X0403Y053475D02*
X0392D01*
Y052525D01*
X039641D01*
X039644Y052475D01*
X039551Y052463D01*
X039435Y052415D01*
X039336Y052339D01*
X03926Y05224D01*
X039212Y052124D01*
X039196Y052D01*
X039212Y051876D01*
X03926Y05176D01*
X039336Y051661D01*
X039435Y051585D01*
X039551Y051537D01*
X039642Y051525D01*
Y051475D01*
X039551Y051463D01*
X039435Y051415D01*
X039336Y051339D01*
X03926Y05124D01*
X039212Y051124D01*
X039196Y051D01*
X039212Y050876D01*
X03926Y05076D01*
X039336Y050661D01*
X039435Y050585D01*
X039551Y050537D01*
X039642Y050525D01*
Y050475D01*
X039551Y050463D01*
X039435Y050415D01*
X039336Y050339D01*
X03926Y05024D01*
X039212Y050124D01*
X039196Y05D01*
X039212Y049876D01*
X03926Y04976D01*
X039336Y049661D01*
X039435Y049585D01*
X039551Y049537D01*
X039675Y049521D01*
X039825D01*
X039949Y049537D01*
X040065Y049585D01*
X040164Y049661D01*
X04024Y04976D01*
X040288Y049876D01*
X040304Y05D01*
X040288Y050124D01*
X04024Y05024D01*
X040164Y050339D01*
X040065Y050415D01*
X039949Y050463D01*
X039858Y050475D01*
Y050525D01*
X039949Y050537D01*
X040065Y050585D01*
X040164Y050661D01*
X04024Y05076D01*
X040288Y050876D01*
X040304Y051D01*
X040288Y051124D01*
X04024Y05124D01*
X040164Y051339D01*
X040065Y051415D01*
X039949Y051463D01*
X039858Y051475D01*
Y051525D01*
X039949Y051537D01*
X040065Y051585D01*
X040164Y051661D01*
X04024Y05176D01*
X040288Y051876D01*
X040304Y052D01*
X040288Y052124D01*
X04024Y05224D01*
X040164Y052339D01*
X040065Y052415D01*
X039949Y052463D01*
X039856Y052475D01*
X039859Y052525D01*
X0403D01*
Y053475D01*
D02*
G37*
G36*
X046Y049448D02*
X045904Y049435D01*
X045815Y049398D01*
X045738Y04934D01*
X045679Y049263D01*
X045642Y049173D01*
X04563Y049078D01*
X045642Y048982D01*
X045679Y048892D01*
X045738Y048816D01*
X045815Y048757D01*
X045904Y04872D01*
X046Y048707D01*
X046096Y04872D01*
X046185Y048757D01*
X046262Y048816D01*
X046321Y048892D01*
X046358Y048982D01*
X04637Y049078D01*
X046358Y049173D01*
X046321Y049263D01*
X046262Y04934D01*
X046185Y049398D01*
X046096Y049435D01*
X046Y049448D01*
D02*
G37*
G36*
Y048448D02*
X045904Y048435D01*
X045815Y048398D01*
X045738Y04834D01*
X045679Y048263D01*
X045642Y048173D01*
X04563Y048078D01*
X045642Y047982D01*
X045679Y047892D01*
X045738Y047816D01*
X045815Y047757D01*
X045904Y04772D01*
X046Y047707D01*
X046096Y04772D01*
X046185Y047757D01*
X046262Y047816D01*
X046321Y047892D01*
X046358Y047982D01*
X04637Y048078D01*
X046358Y048173D01*
X046321Y048263D01*
X046262Y04834D01*
X046185Y048398D01*
X046096Y048435D01*
X046Y048448D01*
D02*
G37*
G36*
X04022Y048149D02*
X040116Y048135D01*
X040019Y048095D01*
X039935Y048031D01*
X039871Y047947D01*
X039831Y04785D01*
X039817Y047745D01*
X039831Y047641D01*
X039871Y047544D01*
X039935Y04746D01*
X040019Y047396D01*
X040116Y047356D01*
X04022Y047342D01*
X040325Y047356D01*
X040422Y047396D01*
X040506Y04746D01*
X04057Y047544D01*
X04061Y047641D01*
X040624Y047745D01*
X04061Y04785D01*
X04057Y047947D01*
X040506Y048031D01*
X040422Y048095D01*
X040325Y048135D01*
X04022Y048149D01*
D02*
G37*
G36*
X046Y047448D02*
X045904Y047435D01*
X045815Y047398D01*
X045738Y04734D01*
X045679Y047263D01*
X045642Y047173D01*
X04563Y047078D01*
X045642Y046982D01*
X045679Y046892D01*
X045738Y046816D01*
X045815Y046757D01*
X045904Y04672D01*
X046Y046707D01*
X046096Y04672D01*
X046185Y046757D01*
X046262Y046816D01*
X046321Y046892D01*
X046358Y046982D01*
X04637Y047078D01*
X046358Y047173D01*
X046321Y047263D01*
X046262Y04734D01*
X046185Y047398D01*
X046096Y047435D01*
X046Y047448D01*
D02*
G37*
G36*
X04022Y047149D02*
X040116Y047135D01*
X040019Y047095D01*
X039935Y047031D01*
X039871Y046947D01*
X039831Y04685D01*
X039817Y046745D01*
X039831Y046641D01*
X039871Y046544D01*
X039935Y04646D01*
X040019Y046396D01*
X040116Y046356D01*
X04022Y046342D01*
X040325Y046356D01*
X040422Y046396D01*
X040506Y04646D01*
X04057Y046544D01*
X04061Y046641D01*
X040624Y046745D01*
X04061Y04685D01*
X04057Y046947D01*
X040506Y047031D01*
X040422Y047095D01*
X040325Y047135D01*
X04022Y047149D01*
D02*
G37*
G36*
X03922D02*
X039116Y047135D01*
X039019Y047095D01*
X038935Y047031D01*
X038871Y046947D01*
X038831Y04685D01*
X038817Y046745D01*
X038831Y046641D01*
X038871Y046544D01*
X038935Y04646D01*
X039019Y046396D01*
X039116Y046356D01*
X03922Y046342D01*
X039325Y046356D01*
X039422Y046396D01*
X039506Y04646D01*
X03957Y046544D01*
X03961Y046641D01*
X039624Y046745D01*
X03961Y04685D01*
X03957Y046947D01*
X039506Y047031D01*
X039422Y047095D01*
X039325Y047135D01*
X03922Y047149D01*
D02*
G37*
G36*
X065367Y046845D02*
X064633D01*
Y04611D01*
X065367D01*
Y046845D01*
D02*
G37*
G36*
X0321Y046097D02*
Y04575D01*
X032447D01*
X03244Y045804D01*
X032399Y045902D01*
X032335Y045985D01*
X032252Y046049D01*
X032154Y04609D01*
X0321Y046097D01*
D02*
G37*
G36*
X046Y046448D02*
X045904Y046435D01*
X045815Y046398D01*
X045738Y04634D01*
X045679Y046263D01*
X045642Y046173D01*
X04563Y046078D01*
X045642Y045982D01*
X045679Y045892D01*
X045738Y045816D01*
X045815Y045757D01*
X045904Y04572D01*
X046Y045707D01*
X046096Y04572D01*
X046185Y045757D01*
X046262Y045816D01*
X046321Y045892D01*
X046358Y045982D01*
X04637Y046078D01*
X046358Y046173D01*
X046321Y046263D01*
X046262Y04634D01*
X046185Y046398D01*
X046096Y046435D01*
X046Y046448D01*
D02*
G37*
G36*
X03705Y047252D02*
X036884Y047236D01*
X036724Y047187D01*
X036577Y047109D01*
X036447Y047003D01*
X036341Y046873D01*
X036263Y046726D01*
X036214Y046566D01*
X036198Y0464D01*
X036214Y046234D01*
X036263Y046074D01*
X036341Y045927D01*
X036447Y045797D01*
X036577Y045691D01*
X036724Y045613D01*
X036884Y045564D01*
X03705Y045548D01*
X037216Y045564D01*
X037376Y045613D01*
X037523Y045691D01*
X037653Y045797D01*
X037759Y045927D01*
X037837Y046074D01*
X037886Y046234D01*
X037902Y0464D01*
X037886Y046566D01*
X037837Y046726D01*
X037759Y046873D01*
X037653Y047003D01*
X037523Y047109D01*
X037376Y047187D01*
X037216Y047236D01*
X03705Y047252D01*
D02*
G37*
G36*
X04022Y046149D02*
X040116Y046135D01*
X040019Y046095D01*
X039935Y046031D01*
X039871Y045947D01*
X039831Y04585D01*
X039817Y045745D01*
X039831Y045641D01*
X039871Y045544D01*
X039935Y04546D01*
X040019Y045396D01*
X040116Y045356D01*
X04022Y045342D01*
X040325Y045356D01*
X040422Y045396D01*
X040506Y04546D01*
X04057Y045544D01*
X04061Y045641D01*
X040624Y045745D01*
X04061Y04585D01*
X04057Y045947D01*
X040506Y046031D01*
X040422Y046095D01*
X040325Y046135D01*
X04022Y046149D01*
D02*
G37*
G36*
X032447Y04565D02*
X0321D01*
Y045303D01*
X032154Y04531D01*
X032252Y045351D01*
X032335Y045415D01*
X032399Y045498D01*
X03244Y045596D01*
X032447Y04565D01*
D02*
G37*
G36*
X065Y045848D02*
X064904Y045835D01*
X064815Y045798D01*
X064738Y04574D01*
X064679Y045663D01*
X064642Y045573D01*
X06463Y045478D01*
X064642Y045382D01*
X064679Y045292D01*
X064738Y045216D01*
X064815Y045157D01*
X064904Y04512D01*
X065Y045107D01*
X065096Y04512D01*
X065185Y045157D01*
X065262Y045216D01*
X065321Y045292D01*
X065358Y045382D01*
X06537Y045478D01*
X065358Y045573D01*
X065321Y045663D01*
X065262Y04574D01*
X065185Y045798D01*
X065096Y045835D01*
X065Y045848D01*
D02*
G37*
G36*
X046Y045448D02*
X045904Y045435D01*
X045815Y045398D01*
X045738Y04534D01*
X045679Y045263D01*
X045642Y045173D01*
X04563Y045078D01*
X045642Y044982D01*
X045679Y044892D01*
X045738Y044816D01*
X045815Y044757D01*
X045904Y04472D01*
X046Y044707D01*
X046096Y04472D01*
X046185Y044757D01*
X046262Y044816D01*
X046321Y044892D01*
X046358Y044982D01*
X04637Y045078D01*
X046358Y045173D01*
X046321Y045263D01*
X046262Y04534D01*
X046185Y045398D01*
X046096Y045435D01*
X046Y045448D01*
D02*
G37*
G36*
X035798Y05235D02*
X03515D01*
Y051747D01*
X035277Y051759D01*
X035391Y051794D01*
X035928Y051258D01*
Y0497D01*
X035928Y0497D01*
X035945Y049615D01*
X035993Y049543D01*
X036943Y048593D01*
X036943Y048593D01*
X037015Y048545D01*
X0371Y048528D01*
X0371Y048528D01*
X040158D01*
X041278Y047408D01*
Y045117D01*
X040299Y044138D01*
X04027Y044142D01*
Y043795D01*
X040617D01*
X040614Y043824D01*
X041657Y044868D01*
X041657Y044868D01*
X041705Y04494D01*
X041722Y045025D01*
Y0475D01*
X041722Y0475D01*
X041705Y047585D01*
X041657Y047657D01*
X041657Y047657D01*
X040407Y048907D01*
X040335Y048955D01*
X04025Y048972D01*
X04025Y048972D01*
X037192D01*
X036372Y049792D01*
Y05135D01*
X036355Y051435D01*
X036307Y051507D01*
X036307Y051507D01*
X035722Y052092D01*
X035753Y05215D01*
X035791Y052273D01*
X035798Y05235D01*
D02*
G37*
G36*
X065Y044848D02*
X064904Y044835D01*
X064815Y044798D01*
X064738Y04474D01*
X064679Y044663D01*
X064642Y044573D01*
X06463Y044478D01*
X064642Y044382D01*
X064679Y044292D01*
X064738Y044216D01*
X064815Y044157D01*
X064904Y04412D01*
X065Y044107D01*
X065096Y04412D01*
X065185Y044157D01*
X065262Y044216D01*
X065321Y044292D01*
X065358Y044382D01*
X06537Y044478D01*
X065358Y044573D01*
X065321Y044663D01*
X065262Y04474D01*
X065185Y044798D01*
X065096Y044835D01*
X065Y044848D01*
D02*
G37*
G36*
X03917Y044142D02*
X039116Y044135D01*
X039019Y044095D01*
X038935Y044031D01*
X038871Y043947D01*
X038831Y04385D01*
X038824Y043795D01*
X03917D01*
Y044142D01*
D02*
G37*
G36*
X046Y044448D02*
X045904Y044435D01*
X045815Y044398D01*
X045738Y04434D01*
X045679Y044263D01*
X045642Y044173D01*
X04563Y044078D01*
X045642Y043982D01*
X045679Y043892D01*
X045738Y043816D01*
X045815Y043757D01*
X045904Y04372D01*
X046Y043707D01*
X046096Y04372D01*
X046185Y043757D01*
X046262Y043816D01*
X046321Y043892D01*
X046358Y043982D01*
X04637Y044078D01*
X046358Y044173D01*
X046321Y044263D01*
X046262Y04434D01*
X046185Y044398D01*
X046096Y044435D01*
X046Y044448D01*
D02*
G37*
G36*
X03927Y044142D02*
Y043745D01*
X03922D01*
D01*
X03927D01*
Y043348D01*
X039325Y043356D01*
X039422Y043396D01*
X039506Y04346D01*
X039554Y043523D01*
X039887D01*
X039935Y04346D01*
X040019Y043396D01*
X040116Y043356D01*
X04017Y043348D01*
Y043745D01*
Y044142D01*
X040116Y044135D01*
X040019Y044095D01*
X039935Y044031D01*
X039887Y043968D01*
X039554D01*
X039506Y044031D01*
X039422Y044095D01*
X039325Y044135D01*
X03927Y044142D01*
D02*
G37*
G36*
X040617Y043695D02*
X04027D01*
Y043348D01*
X040325Y043356D01*
X040422Y043396D01*
X040506Y04346D01*
X04057Y043544D01*
X04061Y043641D01*
X040617Y043695D01*
D02*
G37*
G36*
X065Y043848D02*
X064904Y043835D01*
X064815Y043798D01*
X064738Y04374D01*
X064679Y043663D01*
X064642Y043573D01*
X06463Y043478D01*
X064642Y043382D01*
X064679Y043292D01*
X064738Y043216D01*
X064815Y043157D01*
X064904Y04312D01*
X065Y043107D01*
X065096Y04312D01*
X065185Y043157D01*
X065262Y043216D01*
X065321Y043292D01*
X065358Y043382D01*
X06537Y043478D01*
X065358Y043573D01*
X065321Y043663D01*
X065262Y04374D01*
X065185Y043798D01*
X065096Y043835D01*
X065Y043848D01*
D02*
G37*
G36*
X046Y043448D02*
X045904Y043435D01*
X045815Y043398D01*
X045738Y04334D01*
X045679Y043263D01*
X045642Y043173D01*
X04563Y043078D01*
X045642Y042982D01*
X045679Y042892D01*
X045738Y042816D01*
X045815Y042757D01*
X045904Y04272D01*
X046Y042707D01*
X046096Y04272D01*
X046185Y042757D01*
X046262Y042816D01*
X046321Y042892D01*
X046358Y042982D01*
X04637Y043078D01*
X046358Y043173D01*
X046321Y043263D01*
X046262Y04334D01*
X046185Y043398D01*
X046096Y043435D01*
X046Y043448D01*
D02*
G37*
G36*
X065Y042848D02*
X064904Y042835D01*
X064815Y042798D01*
X064738Y04274D01*
X064679Y042663D01*
X064642Y042573D01*
X06463Y042478D01*
X064642Y042382D01*
X064679Y042292D01*
X064738Y042216D01*
X064815Y042157D01*
X064904Y04212D01*
X065Y042107D01*
X065096Y04212D01*
X065185Y042157D01*
X065262Y042216D01*
X065321Y042292D01*
X065358Y042382D01*
X06537Y042478D01*
X065358Y042573D01*
X065321Y042663D01*
X065262Y04274D01*
X065185Y042798D01*
X065096Y042835D01*
X065Y042848D01*
D02*
G37*
G36*
X046Y042448D02*
X045904Y042435D01*
X045815Y042398D01*
X045738Y04234D01*
X045679Y042263D01*
X045642Y042173D01*
X04563Y042078D01*
X045642Y041982D01*
X045679Y041892D01*
X045738Y041816D01*
X045815Y041757D01*
X045904Y04172D01*
X046Y041707D01*
X046096Y04172D01*
X046185Y041757D01*
X046262Y041816D01*
X046321Y041892D01*
X046358Y041982D01*
X04637Y042078D01*
X046358Y042173D01*
X046321Y042263D01*
X046262Y04234D01*
X046185Y042398D01*
X046096Y042435D01*
X046Y042448D01*
D02*
G37*
G36*
X052578Y054122D02*
X052578Y054122D01*
X03665D01*
X036565Y054105D01*
X036493Y054057D01*
X036493Y054057D01*
X035425Y05299D01*
X0354Y053003D01*
X035277Y053041D01*
X03515Y053053D01*
D01*
Y05245D01*
X035798D01*
X035791Y052527D01*
X035753Y05265D01*
X03574Y052675D01*
X036742Y053678D01*
X052485D01*
X064636Y041528D01*
X06495D01*
Y041842D01*
X052735Y054057D01*
X052663Y054105D01*
X052578Y054122D01*
D02*
G37*
G36*
X065364Y041428D02*
X06505D01*
Y041114D01*
X065096Y04112D01*
X065185Y041157D01*
X065262Y041216D01*
X065321Y041292D01*
X065358Y041382D01*
X065364Y041428D01*
D02*
G37*
G36*
X06495D02*
X064636D01*
X064642Y041382D01*
X064679Y041292D01*
X064738Y041216D01*
X064815Y041157D01*
X064904Y04112D01*
X06495Y041114D01*
Y041428D01*
D02*
G37*
G36*
X046Y041448D02*
X045904Y041435D01*
X045815Y041398D01*
X045738Y04134D01*
X045679Y041263D01*
X045642Y041173D01*
X04563Y041078D01*
X045642Y040982D01*
X045679Y040892D01*
X045738Y040816D01*
X045815Y040757D01*
X045904Y04072D01*
X046Y040707D01*
X046096Y04072D01*
X046185Y040757D01*
X046262Y040816D01*
X046321Y040892D01*
X046358Y040982D01*
X04637Y041078D01*
X046358Y041173D01*
X046321Y041263D01*
X046262Y04134D01*
X046185Y041398D01*
X046096Y041435D01*
X046Y041448D01*
D02*
G37*
G36*
X04025Y041399D02*
X040147Y041385D01*
X040051Y041345D01*
X039968Y041282D01*
X039905Y041199D01*
X039865Y041103D01*
X039851Y041D01*
X039865Y040897D01*
X039905Y040801D01*
X039968Y040718D01*
X039979Y04071D01*
X039963Y040662D01*
X039817D01*
X03962Y04086D01*
X039635Y040897D01*
X039649Y041D01*
X039635Y041103D01*
X039595Y041199D01*
X039532Y041282D01*
X039449Y041345D01*
X039353Y041385D01*
X03925Y041399D01*
X039147Y041385D01*
X039051Y041345D01*
X038968Y041282D01*
X038905Y041199D01*
X038865Y041103D01*
X038851Y041D01*
X038865Y040897D01*
X038905Y040801D01*
X038968Y040718D01*
X039051Y040655D01*
X039147Y040615D01*
X03925Y040601D01*
X039353Y040615D01*
X03939Y04063D01*
X039635Y040385D01*
X039688Y04035D01*
X03975Y040338D01*
X039963D01*
X039979Y04029D01*
X039968Y040282D01*
X039905Y040199D01*
X039865Y040103D01*
X039851Y04D01*
X039865Y039897D01*
X039905Y039801D01*
X039968Y039718D01*
X040051Y039655D01*
X040147Y039615D01*
X04025Y039601D01*
X040353Y039615D01*
X040449Y039655D01*
X040532Y039718D01*
X040595Y039801D01*
X040635Y039897D01*
X040649Y04D01*
X040635Y040103D01*
X040595Y040199D01*
X040532Y040282D01*
X040521Y04029D01*
X040537Y040338D01*
X041133D01*
X043108Y038363D01*
X04316Y038328D01*
X043222Y038315D01*
X04567D01*
X045679Y038292D01*
X045738Y038216D01*
X045815Y038157D01*
X045904Y03812D01*
X046Y038107D01*
X046096Y03812D01*
X046185Y038157D01*
X046262Y038216D01*
X046321Y038292D01*
X046358Y038382D01*
X04637Y038478D01*
X046358Y038573D01*
X046321Y038663D01*
X046262Y03874D01*
X046185Y038798D01*
X046096Y038835D01*
X046Y038848D01*
X045904Y038835D01*
X045815Y038798D01*
X045738Y03874D01*
X045679Y038663D01*
X04567Y03864D01*
X04329D01*
X041315Y040615D01*
X041262Y04065D01*
X0412Y040662D01*
X040537D01*
X040521Y04071D01*
X040532Y040718D01*
X040595Y040801D01*
X040611Y040838D01*
X042304D01*
X043779Y039363D01*
X043832Y039328D01*
X043894Y039315D01*
X04567D01*
X045679Y039292D01*
X045738Y039216D01*
X045815Y039157D01*
X045904Y03912D01*
X046Y039107D01*
X046096Y03912D01*
X046185Y039157D01*
X046262Y039216D01*
X046321Y039292D01*
X046358Y039382D01*
X04637Y039478D01*
X046358Y039573D01*
X046321Y039663D01*
X046262Y03974D01*
X046185Y039798D01*
X046096Y039835D01*
X046Y039848D01*
X045904Y039835D01*
X045815Y039798D01*
X045738Y03974D01*
X045679Y039663D01*
X04567Y03964D01*
X043961D01*
X042486Y041115D01*
X042433Y04115D01*
X042371Y041162D01*
X040611D01*
X040595Y041199D01*
X040532Y041282D01*
X040449Y041345D01*
X040353Y041385D01*
X04025Y041399D01*
D02*
G37*
G36*
X065Y040848D02*
X064904Y040835D01*
X064815Y040798D01*
X064738Y04074D01*
X064679Y040663D01*
X064642Y040573D01*
X06463Y040478D01*
X064642Y040382D01*
X064679Y040292D01*
X064738Y040216D01*
X064815Y040157D01*
X064904Y04012D01*
X065Y040107D01*
X065096Y04012D01*
X065185Y040157D01*
X065262Y040216D01*
X065321Y040292D01*
X065358Y040382D01*
X06537Y040478D01*
X065358Y040573D01*
X065321Y040663D01*
X065262Y04074D01*
X065185Y040798D01*
X065096Y040835D01*
X065Y040848D01*
D02*
G37*
G36*
X03925Y040399D02*
X039147Y040385D01*
X039051Y040345D01*
X038968Y040282D01*
X038905Y040199D01*
X038865Y040103D01*
X038851Y04D01*
X038865Y039897D01*
X038905Y039801D01*
X038968Y039718D01*
X039051Y039655D01*
X039147Y039615D01*
X03925Y039601D01*
X039353Y039615D01*
X039449Y039655D01*
X039532Y039718D01*
X039595Y039801D01*
X039635Y039897D01*
X039649Y04D01*
X039635Y040103D01*
X039595Y040199D01*
X039532Y040282D01*
X039449Y040345D01*
X039353Y040385D01*
X03925Y040399D01*
D02*
G37*
G36*
X04025Y039399D02*
X040147Y039385D01*
X040051Y039345D01*
X039968Y039282D01*
X039905Y039199D01*
X039865Y039103D01*
X039851Y039D01*
X039865Y038897D01*
X039905Y038801D01*
X039968Y038718D01*
X040051Y038655D01*
X040147Y038615D01*
X04025Y038601D01*
X040353Y038615D01*
X040449Y038655D01*
X040532Y038718D01*
X040595Y038801D01*
X040635Y038897D01*
X040649Y039D01*
X040635Y039103D01*
X040595Y039199D01*
X040532Y039282D01*
X040449Y039345D01*
X040353Y039385D01*
X04025Y039399D01*
D02*
G37*
G36*
X03925D02*
X039147Y039385D01*
X039051Y039345D01*
X038968Y039282D01*
X038905Y039199D01*
X038865Y039103D01*
X038851Y039D01*
X038865Y038897D01*
X038905Y038801D01*
X038968Y038718D01*
X039051Y038655D01*
X039147Y038615D01*
X03925Y038601D01*
X039353Y038615D01*
X039449Y038655D01*
X039532Y038718D01*
X039595Y038801D01*
X039635Y038897D01*
X039649Y039D01*
X039635Y039103D01*
X039595Y039199D01*
X039532Y039282D01*
X039449Y039345D01*
X039353Y039385D01*
X03925Y039399D01*
D02*
G37*
G36*
X0403Y038392D02*
Y03805D01*
X040642D01*
X040635Y038103D01*
X040595Y038199D01*
X040532Y038282D01*
X040449Y038345D01*
X040353Y038385D01*
X0403Y038392D01*
D02*
G37*
G36*
X040642Y03795D02*
X0403D01*
Y037608D01*
X040353Y037615D01*
X040449Y037655D01*
X040532Y037718D01*
X040595Y037801D01*
X040635Y037897D01*
X040642Y03795D01*
D02*
G37*
G36*
X0393Y038392D02*
Y038D01*
X03925D01*
D01*
X0393D01*
Y037608D01*
X039353Y037615D01*
X039449Y037655D01*
X039532Y037718D01*
X039578Y037778D01*
X039922D01*
X039968Y037718D01*
X040051Y037655D01*
X040147Y037615D01*
X0402Y037608D01*
Y038D01*
Y038392D01*
X040147Y038385D01*
X040051Y038345D01*
X039968Y038282D01*
X039922Y038222D01*
X039578D01*
X039532Y038282D01*
X039449Y038345D01*
X039353Y038385D01*
X0393Y038392D01*
D02*
G37*
G36*
X046Y037848D02*
X045904Y037835D01*
X045815Y037798D01*
X045738Y03774D01*
X045679Y037663D01*
X045642Y037573D01*
X04563Y037478D01*
X045642Y037382D01*
X045679Y037292D01*
X045738Y037216D01*
X045815Y037157D01*
X045904Y03712D01*
X046Y037107D01*
X046096Y03712D01*
X046185Y037157D01*
X046262Y037216D01*
X046321Y037292D01*
X046358Y037382D01*
X04637Y037478D01*
X046358Y037573D01*
X046321Y037663D01*
X046262Y03774D01*
X046185Y037798D01*
X046096Y037835D01*
X046Y037848D01*
D02*
G37*
G36*
Y035848D02*
X045904Y035835D01*
X045815Y035798D01*
X045738Y03574D01*
X045679Y035663D01*
X045642Y035573D01*
X04563Y035478D01*
X045642Y035382D01*
X045679Y035292D01*
X045738Y035216D01*
X045815Y035157D01*
X045904Y03512D01*
X046Y035107D01*
X046096Y03512D01*
X046185Y035157D01*
X046262Y035216D01*
X046321Y035292D01*
X046358Y035382D01*
X04637Y035478D01*
X046358Y035573D01*
X046321Y035663D01*
X046262Y03574D01*
X046185Y035798D01*
X046096Y035835D01*
X046Y035848D01*
D02*
G37*
G36*
Y034848D02*
X045904Y034835D01*
X045815Y034798D01*
X045738Y03474D01*
X045679Y034663D01*
X045642Y034573D01*
X04563Y034478D01*
X045642Y034382D01*
X045679Y034292D01*
X045738Y034216D01*
X045815Y034157D01*
X045904Y03412D01*
X046Y034107D01*
X046096Y03412D01*
X046185Y034157D01*
X046262Y034216D01*
X046321Y034292D01*
X046358Y034382D01*
X04637Y034478D01*
X046358Y034573D01*
X046321Y034663D01*
X046262Y03474D01*
X046185Y034798D01*
X046096Y034835D01*
X046Y034848D01*
D02*
G37*
G36*
Y033848D02*
X045904Y033835D01*
X045815Y033798D01*
X045738Y03374D01*
X045679Y033663D01*
X045642Y033573D01*
X04563Y033478D01*
X045642Y033382D01*
X045679Y033292D01*
X045738Y033216D01*
X045815Y033157D01*
X045904Y03312D01*
X046Y033107D01*
X046096Y03312D01*
X046185Y033157D01*
X046262Y033216D01*
X046321Y033292D01*
X046358Y033382D01*
X04637Y033478D01*
X046358Y033573D01*
X046321Y033663D01*
X046262Y03374D01*
X046185Y033798D01*
X046096Y033835D01*
X046Y033848D01*
D02*
G37*
G36*
Y032848D02*
X045904Y032835D01*
X045815Y032798D01*
X045738Y03274D01*
X045679Y032663D01*
X045642Y032573D01*
X04563Y032478D01*
X045642Y032382D01*
X045679Y032292D01*
X045738Y032216D01*
X045815Y032157D01*
X045904Y03212D01*
X046Y032107D01*
X046096Y03212D01*
X046185Y032157D01*
X046262Y032216D01*
X046321Y032292D01*
X046358Y032382D01*
X04637Y032478D01*
X046358Y032573D01*
X046321Y032663D01*
X046262Y03274D01*
X046185Y032798D01*
X046096Y032835D01*
X046Y032848D01*
D02*
G37*
G36*
X0549Y032303D02*
X054809Y032291D01*
X054723Y032256D01*
X05465Y0322D01*
X054594Y032127D01*
X054559Y032041D01*
X054547Y03195D01*
X054559Y031859D01*
X054565Y031844D01*
X054376Y031656D01*
X054341Y031603D01*
X054329Y031541D01*
Y028909D01*
X054341Y028847D01*
X054376Y028794D01*
X055385Y027786D01*
X055357Y027719D01*
X055342Y0276D01*
X055357Y027481D01*
X055403Y027371D01*
X055476Y027276D01*
X055571Y027203D01*
X055681Y027157D01*
X0558Y027142D01*
X055919Y027157D01*
X056029Y027203D01*
X056124Y027276D01*
X056197Y027371D01*
X056243Y027481D01*
X056258Y0276D01*
X056243Y027719D01*
X056197Y027829D01*
X056124Y027924D01*
X056029Y027997D01*
X055919Y028043D01*
X0558Y028058D01*
X055681Y028043D01*
X055614Y028015D01*
X054653Y028976D01*
Y030542D01*
X054698Y030564D01*
X054723Y030544D01*
X054809Y030509D01*
X0549Y030497D01*
X054991Y030509D01*
X055006Y030515D01*
X055965Y029556D01*
X055959Y029541D01*
X055947Y02945D01*
X055959Y029359D01*
X055994Y029273D01*
X056014Y029248D01*
X055992Y029203D01*
X055876D01*
X055735Y029344D01*
X055741Y029359D01*
X055753Y02945D01*
X055741Y029541D01*
X055706Y029627D01*
X05565Y0297D01*
X055577Y029756D01*
X055491Y029791D01*
X0554Y029803D01*
X055309Y029791D01*
X055223Y029756D01*
X05515Y0297D01*
X055094Y029627D01*
X055059Y029541D01*
X055047Y02945D01*
X055059Y029359D01*
X055094Y029273D01*
X05515Y0292D01*
X055223Y029144D01*
X055309Y029109D01*
X0554Y029097D01*
X055491Y029109D01*
X055506Y029115D01*
X055694Y028926D01*
X055747Y028891D01*
X055809Y028879D01*
X056292D01*
X057385Y027786D01*
X057357Y027719D01*
X057342Y0276D01*
X057357Y027481D01*
X057403Y027371D01*
X057476Y027276D01*
X057571Y027203D01*
X057681Y027157D01*
X0578Y027142D01*
X057919Y027157D01*
X058029Y027203D01*
X058124Y027276D01*
X058197Y027371D01*
X058243Y027481D01*
X058258Y0276D01*
X058243Y027719D01*
X058197Y027829D01*
X058124Y027924D01*
X058029Y027997D01*
X057919Y028043D01*
X0578Y028058D01*
X057681Y028043D01*
X057614Y028015D01*
X056508Y029121D01*
X056511Y029171D01*
X05655Y0292D01*
X056606Y029273D01*
X056612Y029288D01*
X056883D01*
X058385Y027786D01*
X058357Y027719D01*
X058342Y0276D01*
X058357Y027481D01*
X058403Y027371D01*
X058476Y027276D01*
X058571Y027203D01*
X058681Y027157D01*
X0588Y027142D01*
X058919Y027157D01*
X059029Y027203D01*
X059124Y027276D01*
X059197Y027371D01*
X059243Y027481D01*
X059258Y0276D01*
X059243Y027719D01*
X059197Y027829D01*
X059124Y027924D01*
X059029Y027997D01*
X058919Y028043D01*
X0588Y028058D01*
X058681Y028043D01*
X058614Y028015D01*
X057065Y029565D01*
X057012Y0296D01*
X05695Y029612D01*
X056612D01*
X056606Y029627D01*
X05655Y0297D01*
X056477Y029756D01*
X056391Y029791D01*
X0563Y029803D01*
X056209Y029791D01*
X056194Y029785D01*
X055235Y030744D01*
X055241Y030759D01*
X055253Y03085D01*
X055241Y030941D01*
X055206Y031027D01*
X05515Y0311D01*
X055077Y031156D01*
X054991Y031191D01*
X0549Y031203D01*
X054809Y031191D01*
X054723Y031156D01*
X054698Y031136D01*
X054653Y031158D01*
Y031474D01*
X054794Y031615D01*
X054809Y031609D01*
X0549Y031597D01*
X054991Y031609D01*
X055077Y031644D01*
X05515Y0317D01*
X055206Y031773D01*
X055241Y031859D01*
X055253Y03195D01*
X055241Y032041D01*
X055206Y032127D01*
X05515Y0322D01*
X055077Y032256D01*
X054991Y032291D01*
X0549Y032303D01*
D02*
G37*
G36*
X052Y032211D02*
X051857Y032197D01*
X051719Y032155D01*
X051593Y032087D01*
X051481Y031996D01*
X05139Y031885D01*
X051322Y031758D01*
X051281Y031621D01*
X051267Y031478D01*
X051281Y031334D01*
X051322Y031197D01*
X05139Y03107D01*
X051481Y030959D01*
X051593Y030868D01*
X051719Y0308D01*
X051857Y030758D01*
X052Y030744D01*
X052143Y030758D01*
X052281Y0308D01*
X052407Y030868D01*
X052519Y030959D01*
X05261Y03107D01*
X052678Y031197D01*
X052719Y031334D01*
X052733Y031478D01*
X052719Y031621D01*
X052678Y031758D01*
X05261Y031885D01*
X052519Y031996D01*
X052407Y032087D01*
X052281Y032155D01*
X052143Y032197D01*
X052Y032211D01*
D02*
G37*
G36*
X063Y03233D02*
X062834Y032313D01*
X062674Y032265D01*
X062527Y032186D01*
X062397Y03208D01*
X062291Y031951D01*
X062213Y031804D01*
X062164Y031644D01*
X062148Y031478D01*
X062164Y031311D01*
X062213Y031151D01*
X062291Y031004D01*
X062397Y030875D01*
X062527Y030769D01*
X062674Y03069D01*
X062834Y030642D01*
X063Y030625D01*
X063166Y030642D01*
X063326Y03069D01*
X063473Y030769D01*
X063603Y030875D01*
X063709Y031004D01*
X063787Y031151D01*
X063836Y031311D01*
X063852Y031478D01*
X063836Y031644D01*
X063787Y031804D01*
X063709Y031951D01*
X063603Y03208D01*
X063473Y032186D01*
X063326Y032265D01*
X063166Y032313D01*
X063Y03233D01*
D02*
G37*
G36*
X05985Y028052D02*
Y02765D01*
X060252D01*
X060243Y027719D01*
X060197Y027829D01*
X060124Y027924D01*
X060029Y027997D01*
X059919Y028043D01*
X05985Y028052D01*
D02*
G37*
G36*
X05975D02*
X059681Y028043D01*
X059571Y027997D01*
X059476Y027924D01*
X059403Y027829D01*
X059357Y027719D01*
X059348Y02765D01*
X05975D01*
Y028052D01*
D02*
G37*
G36*
X060252Y02755D02*
X05985D01*
Y027148D01*
X059919Y027157D01*
X060029Y027203D01*
X060124Y027276D01*
X060197Y027371D01*
X060243Y027481D01*
X060252Y02755D01*
D02*
G37*
G36*
X05975D02*
X059348D01*
X059357Y027481D01*
X059403Y027371D01*
X059476Y027276D01*
X059571Y027203D01*
X059681Y027157D01*
X05975Y027148D01*
Y02755D01*
D02*
G37*
G36*
X063254Y028054D02*
X062346D01*
Y027146D01*
X063254D01*
Y028054D01*
D02*
G37*
G36*
X0618Y028058D02*
X061681Y028043D01*
X061571Y027997D01*
X061476Y027924D01*
X061403Y027829D01*
X061357Y027719D01*
X061342Y0276D01*
X061357Y027481D01*
X061403Y027371D01*
X061476Y027276D01*
X061571Y027203D01*
X061681Y027157D01*
X0618Y027142D01*
X061919Y027157D01*
X062029Y027203D01*
X062124Y027276D01*
X062197Y027371D01*
X062243Y027481D01*
X062258Y0276D01*
X062243Y027719D01*
X062197Y027829D01*
X062124Y027924D01*
X062029Y027997D01*
X061919Y028043D01*
X0618Y028058D01*
D02*
G37*
G36*
X0608D02*
X060681Y028043D01*
X060571Y027997D01*
X060476Y027924D01*
X060403Y027829D01*
X060357Y027719D01*
X060342Y0276D01*
X060357Y027481D01*
X060403Y027371D01*
X060476Y027276D01*
X060571Y027203D01*
X060681Y027157D01*
X0608Y027142D01*
X060919Y027157D01*
X061029Y027203D01*
X061124Y027276D01*
X061197Y027371D01*
X061243Y027481D01*
X061258Y0276D01*
X061243Y027719D01*
X061197Y027829D01*
X061124Y027924D01*
X061029Y027997D01*
X060919Y028043D01*
X0608Y028058D01*
D02*
G37*
G36*
X0568D02*
X056681Y028043D01*
X056571Y027997D01*
X056476Y027924D01*
X056403Y027829D01*
X056357Y027719D01*
X056342Y0276D01*
X056357Y027481D01*
X056403Y027371D01*
X056476Y027276D01*
X056571Y027203D01*
X056681Y027157D01*
X0568Y027142D01*
X056919Y027157D01*
X057029Y027203D01*
X057124Y027276D01*
X057197Y027371D01*
X057243Y027481D01*
X057258Y0276D01*
X057243Y027719D01*
X057197Y027829D01*
X057124Y027924D01*
X057029Y027997D01*
X056919Y028043D01*
X0568Y028058D01*
D02*
G37*
G36*
X046Y036848D02*
X045904Y036835D01*
X045815Y036798D01*
X045738Y03674D01*
X045679Y036663D01*
X045642Y036573D01*
X04563Y036478D01*
X045642Y036382D01*
X045679Y036292D01*
X045738Y036216D01*
X045815Y036157D01*
X045904Y03612D01*
X046Y036107D01*
X046096Y03612D01*
X046185Y036157D01*
X046262Y036216D01*
X046321Y036292D01*
X04633Y036315D01*
X048405D01*
X053738Y030983D01*
Y029162D01*
X053723Y029156D01*
X05365Y0291D01*
X053594Y029027D01*
X053559Y028941D01*
X053547Y02885D01*
X053559Y028759D01*
X053594Y028673D01*
X05365Y0286D01*
X053723Y028544D01*
X053809Y028509D01*
X0539Y028497D01*
X053991Y028509D01*
X054006Y028515D01*
X054517Y028003D01*
X054514Y027953D01*
X054476Y027924D01*
X054403Y027829D01*
X054357Y027719D01*
X054342Y0276D01*
X054357Y027481D01*
X054403Y027371D01*
X054476Y027276D01*
X054571Y027203D01*
X054681Y027157D01*
X0548Y027142D01*
X054919Y027157D01*
X055029Y027203D01*
X055124Y027276D01*
X055197Y027371D01*
X055243Y027481D01*
X055258Y0276D01*
X055243Y027719D01*
X055197Y027829D01*
X055124Y027924D01*
X055029Y027997D01*
X054934Y028036D01*
X054915Y028065D01*
X054235Y028744D01*
X054241Y028759D01*
X054253Y02885D01*
X054241Y028941D01*
X054206Y029027D01*
X05415Y0291D01*
X054077Y029156D01*
X054062Y029162D01*
Y03105D01*
X05405Y031112D01*
X054015Y031165D01*
X048587Y036592D01*
X048534Y036627D01*
X048472Y03664D01*
X04633D01*
X046321Y036663D01*
X046262Y03674D01*
X046185Y036798D01*
X046096Y036835D01*
X046Y036848D01*
D02*
G37*
G36*
X0518Y028058D02*
X051681Y028043D01*
X051571Y027997D01*
X051476Y027924D01*
X051403Y027829D01*
X051357Y027719D01*
X051342Y0276D01*
X051357Y027481D01*
X051403Y027371D01*
X051476Y027276D01*
X051571Y027203D01*
X051681Y027157D01*
X0518Y027142D01*
X051919Y027157D01*
X052029Y027203D01*
X052124Y027276D01*
X052197Y027371D01*
X052243Y027481D01*
X052258Y0276D01*
X052243Y027719D01*
X052197Y027829D01*
X052124Y027924D01*
X052029Y027997D01*
X051919Y028043D01*
X0518Y028058D01*
D02*
G37*
G36*
X0508D02*
X050681Y028043D01*
X050571Y027997D01*
X050476Y027924D01*
X050403Y027829D01*
X050357Y027719D01*
X050342Y0276D01*
X050357Y027481D01*
X050403Y027371D01*
X050476Y027276D01*
X050571Y027203D01*
X050681Y027157D01*
X0508Y027142D01*
X050919Y027157D01*
X051029Y027203D01*
X051124Y027276D01*
X051197Y027371D01*
X051243Y027481D01*
X051258Y0276D01*
X051243Y027719D01*
X051197Y027829D01*
X051124Y027924D01*
X051029Y027997D01*
X050919Y028043D01*
X0508Y028058D01*
D02*
G37*
G36*
X0498D02*
X049681Y028043D01*
X049571Y027997D01*
X049476Y027924D01*
X049403Y027829D01*
X049357Y027719D01*
X049342Y0276D01*
X049357Y027481D01*
X049403Y027371D01*
X049476Y027276D01*
X049571Y027203D01*
X049681Y027157D01*
X0498Y027142D01*
X049919Y027157D01*
X050029Y027203D01*
X050124Y027276D01*
X050197Y027371D01*
X050243Y027481D01*
X050258Y0276D01*
X050243Y027719D01*
X050197Y027829D01*
X050124Y027924D01*
X050029Y027997D01*
X049919Y028043D01*
X0498Y028058D01*
D02*
G37*
G36*
X060179Y026733D02*
X060063D01*
X060053Y026731D01*
X060043D01*
X059929Y026708D01*
X059919Y026705D01*
X05991Y026703D01*
X059802Y026658D01*
X059794Y026653D01*
X059785Y026649D01*
X059688Y026584D01*
X059681Y026577D01*
X059672Y026571D01*
X05959Y026489D01*
X059585Y026481D01*
X059577Y026474D01*
X059513Y026377D01*
X059509Y026368D01*
X059503Y026359D01*
X059459Y026252D01*
X059457Y026242D01*
X059453Y026233D01*
X05943Y026119D01*
Y026109D01*
X059428Y026099D01*
Y025982D01*
X05943Y025973D01*
Y025962D01*
X059453Y025848D01*
X059457Y025839D01*
X059459Y025829D01*
X059503Y025722D01*
X059509Y025713D01*
X059513Y025704D01*
X059577Y025607D01*
X059585Y0256D01*
X05959Y025592D01*
X059672Y02551D01*
X059681Y025504D01*
X059688Y025497D01*
X059785Y025432D01*
X059794Y025429D01*
X059802Y025423D01*
X05991Y025378D01*
X059919Y025377D01*
X059929Y025373D01*
X060043Y02535D01*
X060053D01*
X060063Y025348D01*
X060179D01*
X060189Y02535D01*
X060199D01*
X060313Y025373D01*
X060322Y025377D01*
X060332Y025378D01*
X06044Y025423D01*
X060448Y025429D01*
X060457Y025432D01*
X060554Y025497D01*
X060561Y025504D01*
X060569Y02551D01*
X060652Y025592D01*
X060657Y0256D01*
X060664Y025607D01*
X060729Y025704D01*
X060733Y025713D01*
X060738Y025722D01*
X060783Y025829D01*
X060785Y025839D01*
X060789Y025848D01*
X060811Y025962D01*
Y025973D01*
X060813Y025982D01*
Y026099D01*
X060811Y026109D01*
Y026119D01*
X060789Y026233D01*
X060785Y026242D01*
X060783Y026252D01*
X060738Y026359D01*
X060733Y026368D01*
X060729Y026377D01*
X060664Y026474D01*
X060657Y026481D01*
X060652Y026489D01*
X060569Y026571D01*
X060561Y026577D01*
X060554Y026584D01*
X060457Y026649D01*
X060448Y026653D01*
X06044Y026658D01*
X060332Y026703D01*
X060322Y026705D01*
X060313Y026708D01*
X060199Y026731D01*
X060189D01*
X060179Y026733D01*
D02*
G37*
G36*
X04215Y022799D02*
X042047Y022785D01*
X041951Y022745D01*
X041868Y022682D01*
X041805Y022599D01*
X041765Y022503D01*
X041751Y0224D01*
X041765Y022297D01*
X041805Y022201D01*
X041868Y022118D01*
X041951Y022055D01*
X042047Y022015D01*
X04215Y022001D01*
X042253Y022015D01*
X042349Y022055D01*
X042432Y022118D01*
X042495Y022201D01*
X042535Y022297D01*
X042549Y0224D01*
X042535Y022503D01*
X042495Y022599D01*
X042432Y022682D01*
X042349Y022745D01*
X042253Y022785D01*
X04215Y022799D01*
D02*
G37*
G36*
X046Y022711D02*
X045857Y022697D01*
X045719Y022655D01*
X045593Y022587D01*
X045481Y022496D01*
X04539Y022385D01*
X045322Y022258D01*
X045281Y022121D01*
X045267Y021978D01*
X045281Y021834D01*
X045322Y021697D01*
X04539Y02157D01*
X045481Y021459D01*
X045593Y021368D01*
X045719Y0213D01*
X045857Y021258D01*
X046Y021244D01*
X046143Y021258D01*
X046281Y0213D01*
X046407Y021368D01*
X046519Y021459D01*
X04661Y02157D01*
X046678Y021697D01*
X046719Y021834D01*
X046733Y021978D01*
X046719Y022121D01*
X046678Y022258D01*
X04661Y022385D01*
X046519Y022496D01*
X046407Y022587D01*
X046281Y022655D01*
X046143Y022697D01*
X046Y022711D01*
D02*
G37*
G36*
X0508Y022058D02*
X050681Y022043D01*
X050571Y021997D01*
X050476Y021924D01*
X050403Y021829D01*
X050357Y021719D01*
X050342Y0216D01*
X050357Y021481D01*
X050403Y021371D01*
X050476Y021276D01*
X050571Y021203D01*
X050681Y021157D01*
X0508Y021142D01*
X050919Y021157D01*
X051029Y021203D01*
X051124Y021276D01*
X051197Y021371D01*
X051243Y021481D01*
X051258Y0216D01*
X051243Y021719D01*
X051197Y021829D01*
X051124Y021924D01*
X051029Y021997D01*
X050919Y022043D01*
X0508Y022058D01*
D02*
G37*
G36*
X0498D02*
X049681Y022043D01*
X049571Y021997D01*
X049476Y021924D01*
X049403Y021829D01*
X049357Y021719D01*
X049342Y0216D01*
X049357Y021481D01*
X049403Y021371D01*
X049476Y021276D01*
X049571Y021203D01*
X049681Y021157D01*
X0498Y021142D01*
X049919Y021157D01*
X050029Y021203D01*
X050124Y021276D01*
X050197Y021371D01*
X050243Y021481D01*
X050258Y0216D01*
X050243Y021719D01*
X050197Y021829D01*
X050124Y021924D01*
X050029Y021997D01*
X049919Y022043D01*
X0498Y022058D01*
D02*
G37*
G36*
X0488Y022803D02*
X048709Y022791D01*
X048623Y022756D01*
X04855Y0227D01*
X048494Y022627D01*
X048459Y022541D01*
X048447Y02245D01*
X048459Y022359D01*
X048465Y022344D01*
X047459Y021338D01*
X047424Y021286D01*
X047411Y021224D01*
Y02055D01*
X047361Y020546D01*
X047358Y020573D01*
X047321Y020663D01*
X047262Y02074D01*
X047185Y020798D01*
X047096Y020835D01*
X047Y020848D01*
X046904Y020835D01*
X046815Y020798D01*
X046738Y02074D01*
X046679Y020663D01*
X046642Y020573D01*
X04663Y020478D01*
X046642Y020382D01*
X046679Y020292D01*
X046738Y020216D01*
X046815Y020157D01*
X046904Y02012D01*
X047Y020107D01*
X047096Y02012D01*
X047185Y020157D01*
X047262Y020216D01*
X047321Y020292D01*
X047358Y020382D01*
X047361Y020409D01*
X047411Y020406D01*
Y020118D01*
X047119Y019826D01*
X047096Y019835D01*
X047Y019848D01*
X046904Y019835D01*
X046815Y019798D01*
X046738Y01974D01*
X046679Y019663D01*
X046642Y019573D01*
X04663Y019478D01*
X046642Y019382D01*
X046679Y019292D01*
X046738Y019216D01*
X046815Y019157D01*
X046904Y01912D01*
X047Y019107D01*
X047096Y01912D01*
X047185Y019157D01*
X047262Y019216D01*
X047321Y019292D01*
X047358Y019382D01*
X04737Y019478D01*
X047358Y019573D01*
X047348Y019597D01*
X047688Y019937D01*
X047723Y019989D01*
X047736Y020051D01*
Y020154D01*
X047786Y020179D01*
X047815Y020157D01*
X047904Y02012D01*
X048Y020107D01*
X048096Y02012D01*
X048185Y020157D01*
X048262Y020216D01*
X048321Y020292D01*
X048358Y020382D01*
X04837Y020478D01*
X048358Y020573D01*
X048321Y020663D01*
X048262Y02074D01*
X048185Y020798D01*
X048096Y020835D01*
X048Y020848D01*
X047904Y020835D01*
X047815Y020798D01*
X047786Y020776D01*
X047736Y020801D01*
Y021156D01*
X048312Y021733D01*
X048356Y021706D01*
X048342Y0216D01*
X048357Y021481D01*
X048403Y021371D01*
X048476Y021276D01*
X048571Y021203D01*
X048681Y021157D01*
X0488Y021142D01*
X048919Y021157D01*
X049029Y021203D01*
X049124Y021276D01*
X049197Y021371D01*
X049243Y021481D01*
X049258Y0216D01*
X049243Y021719D01*
X049197Y021829D01*
X049124Y021924D01*
X049029Y021997D01*
X048919Y022043D01*
X048844Y022052D01*
Y022103D01*
X048891Y022109D01*
X048977Y022144D01*
X04905Y0222D01*
X049106Y022273D01*
X049141Y022359D01*
X049153Y02245D01*
X049141Y022541D01*
X049106Y022627D01*
X04905Y0227D01*
X048977Y022756D01*
X048891Y022791D01*
X0488Y022803D01*
D02*
G37*
G36*
X062Y020848D02*
X061904Y020835D01*
X061815Y020798D01*
X061738Y02074D01*
X061679Y020663D01*
X061642Y020573D01*
X06163Y020478D01*
X061642Y020382D01*
X061679Y020292D01*
X061738Y020216D01*
X061815Y020157D01*
X061904Y02012D01*
X062Y020107D01*
X062096Y02012D01*
X062185Y020157D01*
X062262Y020216D01*
X062321Y020292D01*
X062358Y020382D01*
X06237Y020478D01*
X062358Y020573D01*
X062321Y020663D01*
X062262Y02074D01*
X062185Y020798D01*
X062096Y020835D01*
X062Y020848D01*
D02*
G37*
G36*
X061D02*
X060904Y020835D01*
X060815Y020798D01*
X060738Y02074D01*
X060679Y020663D01*
X060642Y020573D01*
X06063Y020478D01*
X060642Y020382D01*
X060679Y020292D01*
X060738Y020216D01*
X060815Y020157D01*
X060904Y02012D01*
X061Y020107D01*
X061096Y02012D01*
X061185Y020157D01*
X061262Y020216D01*
X061321Y020292D01*
X061358Y020382D01*
X06137Y020478D01*
X061358Y020573D01*
X061321Y020663D01*
X061262Y02074D01*
X061185Y020798D01*
X061096Y020835D01*
X061Y020848D01*
D02*
G37*
G36*
X06D02*
X059904Y020835D01*
X059815Y020798D01*
X059738Y02074D01*
X059679Y020663D01*
X059642Y020573D01*
X05963Y020478D01*
X059642Y020382D01*
X059679Y020292D01*
X059738Y020216D01*
X059815Y020157D01*
X059904Y02012D01*
X06Y020107D01*
X060096Y02012D01*
X060185Y020157D01*
X060262Y020216D01*
X060321Y020292D01*
X060358Y020382D01*
X06037Y020478D01*
X060358Y020573D01*
X060321Y020663D01*
X060262Y02074D01*
X060185Y020798D01*
X060096Y020835D01*
X06Y020848D01*
D02*
G37*
G36*
X059D02*
X058904Y020835D01*
X058815Y020798D01*
X058738Y02074D01*
X058679Y020663D01*
X058642Y020573D01*
X05863Y020478D01*
X058642Y020382D01*
X058679Y020292D01*
X058738Y020216D01*
X058815Y020157D01*
X058904Y02012D01*
X059Y020107D01*
X059096Y02012D01*
X059185Y020157D01*
X059262Y020216D01*
X059321Y020292D01*
X059358Y020382D01*
X05937Y020478D01*
X059358Y020573D01*
X059321Y020663D01*
X059262Y02074D01*
X059185Y020798D01*
X059096Y020835D01*
X059Y020848D01*
D02*
G37*
G36*
X058D02*
X057904Y020835D01*
X057815Y020798D01*
X057738Y02074D01*
X057679Y020663D01*
X057642Y020573D01*
X05763Y020478D01*
X057642Y020382D01*
X057679Y020292D01*
X057738Y020216D01*
X057815Y020157D01*
X057904Y02012D01*
X058Y020107D01*
X058096Y02012D01*
X058185Y020157D01*
X058262Y020216D01*
X058321Y020292D01*
X058358Y020382D01*
X05837Y020478D01*
X058358Y020573D01*
X058321Y020663D01*
X058262Y02074D01*
X058185Y020798D01*
X058096Y020835D01*
X058Y020848D01*
D02*
G37*
G36*
X057D02*
X056904Y020835D01*
X056815Y020798D01*
X056738Y02074D01*
X056679Y020663D01*
X056642Y020573D01*
X05663Y020478D01*
X056642Y020382D01*
X056679Y020292D01*
X056738Y020216D01*
X056815Y020157D01*
X056904Y02012D01*
X057Y020107D01*
X057096Y02012D01*
X057185Y020157D01*
X057262Y020216D01*
X057321Y020292D01*
X057358Y020382D01*
X05737Y020478D01*
X057358Y020573D01*
X057321Y020663D01*
X057262Y02074D01*
X057185Y020798D01*
X057096Y020835D01*
X057Y020848D01*
D02*
G37*
G36*
X056D02*
X055904Y020835D01*
X055815Y020798D01*
X055738Y02074D01*
X055679Y020663D01*
X055642Y020573D01*
X05563Y020478D01*
X055642Y020382D01*
X055679Y020292D01*
X055738Y020216D01*
X055815Y020157D01*
X055904Y02012D01*
X056Y020107D01*
X056096Y02012D01*
X056185Y020157D01*
X056262Y020216D01*
X056321Y020292D01*
X056358Y020382D01*
X05637Y020478D01*
X056358Y020573D01*
X056321Y020663D01*
X056262Y02074D01*
X056185Y020798D01*
X056096Y020835D01*
X056Y020848D01*
D02*
G37*
G36*
X055D02*
X054904Y020835D01*
X054815Y020798D01*
X054738Y02074D01*
X054679Y020663D01*
X054642Y020573D01*
X05463Y020478D01*
X054642Y020382D01*
X054679Y020292D01*
X054738Y020216D01*
X054815Y020157D01*
X054904Y02012D01*
X055Y020107D01*
X055096Y02012D01*
X055185Y020157D01*
X055262Y020216D01*
X055321Y020292D01*
X055358Y020382D01*
X05537Y020478D01*
X055358Y020573D01*
X055321Y020663D01*
X055262Y02074D01*
X055185Y020798D01*
X055096Y020835D01*
X055Y020848D01*
D02*
G37*
G36*
X054D02*
X053904Y020835D01*
X053815Y020798D01*
X053738Y02074D01*
X053679Y020663D01*
X053642Y020573D01*
X05363Y020478D01*
X053642Y020382D01*
X053679Y020292D01*
X053738Y020216D01*
X053815Y020157D01*
X053904Y02012D01*
X054Y020107D01*
X054096Y02012D01*
X054185Y020157D01*
X054262Y020216D01*
X054321Y020292D01*
X054358Y020382D01*
X05437Y020478D01*
X054358Y020573D01*
X054321Y020663D01*
X054262Y02074D01*
X054185Y020798D01*
X054096Y020835D01*
X054Y020848D01*
D02*
G37*
G36*
X053D02*
X052904Y020835D01*
X052815Y020798D01*
X052738Y02074D01*
X052679Y020663D01*
X052642Y020573D01*
X05263Y020478D01*
X052642Y020382D01*
X052679Y020292D01*
X052738Y020216D01*
X052815Y020157D01*
X052904Y02012D01*
X053Y020107D01*
X053096Y02012D01*
X053185Y020157D01*
X053262Y020216D01*
X053321Y020292D01*
X053358Y020382D01*
X05337Y020478D01*
X053358Y020573D01*
X053321Y020663D01*
X053262Y02074D01*
X053185Y020798D01*
X053096Y020835D01*
X053Y020848D01*
D02*
G37*
G36*
X052D02*
X051904Y020835D01*
X051815Y020798D01*
X051738Y02074D01*
X051679Y020663D01*
X051642Y020573D01*
X05163Y020478D01*
X051642Y020382D01*
X051679Y020292D01*
X051738Y020216D01*
X051815Y020157D01*
X051904Y02012D01*
X052Y020107D01*
X052096Y02012D01*
X052185Y020157D01*
X052262Y020216D01*
X052321Y020292D01*
X052358Y020382D01*
X05237Y020478D01*
X052358Y020573D01*
X052321Y020663D01*
X052262Y02074D01*
X052185Y020798D01*
X052096Y020835D01*
X052Y020848D01*
D02*
G37*
G36*
X051D02*
X050904Y020835D01*
X050815Y020798D01*
X050738Y02074D01*
X050679Y020663D01*
X050642Y020573D01*
X05063Y020478D01*
X050642Y020382D01*
X050679Y020292D01*
X050738Y020216D01*
X050815Y020157D01*
X050904Y02012D01*
X051Y020107D01*
X051096Y02012D01*
X051185Y020157D01*
X051262Y020216D01*
X051321Y020292D01*
X051358Y020382D01*
X05137Y020478D01*
X051358Y020573D01*
X051321Y020663D01*
X051262Y02074D01*
X051185Y020798D01*
X051096Y020835D01*
X051Y020848D01*
D02*
G37*
G36*
X05D02*
X049904Y020835D01*
X049815Y020798D01*
X049738Y02074D01*
X049679Y020663D01*
X049642Y020573D01*
X04963Y020478D01*
X049642Y020382D01*
X049679Y020292D01*
X049738Y020216D01*
X049815Y020157D01*
X049904Y02012D01*
X05Y020107D01*
X050096Y02012D01*
X050185Y020157D01*
X050262Y020216D01*
X050321Y020292D01*
X050358Y020382D01*
X05037Y020478D01*
X050358Y020573D01*
X050321Y020663D01*
X050262Y02074D01*
X050185Y020798D01*
X050096Y020835D01*
X05Y020848D01*
D02*
G37*
G36*
X049D02*
X048904Y020835D01*
X048815Y020798D01*
X048738Y02074D01*
X048679Y020663D01*
X048642Y020573D01*
X04863Y020478D01*
X048642Y020382D01*
X048679Y020292D01*
X048738Y020216D01*
X048815Y020157D01*
X048904Y02012D01*
X049Y020107D01*
X049096Y02012D01*
X049185Y020157D01*
X049262Y020216D01*
X049321Y020292D01*
X049358Y020382D01*
X04937Y020478D01*
X049358Y020573D01*
X049321Y020663D01*
X049262Y02074D01*
X049185Y020798D01*
X049096Y020835D01*
X049Y020848D01*
D02*
G37*
G36*
X046D02*
X045904Y020835D01*
X045815Y020798D01*
X045738Y02074D01*
X045679Y020663D01*
X045642Y020573D01*
X04563Y020478D01*
X045642Y020382D01*
X045679Y020292D01*
X045738Y020216D01*
X045815Y020157D01*
X045904Y02012D01*
X046Y020107D01*
X046096Y02012D01*
X046185Y020157D01*
X046262Y020216D01*
X046321Y020292D01*
X046358Y020382D01*
X04637Y020478D01*
X046358Y020573D01*
X046321Y020663D01*
X046262Y02074D01*
X046185Y020798D01*
X046096Y020835D01*
X046Y020848D01*
D02*
G37*
G36*
X062Y019848D02*
X061904Y019835D01*
X061815Y019798D01*
X061738Y01974D01*
X061679Y019663D01*
X061642Y019573D01*
X06163Y019478D01*
X061642Y019382D01*
X061679Y019292D01*
X061738Y019216D01*
X061815Y019157D01*
X061904Y01912D01*
X062Y019107D01*
X062096Y01912D01*
X062185Y019157D01*
X062262Y019216D01*
X062321Y019292D01*
X062358Y019382D01*
X06237Y019478D01*
X062358Y019573D01*
X062321Y019663D01*
X062262Y01974D01*
X062185Y019798D01*
X062096Y019835D01*
X062Y019848D01*
D02*
G37*
G36*
X061D02*
X060904Y019835D01*
X060815Y019798D01*
X060738Y01974D01*
X060679Y019663D01*
X060642Y019573D01*
X06063Y019478D01*
X060642Y019382D01*
X060679Y019292D01*
X060738Y019216D01*
X060815Y019157D01*
X060904Y01912D01*
X061Y019107D01*
X061096Y01912D01*
X061185Y019157D01*
X061262Y019216D01*
X061321Y019292D01*
X061358Y019382D01*
X06137Y019478D01*
X061358Y019573D01*
X061321Y019663D01*
X061262Y01974D01*
X061185Y019798D01*
X061096Y019835D01*
X061Y019848D01*
D02*
G37*
G36*
X06D02*
X059904Y019835D01*
X059815Y019798D01*
X059738Y01974D01*
X059679Y019663D01*
X059642Y019573D01*
X05963Y019478D01*
X059642Y019382D01*
X059679Y019292D01*
X059738Y019216D01*
X059815Y019157D01*
X059904Y01912D01*
X06Y019107D01*
X060096Y01912D01*
X060185Y019157D01*
X060262Y019216D01*
X060321Y019292D01*
X060358Y019382D01*
X06037Y019478D01*
X060358Y019573D01*
X060321Y019663D01*
X060262Y01974D01*
X060185Y019798D01*
X060096Y019835D01*
X06Y019848D01*
D02*
G37*
G36*
X059D02*
X058904Y019835D01*
X058815Y019798D01*
X058738Y01974D01*
X058679Y019663D01*
X058642Y019573D01*
X05863Y019478D01*
X058642Y019382D01*
X058679Y019292D01*
X058738Y019216D01*
X058815Y019157D01*
X058904Y01912D01*
X059Y019107D01*
X059096Y01912D01*
X059185Y019157D01*
X059262Y019216D01*
X059321Y019292D01*
X059358Y019382D01*
X05937Y019478D01*
X059358Y019573D01*
X059321Y019663D01*
X059262Y01974D01*
X059185Y019798D01*
X059096Y019835D01*
X059Y019848D01*
D02*
G37*
G36*
X053D02*
X052904Y019835D01*
X052815Y019798D01*
X052738Y01974D01*
X052679Y019663D01*
X052642Y019573D01*
X05263Y019478D01*
X052642Y019382D01*
X052679Y019292D01*
X052738Y019216D01*
X052815Y019157D01*
X052904Y01912D01*
X053Y019107D01*
X053096Y01912D01*
X053185Y019157D01*
X053262Y019216D01*
X053321Y019292D01*
X053358Y019382D01*
X05337Y019478D01*
X053358Y019573D01*
X053321Y019663D01*
X053262Y01974D01*
X053185Y019798D01*
X053096Y019835D01*
X053Y019848D01*
D02*
G37*
G36*
X054D02*
X053904Y019835D01*
X053815Y019798D01*
X053738Y01974D01*
X053679Y019663D01*
X053642Y019573D01*
X05363Y019478D01*
X053642Y019382D01*
X053652Y019359D01*
X052755Y018462D01*
X049967D01*
X04995Y018512D01*
X05Y01855D01*
X050056Y018623D01*
X050062Y018638D01*
X051322D01*
X051385Y01865D01*
X051437Y018685D01*
X051881Y019129D01*
X051904Y01912D01*
X052Y019107D01*
X052096Y01912D01*
X052185Y019157D01*
X052262Y019216D01*
X052321Y019292D01*
X052358Y019382D01*
X05237Y019478D01*
X052358Y019573D01*
X052321Y019663D01*
X052262Y01974D01*
X052185Y019798D01*
X052096Y019835D01*
X052Y019848D01*
X051904Y019835D01*
X051815Y019798D01*
X051738Y01974D01*
X051679Y019663D01*
X051642Y019573D01*
X05163Y019478D01*
X051642Y019382D01*
X051652Y019359D01*
X051255Y018962D01*
X050062D01*
X050056Y018977D01*
X05Y01905D01*
X049989Y019058D01*
X049996Y019092D01*
X050006Y019108D01*
X050096Y01912D01*
X050185Y019157D01*
X050262Y019216D01*
X050321Y019292D01*
X050358Y019382D01*
X05037Y019478D01*
X050358Y019573D01*
X050321Y019663D01*
X050262Y01974D01*
X050185Y019798D01*
X050096Y019835D01*
X05Y019848D01*
X049904Y019835D01*
X049815Y019798D01*
X049738Y01974D01*
X049679Y019663D01*
X049642Y019573D01*
X04963Y019478D01*
X049642Y019382D01*
X049679Y019292D01*
X049738Y019216D01*
X049755Y019202D01*
X049753Y019181D01*
X049739Y019152D01*
X049659Y019141D01*
X049573Y019106D01*
X0495Y01905D01*
X049444Y018977D01*
X049409Y018891D01*
X049397Y0188D01*
X049409Y018709D01*
X04943Y018658D01*
X049392Y01862D01*
X049341Y018641D01*
X04925Y018653D01*
X049159Y018641D01*
X049073Y018606D01*
X049Y01855D01*
X048944Y018477D01*
X048909Y018391D01*
X048897Y0183D01*
X048909Y018209D01*
X048944Y018123D01*
X049Y01805D01*
X049073Y017994D01*
X049159Y017959D01*
X04925Y017947D01*
X049341Y017959D01*
X049427Y017994D01*
X0495Y01805D01*
X049556Y018123D01*
X049562Y018138D01*
X052822D01*
X052884Y01815D01*
X052937Y018185D01*
X053881Y019129D01*
X053904Y01912D01*
X054Y019107D01*
X054096Y01912D01*
X054185Y019157D01*
X054262Y019216D01*
X054321Y019292D01*
X054358Y019382D01*
X05437Y019478D01*
X054358Y019573D01*
X054321Y019663D01*
X054262Y01974D01*
X054185Y019798D01*
X054096Y019835D01*
X054Y019848D01*
D02*
G37*
G36*
X051D02*
X050904Y019835D01*
X050815Y019798D01*
X050738Y01974D01*
X050679Y019663D01*
X050642Y019573D01*
X05063Y019478D01*
X050642Y019382D01*
X050679Y019292D01*
X050738Y019216D01*
X050815Y019157D01*
X050904Y01912D01*
X051Y019107D01*
X051096Y01912D01*
X051185Y019157D01*
X051262Y019216D01*
X051321Y019292D01*
X051358Y019382D01*
X05137Y019478D01*
X051358Y019573D01*
X051321Y019663D01*
X051262Y01974D01*
X051185Y019798D01*
X051096Y019835D01*
X051Y019848D01*
D02*
G37*
G36*
X049D02*
X048904Y019835D01*
X048815Y019798D01*
X048738Y01974D01*
X048679Y019663D01*
X048642Y019573D01*
X04863Y019478D01*
X048642Y019382D01*
X048679Y019292D01*
X048738Y019216D01*
X048815Y019157D01*
X048904Y01912D01*
X049Y019107D01*
X049096Y01912D01*
X049185Y019157D01*
X049262Y019216D01*
X049321Y019292D01*
X049358Y019382D01*
X04937Y019478D01*
X049358Y019573D01*
X049321Y019663D01*
X049262Y01974D01*
X049185Y019798D01*
X049096Y019835D01*
X049Y019848D01*
D02*
G37*
G36*
X048D02*
X047904Y019835D01*
X047815Y019798D01*
X047738Y01974D01*
X047679Y019663D01*
X047642Y019573D01*
X04763Y019478D01*
X047642Y019382D01*
X047679Y019292D01*
X047738Y019216D01*
X047815Y019157D01*
X047904Y01912D01*
X048Y019107D01*
X048096Y01912D01*
X048185Y019157D01*
X048262Y019216D01*
X048321Y019292D01*
X048358Y019382D01*
X04837Y019478D01*
X048358Y019573D01*
X048321Y019663D01*
X048262Y01974D01*
X048185Y019798D01*
X048096Y019835D01*
X048Y019848D01*
D02*
G37*
G36*
X046D02*
X045904Y019835D01*
X045815Y019798D01*
X045738Y01974D01*
X045679Y019663D01*
X045642Y019573D01*
X04563Y019478D01*
X045642Y019382D01*
X045679Y019292D01*
X045738Y019216D01*
X045815Y019157D01*
X045904Y01912D01*
X046Y019107D01*
X046096Y01912D01*
X046185Y019157D01*
X046262Y019216D01*
X046321Y019292D01*
X046358Y019382D01*
X04637Y019478D01*
X046358Y019573D01*
X046321Y019663D01*
X046262Y01974D01*
X046185Y019798D01*
X046096Y019835D01*
X046Y019848D01*
D02*
G37*
%LPD*%
G36*
X035763Y04045D02*
Y039534D01*
X035775Y039472D01*
X03581Y039419D01*
X037488Y037742D01*
Y03015D01*
X0375Y030088D01*
X037535Y030035D01*
X038685Y028885D01*
X038738Y02885D01*
X0388Y028838D01*
X039488D01*
X039494Y028823D01*
X03955Y02875D01*
X039623Y028694D01*
X039709Y028659D01*
X0398Y028647D01*
X039891Y028659D01*
X039977Y028694D01*
X04005Y02875D01*
X040106Y028823D01*
X040141Y028909D01*
X040153Y029D01*
X040141Y029091D01*
X040106Y029177D01*
X040091Y029196D01*
X040111Y029252D01*
X040117Y029254D01*
X04022Y029151D01*
Y028703D01*
X04015Y02865D01*
X040094Y028577D01*
X040059Y028491D01*
X040047Y0284D01*
X040059Y028309D01*
X040094Y028223D01*
X04015Y02815D01*
X040223Y028094D01*
X040309Y028059D01*
X0404Y028047D01*
X040491Y028059D01*
X040577Y028094D01*
X040638Y028141D01*
X040688Y028124D01*
Y028062D01*
X040673Y028056D01*
X0406Y028D01*
X040544Y027927D01*
X040509Y027841D01*
X040497Y02775D01*
X040509Y027659D01*
X040544Y027573D01*
X0406Y0275D01*
X040673Y027444D01*
X040759Y027409D01*
X04085Y027397D01*
X040941Y027409D01*
X041027Y027444D01*
X0411Y0275D01*
X041156Y027573D01*
X041191Y027659D01*
X041203Y02775D01*
X041191Y027841D01*
X041156Y027927D01*
X0411Y028D01*
X041027Y028056D01*
X041012Y028062D01*
Y029058D01*
X041Y029121D01*
X040965Y029173D01*
X040355Y029783D01*
X040302Y029818D01*
X04024Y02983D01*
X04014D01*
X040123Y02988D01*
X040164Y029911D01*
X04024Y03001D01*
X040288Y030126D01*
X040304Y03025D01*
X040288Y030374D01*
X04024Y03049D01*
X040164Y030589D01*
X040065Y030665D01*
X039949Y030713D01*
X039858Y030725D01*
Y030775D01*
X039949Y030787D01*
X040065Y030835D01*
X040164Y030911D01*
X04024Y03101D01*
X040288Y031126D01*
X040298Y0312D01*
X03975D01*
X039202D01*
X039212Y031126D01*
X03926Y03101D01*
X039336Y030911D01*
X039435Y030835D01*
X039551Y030787D01*
X039642Y030775D01*
Y030725D01*
X039551Y030713D01*
X039435Y030665D01*
X039336Y030589D01*
X03926Y03049D01*
X039212Y030374D01*
X039196Y03025D01*
X039212Y030126D01*
X03926Y03001D01*
X039336Y029911D01*
X039377Y02988D01*
X03936Y02983D01*
X038816D01*
X038248Y030398D01*
Y032297D01*
X038295Y032316D01*
X039219Y031391D01*
X039212Y031374D01*
X039202Y0313D01*
X03975D01*
X040298D01*
X040288Y031374D01*
X04024Y03149D01*
X040164Y031589D01*
X040065Y031665D01*
X039949Y031713D01*
X039858Y031725D01*
Y031775D01*
X039949Y031787D01*
X040065Y031835D01*
X040164Y031911D01*
X04024Y03201D01*
X040288Y032126D01*
X040304Y03225D01*
X040288Y032374D01*
X04024Y03249D01*
X040164Y032589D01*
X040065Y032665D01*
X039949Y032713D01*
X039858Y032725D01*
Y032775D01*
X039949Y032787D01*
X040026Y032819D01*
X042348Y030497D01*
X042345Y030467D01*
X041581Y029703D01*
X041546Y02965D01*
X041533Y029588D01*
Y026938D01*
X040026Y025431D01*
X039949Y025463D01*
X039858Y025475D01*
Y025525D01*
X039949Y025537D01*
X040065Y025585D01*
X040164Y025661D01*
X04024Y02576D01*
X040288Y025876D01*
X040304Y026D01*
X040288Y026124D01*
X04024Y02624D01*
X040164Y026339D01*
X040065Y026415D01*
X039949Y026463D01*
X039856Y026475D01*
X039859Y026525D01*
X0403D01*
Y027475D01*
X0392D01*
Y02663D01*
X039154Y026611D01*
X036822Y028942D01*
Y034417D01*
X036822Y034417D01*
X036805Y034502D01*
X036757Y034575D01*
X036757Y034575D01*
X032082Y03925D01*
X032099Y039303D01*
X032154Y03931D01*
X032252Y039351D01*
X032335Y039415D01*
X032399Y039498D01*
X03244Y039596D01*
X032453Y0397D01*
X03244Y039804D01*
X032399Y039902D01*
X032335Y039985D01*
X032252Y040049D01*
X032154Y04009D01*
X03205Y040103D01*
X031946Y04009D01*
X031848Y040049D01*
X031804Y040016D01*
X031754Y04004D01*
Y04036D01*
X031804Y040384D01*
X031848Y040351D01*
X031946Y04031D01*
X03205Y040297D01*
X032154Y04031D01*
X032252Y040351D01*
X032335Y040415D01*
X032399Y040498D01*
X03244Y040596D01*
X032453Y0407D01*
X03244Y040804D01*
X032399Y040902D01*
X032335Y040985D01*
X032252Y041049D01*
X032154Y04109D01*
X03205Y041103D01*
X031946Y04109D01*
X031848Y041049D01*
X031804Y041016D01*
X031754Y04104D01*
Y04136D01*
X031804Y041384D01*
X031848Y041351D01*
X031946Y04131D01*
X03205Y041297D01*
X032154Y04131D01*
X032252Y041351D01*
X032335Y041415D01*
X032399Y041498D01*
X03244Y041596D01*
X032453Y0417D01*
X03244Y041804D01*
X032399Y041902D01*
X032335Y041985D01*
X032252Y042049D01*
X032154Y04209D01*
X03205Y042103D01*
X031946Y04209D01*
X031848Y042049D01*
X031804Y042016D01*
X031754Y04204D01*
Y04236D01*
X031804Y042384D01*
X031848Y042351D01*
X031946Y04231D01*
X03205Y042297D01*
X032154Y04231D01*
X032252Y042351D01*
X032335Y042415D01*
X032399Y042498D01*
X03244Y042596D01*
X032453Y0427D01*
X03244Y042804D01*
X032399Y042902D01*
X032335Y042985D01*
X032252Y043049D01*
X032154Y04309D01*
X03205Y043103D01*
X031946Y04309D01*
X031848Y043049D01*
X031804Y043016D01*
X031754Y04304D01*
Y04336D01*
X031804Y043384D01*
X031848Y043351D01*
X031946Y04331D01*
X03205Y043297D01*
X032154Y04331D01*
X032252Y043351D01*
X032335Y043415D01*
X032399Y043498D01*
X032416Y043538D01*
X032674D01*
X035763Y04045D01*
D02*
G37*
G36*
X037911Y039744D02*
Y038785D01*
X037923Y038723D01*
X037924Y038722D01*
Y038138D01*
X037878Y038119D01*
X036882Y039114D01*
X036905Y039162D01*
X03705Y039148D01*
X037216Y039164D01*
X037376Y039213D01*
X037523Y039291D01*
X037653Y039397D01*
X037759Y039527D01*
X037837Y039674D01*
X037861Y039751D01*
X037911Y039744D01*
D02*
G37*
G36*
X045701Y030692D02*
X045679Y030663D01*
X045642Y030573D01*
X04563Y030478D01*
X045642Y030382D01*
X045679Y030292D01*
X045738Y030216D01*
X045815Y030157D01*
X045904Y03012D01*
X045931Y030116D01*
X045928Y030066D01*
X044911D01*
X044892Y030112D01*
X045521Y030742D01*
X045677D01*
X045701Y030692D01*
D02*
G37*
G36*
X043665Y030144D02*
X04329Y02977D01*
X043253Y029785D01*
X04315Y029799D01*
X043047Y029785D01*
X042951Y029745D01*
X042868Y029682D01*
X042805Y029599D01*
X042765Y029503D01*
X042751Y0294D01*
X042765Y029297D01*
X042805Y029201D01*
X042868Y029118D01*
X042951Y029055D01*
X043047Y029015D01*
X04315Y029001D01*
X043253Y029015D01*
X043349Y029055D01*
X043432Y029118D01*
X043495Y029201D01*
X043535Y029297D01*
X043549Y0294D01*
X043535Y029503D01*
X04352Y02954D01*
X043951Y029972D01*
X044427D01*
X044447Y029926D01*
X04329Y02877D01*
X043253Y028785D01*
X04315Y028799D01*
X043047Y028785D01*
X042951Y028745D01*
X042868Y028682D01*
X042817Y028615D01*
X042766Y028632D01*
Y028946D01*
X042754Y029008D01*
X042719Y02906D01*
X04252Y02926D01*
X042535Y029297D01*
X042549Y0294D01*
X042535Y029503D01*
X042495Y029599D01*
X042432Y029682D01*
X042349Y029745D01*
X042253Y029785D01*
X0422Y029792D01*
X042182Y029845D01*
X042527Y03019D01*
X043646D01*
X043665Y030144D01*
D02*
G37*
G36*
X047452Y029169D02*
Y028393D01*
X047405Y028374D01*
X046665Y029115D01*
X046612Y02915D01*
X04655Y029162D01*
X04627D01*
X046254Y02921D01*
X046262Y029216D01*
X046321Y029292D01*
X046358Y029382D01*
X04637Y029478D01*
X046358Y029573D01*
X046321Y029663D01*
X046299Y029692D01*
X046323Y029742D01*
X046879D01*
X047452Y029169D01*
D02*
G37*
G36*
X045701Y029692D02*
X045679Y029663D01*
X045642Y029573D01*
X04563Y029478D01*
X045642Y029382D01*
X045679Y029292D01*
X045738Y029216D01*
X045746Y02921D01*
X04573Y029162D01*
X04475D01*
X044688Y02915D01*
X044635Y029115D01*
X04329Y02777D01*
X043253Y027785D01*
X04315Y027799D01*
X043047Y027785D01*
X042951Y027745D01*
X042868Y027682D01*
X042805Y027599D01*
X042765Y027503D01*
X042751Y0274D01*
X042765Y027297D01*
X042805Y027201D01*
X042868Y027118D01*
X042951Y027055D01*
X043047Y027015D01*
X04315Y027001D01*
X043253Y027015D01*
X043349Y027055D01*
X043432Y027118D01*
X043495Y027201D01*
X043535Y027297D01*
X043549Y0274D01*
X043535Y027503D01*
X04352Y02754D01*
X044817Y028838D01*
X045784D01*
X045801Y028788D01*
X045738Y02874D01*
X045679Y028663D01*
X045642Y028573D01*
X04563Y028478D01*
X045642Y028382D01*
X045679Y028292D01*
X045738Y028216D01*
X045746Y02821D01*
X04573Y028162D01*
X04475D01*
X044688Y02815D01*
X044635Y028115D01*
X04329Y02677D01*
X043253Y026785D01*
X04315Y026799D01*
X043047Y026785D01*
X042951Y026745D01*
X042868Y026682D01*
X04286Y026671D01*
X042812Y026687D01*
Y0269D01*
X0428Y026962D01*
X042765Y027015D01*
X04252Y02726D01*
X042535Y027297D01*
X042549Y0274D01*
X042535Y027503D01*
X04252Y02754D01*
X042719Y02774D01*
X042754Y027792D01*
X042766Y027854D01*
Y028168D01*
X042817Y028185D01*
X042868Y028118D01*
X042951Y028055D01*
X043047Y028015D01*
X04315Y028001D01*
X043253Y028015D01*
X043349Y028055D01*
X043432Y028118D01*
X043495Y028201D01*
X043535Y028297D01*
X043549Y0284D01*
X043535Y028503D01*
X04352Y02854D01*
X044721Y029742D01*
X045677D01*
X045701Y029692D01*
D02*
G37*
G36*
X047234Y028087D02*
Y027193D01*
X047187Y027174D01*
X046246Y028115D01*
X046228Y028127D01*
X046226Y028188D01*
X046262Y028216D01*
X046321Y028292D01*
X046358Y028382D01*
X04637Y028478D01*
X046358Y028573D01*
X046321Y028663D01*
X046262Y02874D01*
X046199Y028788D01*
X046216Y028838D01*
X046483D01*
X047234Y028087D01*
D02*
G37*
G36*
X047482Y026112D02*
X047462Y026066D01*
X046072D01*
X046069Y026116D01*
X046096Y02612D01*
X046185Y026157D01*
X046262Y026216D01*
X046321Y026292D01*
X046358Y026382D01*
X04637Y026478D01*
X046358Y026573D01*
X046321Y026663D01*
X046262Y02674D01*
X046199Y026788D01*
X046216Y026838D01*
X046756D01*
X047482Y026112D01*
D02*
G37*
G36*
X045801Y027788D02*
X045738Y02774D01*
X045679Y027663D01*
X045642Y027573D01*
X04563Y027478D01*
X045642Y027382D01*
X045679Y027292D01*
X045738Y027216D01*
X045746Y02721D01*
X04573Y027162D01*
X04475D01*
X044688Y02715D01*
X044635Y027115D01*
X04329Y02577D01*
X043253Y025785D01*
X04315Y025799D01*
X043047Y025785D01*
X042951Y025745D01*
X042868Y025682D01*
X042805Y025599D01*
X042765Y025503D01*
X042751Y0254D01*
X042765Y025297D01*
X042805Y025201D01*
X042868Y025118D01*
X042951Y025055D01*
X043047Y025015D01*
X04315Y025001D01*
X043253Y025015D01*
X043349Y025055D01*
X043432Y025118D01*
X043495Y025201D01*
X043535Y025297D01*
X043549Y0254D01*
X043535Y025503D01*
X04352Y02554D01*
X044817Y026838D01*
X045784D01*
X045801Y026788D01*
X045738Y02674D01*
X045679Y026663D01*
X045642Y026573D01*
X04563Y026478D01*
X045642Y026382D01*
X045679Y026292D01*
X045738Y026216D01*
X045815Y026157D01*
X045904Y02612D01*
X045931Y026116D01*
X045928Y026066D01*
X044654D01*
X044592Y026054D01*
X044539Y026019D01*
X04329Y02477D01*
X043253Y024785D01*
X04315Y024799D01*
X043047Y024785D01*
X042951Y024745D01*
X042868Y024682D01*
X04286Y024671D01*
X042812Y024687D01*
Y0249D01*
X0428Y024962D01*
X042765Y025015D01*
X04252Y02526D01*
X042535Y025297D01*
X042549Y0254D01*
X042535Y025503D01*
X04252Y02554D01*
X042765Y025785D01*
X0428Y025838D01*
X042812Y0259D01*
Y026113D01*
X04286Y026129D01*
X042868Y026118D01*
X042951Y026055D01*
X043047Y026015D01*
X04315Y026001D01*
X043253Y026015D01*
X043349Y026055D01*
X043432Y026118D01*
X043495Y026201D01*
X043535Y026297D01*
X043549Y0264D01*
X043535Y026503D01*
X04352Y02654D01*
X044817Y027838D01*
X045784D01*
X045801Y027788D01*
D02*
G37*
G36*
X048077Y025208D02*
X048058Y025162D01*
X04627D01*
X046254Y02521D01*
X046262Y025216D01*
X046321Y025292D01*
X046358Y025382D01*
X04637Y025478D01*
X046358Y025573D01*
X046321Y025663D01*
X046299Y025692D01*
X046323Y025742D01*
X047544D01*
X048077Y025208D01*
D02*
G37*
G36*
X058544Y022676D02*
X058525Y02263D01*
X058342D01*
X056764Y024208D01*
X056788Y024255D01*
X05685Y024247D01*
X056941Y024259D01*
X056956Y024265D01*
X058544Y022676D01*
D02*
G37*
G36*
X036378Y034325D02*
Y02885D01*
X036378Y02885D01*
X036395Y028765D01*
X036443Y028693D01*
X039205Y02593D01*
X039212Y025876D01*
X03926Y02576D01*
X039336Y025661D01*
X039435Y025585D01*
X039551Y025537D01*
X039642Y025525D01*
Y025475D01*
X039551Y025463D01*
X039435Y025415D01*
X039336Y025339D01*
X03926Y02524D01*
X039212Y025124D01*
X039196Y025D01*
X039212Y024876D01*
X03926Y02476D01*
X039336Y024661D01*
X039435Y024585D01*
X039551Y024537D01*
X039642Y024525D01*
Y024475D01*
X039551Y024463D01*
X039435Y024415D01*
X039336Y024339D01*
X03926Y02424D01*
X039212Y024124D01*
X039196Y024D01*
X039212Y023876D01*
X03926Y02376D01*
X039336Y023661D01*
X039435Y023585D01*
X039551Y023537D01*
X039642Y023525D01*
Y023475D01*
X039551Y023463D01*
X039435Y023415D01*
X039336Y023339D01*
X03926Y02324D01*
X039253Y023222D01*
X035592D01*
X031418Y027396D01*
Y039219D01*
X031464Y039239D01*
X036378Y034325D01*
D02*
G37*
G36*
X057789Y022107D02*
X057771Y022055D01*
X057681Y022043D01*
X057674Y022039D01*
X053517Y026196D01*
X053536Y026242D01*
X053655D01*
X057789Y022107D01*
D02*
G37*
G36*
X064411Y021719D02*
Y020758D01*
X0644Y02075D01*
X064344Y020677D01*
X064309Y020591D01*
X064297Y0205D01*
X064309Y020409D01*
X064344Y020323D01*
X0644Y02025D01*
X064473Y020194D01*
X064559Y020159D01*
X064608Y020152D01*
X064618Y020101D01*
X064593Y020087D01*
X064481Y019996D01*
X06439Y019885D01*
X064322Y019758D01*
X064293Y019661D01*
X064243Y019668D01*
Y021822D01*
X064289Y021841D01*
X064411Y021719D01*
D02*
G37*
%LPC*%
G36*
X03515Y032503D02*
X03505D01*
X034923Y032491D01*
X0348Y032453D01*
X034687Y032393D01*
X034588Y032312D01*
X034507Y032213D01*
X034447Y0321D01*
X034409Y031977D01*
X034397Y03185D01*
X034409Y031723D01*
X034447Y0316D01*
X034507Y031487D01*
X034588Y031388D01*
X034687Y031307D01*
X0348Y031247D01*
X034923Y031209D01*
X03505Y031197D01*
X03515D01*
X035277Y031209D01*
X0354Y031247D01*
X035513Y031307D01*
X035612Y031388D01*
X035693Y031487D01*
X035753Y0316D01*
X035791Y031723D01*
X035803Y03185D01*
X035791Y031977D01*
X035753Y0321D01*
X035693Y032213D01*
X035612Y032312D01*
X035513Y032393D01*
X0354Y032453D01*
X035277Y032491D01*
X03515Y032503D01*
D02*
G37*
G36*
Y030503D02*
X03505D01*
X034923Y030491D01*
X0348Y030453D01*
X034687Y030393D01*
X034588Y030312D01*
X034507Y030213D01*
X034447Y0301D01*
X034409Y029977D01*
X034397Y02985D01*
X034409Y029723D01*
X034447Y0296D01*
X034507Y029487D01*
X034588Y029388D01*
X034687Y029307D01*
X0348Y029247D01*
X034923Y029209D01*
X03505Y029197D01*
X03515D01*
X035277Y029209D01*
X0354Y029247D01*
X035513Y029307D01*
X035612Y029388D01*
X035693Y029487D01*
X035753Y0296D01*
X035791Y029723D01*
X035803Y02985D01*
X035791Y029977D01*
X035753Y0301D01*
X035693Y030213D01*
X035612Y030312D01*
X035513Y030393D01*
X0354Y030453D01*
X035277Y030491D01*
X03515Y030503D01*
D02*
G37*
G36*
X035151Y028503D02*
X035051D01*
X034923Y02849D01*
X034801Y028453D01*
X034688Y028392D01*
X034589Y028311D01*
X034508Y028212D01*
X034447Y028099D01*
X03441Y027977D01*
X034397Y027849D01*
X03441Y027722D01*
X034447Y027599D01*
X034508Y027487D01*
X034589Y027388D01*
X034688Y027306D01*
X034801Y027246D01*
X034923Y027209D01*
X035051Y027196D01*
X035151D01*
X035278Y027209D01*
X035401Y027246D01*
X035513Y027306D01*
X035612Y027388D01*
X035694Y027487D01*
X035754Y027599D01*
X035791Y027722D01*
X035804Y027849D01*
X035791Y027977D01*
X035754Y028099D01*
X035694Y028212D01*
X035612Y028311D01*
X035513Y028392D01*
X035401Y028453D01*
X035278Y02849D01*
X035151Y028503D01*
D02*
G37*
G36*
X037325Y026733D02*
X037208D01*
X037198Y026731D01*
X037188D01*
X037074Y026708D01*
X037065Y026705D01*
X037055Y026703D01*
X036948Y026658D01*
X036939Y026653D01*
X03693Y026649D01*
X036833Y026584D01*
X036826Y026577D01*
X036818Y026571D01*
X036736Y026489D01*
X03673Y026481D01*
X036723Y026474D01*
X036658Y026377D01*
X036654Y026368D01*
X036649Y026359D01*
X036604Y026252D01*
X036602Y026242D01*
X036599Y026233D01*
X036576Y026119D01*
Y026109D01*
X036574Y026099D01*
Y025982D01*
X036576Y025973D01*
Y025962D01*
X036599Y025848D01*
X036602Y025839D01*
X036604Y025829D01*
X036649Y025722D01*
X036654Y025713D01*
X036658Y025704D01*
X036723Y025607D01*
X03673Y0256D01*
X036736Y025592D01*
X036818Y02551D01*
X036826Y025504D01*
X036833Y025497D01*
X03693Y025432D01*
X036939Y025429D01*
X036948Y025423D01*
X037055Y025378D01*
X037065Y025377D01*
X037074Y025373D01*
X037188Y02535D01*
X037198D01*
X037208Y025348D01*
X037325D01*
X037334Y02535D01*
X037344D01*
X037459Y025373D01*
X037468Y025377D01*
X037478Y025378D01*
X037585Y025423D01*
X037594Y025429D01*
X037603Y025432D01*
X0377Y025497D01*
X037707Y025504D01*
X037715Y02551D01*
X037797Y025592D01*
X037803Y0256D01*
X03781Y025607D01*
X037875Y025704D01*
X037878Y025713D01*
X037884Y025722D01*
X037928Y025829D01*
X03793Y025839D01*
X037934Y025848D01*
X037957Y025962D01*
Y025973D01*
X037959Y025982D01*
Y026099D01*
X037957Y026109D01*
Y026119D01*
X037934Y026233D01*
X03793Y026242D01*
X037928Y026252D01*
X037884Y026359D01*
X037878Y026368D01*
X037875Y026377D01*
X03781Y026474D01*
X037803Y026481D01*
X037797Y026489D01*
X037715Y026571D01*
X037707Y026577D01*
X0377Y026584D01*
X037603Y026649D01*
X037594Y026653D01*
X037585Y026658D01*
X037478Y026703D01*
X037468Y026705D01*
X037459Y026708D01*
X037344Y026731D01*
X037334D01*
X037325Y026733D01*
D02*
G37*
G36*
X035154Y026499D02*
X035054D01*
X034927Y026487D01*
X034804Y026449D01*
X034691Y026389D01*
X034592Y026308D01*
X034511Y026209D01*
X034451Y026096D01*
X034413Y025973D01*
X034401Y025846D01*
X034413Y025719D01*
X034451Y025596D01*
X034511Y025483D01*
X034592Y025384D01*
X034691Y025303D01*
X034804Y025243D01*
X034927Y025205D01*
X035054Y025193D01*
X035154D01*
X035281Y025205D01*
X035404Y025243D01*
X035517Y025303D01*
X035616Y025384D01*
X035697Y025483D01*
X035757Y025596D01*
X035795Y025719D01*
X035807Y025846D01*
X035795Y025973D01*
X035757Y026096D01*
X035697Y026209D01*
X035616Y026308D01*
X035517Y026389D01*
X035404Y026449D01*
X035281Y026487D01*
X035154Y026499D01*
D02*
G37*
%LPD*%
D29*
X0539Y02885D02*
Y03105D01*
X048472Y036478D02*
X0539Y03105D01*
X046Y036478D02*
X048472D01*
X0549Y03085D02*
X0563Y02945D01*
X054491Y028909D02*
Y031541D01*
X0549Y03195D01*
X054491Y028909D02*
X0558Y0276D01*
X0563Y02945D02*
X05695D01*
X041696Y026871D02*
Y029588D01*
X039825Y025D02*
X041696Y026871D01*
X0412Y0405D02*
X043222Y038478D01*
X03975Y0405D02*
X0412D01*
X03925Y041D02*
X03975Y0405D01*
X035925Y039534D02*
Y040517D01*
X032742Y0437D02*
X035925Y040517D01*
X03205Y0437D02*
X032742D01*
X03765Y03015D02*
Y037809D01*
X035925Y039534D02*
X03765Y037809D01*
X036143Y039624D02*
Y040607D01*
X03205Y0447D02*
X036143Y040607D01*
Y039624D02*
X037868Y037899D01*
Y03024D02*
Y037899D01*
X04246Y030352D02*
X044552D01*
X041696Y029588D02*
X04246Y030352D01*
X04215Y0234D02*
X04265Y0239D01*
Y0249D01*
X04215Y0254D02*
X04265Y0249D01*
X04215Y0254D02*
X04265Y0259D01*
Y0269D01*
X04215Y0274D02*
X04265Y0269D01*
X04215Y0274D02*
X042604Y027854D01*
Y028946D01*
X04215Y0294D02*
X042604Y028946D01*
X04024Y029668D02*
X04085Y029058D01*
X038749Y029668D02*
X04024D01*
X038086Y030331D02*
X038749Y029668D01*
X038086Y030331D02*
Y038772D01*
X04085Y02775D02*
Y029058D01*
X038658Y02945D02*
X04015D01*
X037868Y03024D02*
X038658Y02945D01*
X0388Y029D02*
X0398D01*
X03765Y03015D02*
X0388Y029D01*
X064574Y020576D02*
X06465Y0205D01*
X064643D02*
X06465D01*
X063863Y019017D02*
Y02188D01*
X063644Y019108D02*
Y02179D01*
X062655Y018426D02*
X063426Y019198D01*
Y0217D01*
X064081Y018927D02*
Y021971D01*
X064574Y020576D02*
Y021786D01*
X055Y019478D02*
X056706Y017772D01*
X056Y019478D02*
X057487Y01799D01*
X058Y019478D02*
X059051Y018426D01*
X057Y019478D02*
X058269Y018208D01*
X059051Y018426D02*
X062655D01*
X058269Y018208D02*
X062745D01*
X063644Y019108D01*
X062836Y01799D02*
X063863Y019017D01*
X057487Y01799D02*
X062836D01*
X056706Y017772D02*
X062926D01*
X064081Y018927D01*
X063147Y022904D02*
X064081Y021971D01*
X063057Y022686D02*
X063863Y02188D01*
X062966Y022468D02*
X063644Y02179D01*
X062876Y02225D02*
X063426Y0217D01*
X058184Y02225D02*
X062876D01*
X058275Y022468D02*
X062966D01*
X058764Y022686D02*
X063057D01*
X059124Y022904D02*
X063147D01*
X059215Y023122D02*
X063237D01*
X053902Y026841D02*
X058275Y022468D01*
X063237Y023122D02*
X064574Y021786D01*
X053812Y026622D02*
X058184Y02225D01*
X057019Y025009D02*
X059124Y022904D01*
X05685Y0246D02*
X058764Y022686D01*
X05711Y025227D02*
X059215Y023122D01*
X047574Y021224D02*
X0488Y02245D01*
X044801Y024051D02*
X049349D01*
X04475Y025D02*
X0494D01*
X048265Y02525D02*
X05015D01*
X047611Y025904D02*
X048265Y02525D01*
X048323Y0255D02*
X0509D01*
X046823Y027D02*
X048323Y0255D01*
X048382Y02575D02*
X05165D01*
X046132Y028D02*
X048382Y02575D01*
X048472Y025968D02*
X052432D01*
X047396Y027044D02*
X048472Y025968D01*
X047396Y027044D02*
Y028154D01*
X04655Y029D02*
X047396Y028154D01*
X047614Y027135D02*
Y029236D01*
Y027135D02*
X048562Y026186D01*
X053298D01*
X048653Y026404D02*
X053722D01*
X047832Y027225D02*
X048653Y026404D01*
X047832Y027225D02*
Y029327D01*
X046255Y030904D02*
X047832Y029327D01*
X046345Y031122D02*
X04805Y029417D01*
Y027316D02*
Y029417D01*
Y027316D02*
X048743Y026622D01*
X053812D01*
X046435Y03134D02*
X048268Y029507D01*
Y027406D02*
Y029507D01*
Y027406D02*
X048833Y026841D01*
X053902D01*
X047574Y020051D02*
Y021224D01*
X047Y019478D02*
X047574Y020051D01*
X04975Y0188D02*
X051322D01*
X056173Y025227D02*
X05711D01*
X053722Y026404D02*
X058526Y0216D01*
X056082Y025009D02*
X057019D01*
X054033Y027059D02*
X056082Y025009D01*
X053341Y027059D02*
X054033D01*
X0538Y0276D02*
X056173Y025227D01*
X058526Y0216D02*
X0588D01*
X0528Y0276D02*
X053341Y027059D01*
X049349Y024051D02*
X0518Y0216D01*
X04315Y0224D02*
X044801Y024051D01*
X044654Y025904D02*
X047611D01*
X04475Y027D02*
X046823D01*
X04475Y028D02*
X046132D01*
X04475Y029D02*
X04655D01*
X044654Y029904D02*
X046946D01*
X045454Y030904D02*
X046255D01*
X045322Y031122D02*
X046345D01*
X045232Y03134D02*
X046435D01*
X044462Y03057D02*
X045232Y03134D01*
X044552Y030352D02*
X045322Y031122D01*
X044684Y030134D02*
X045454Y030904D01*
X046946Y029904D02*
X047614Y029236D01*
X04315Y0274D02*
X04475Y029D01*
X04315Y0264D02*
X04475Y028D01*
X04315Y0254D02*
X04475Y027D01*
X04315Y0244D02*
X044654Y025904D01*
X04315Y0234D02*
X04475Y025D01*
X0494D02*
X0528Y0216D01*
X05015Y02525D02*
X0538Y0216D01*
X04315Y0284D02*
X044654Y029904D01*
X043884Y030134D02*
X044684D01*
X04315Y0294D02*
X043884Y030134D01*
X0509Y0255D02*
X0548Y0216D01*
X053298Y026186D02*
X0578Y021684D01*
X052432Y025968D02*
X0568Y0216D01*
X05165Y02575D02*
X0558Y0216D01*
X0578D02*
Y021684D01*
X038073Y044581D02*
X038696Y045204D01*
X038073Y038785D02*
Y044581D01*
Y038785D02*
X038086Y038772D01*
X04925Y0183D02*
X052822D01*
X054Y019478D01*
X03975Y025D02*
X039825D01*
X040382Y028418D02*
Y029218D01*
X04015Y02945D02*
X040382Y029218D01*
Y028418D02*
X0404Y0284D01*
X038696Y045204D02*
X039761D01*
X04022Y044745D01*
X05695Y02945D02*
X0588Y0276D01*
X056359Y029041D02*
X0578Y0276D01*
X055809Y029041D02*
X056359D01*
X0554Y02945D02*
X055809Y029041D01*
X039825Y03325D02*
X042505Y03057D01*
X03975Y03325D02*
X039825D01*
X042505Y03057D02*
X044462D01*
X0548Y0276D02*
Y02795D01*
X0539Y02885D02*
X0548Y02795D01*
X0538Y0276D02*
Y02805D01*
X053Y02885D02*
X0538Y02805D01*
X051322Y0188D02*
X052Y019478D01*
X043222Y038478D02*
X046D01*
X043894Y039478D02*
X046D01*
X042371Y041D02*
X043894Y039478D01*
X04025Y041D02*
X042371D01*
D30*
X03515Y0524D02*
X03665Y0539D01*
X031196Y048546D02*
X03505Y0524D01*
X031196Y027304D02*
Y048546D01*
Y027304D02*
X0355Y023D01*
X0351Y05D02*
X037355Y047745D01*
X0351Y05D02*
Y0504D01*
X03615Y0497D02*
Y05135D01*
Y0497D02*
X0371Y04875D01*
X031532Y039485D02*
X0366Y034417D01*
X031532Y039485D02*
Y046182D01*
X03205Y0467D01*
X037355Y047745D02*
X03922D01*
X0351Y0524D02*
X03615Y05135D01*
X0371Y04875D02*
X04025D01*
X03505Y0524D02*
X0351D01*
X0355Y023D02*
X03975D01*
X04025Y04875D02*
X0415Y0475D01*
Y045025D02*
Y0475D01*
X04022Y043745D02*
X0415Y045025D01*
X03835Y042875D02*
X03922Y043745D01*
X04022D01*
X065Y039478D02*
X0656Y038878D01*
X065Y041478D02*
X0659Y042378D01*
Y05255D01*
X0627Y05575D02*
X0659Y05255D01*
X06265Y05575D02*
X0627D01*
X03665Y0539D02*
X052578D01*
X065Y041478D01*
X03205Y04735D02*
X0351Y0504D01*
X03205Y0467D02*
Y04735D01*
X0366Y02885D02*
Y034417D01*
Y02885D02*
X03945Y026D01*
X038363Y037095D02*
X03925Y037981D01*
X038363Y032562D02*
Y037095D01*
Y032562D02*
X039675Y03125D01*
X03975D01*
X03925Y037981D02*
Y038D01*
X0656Y02075D02*
Y021491D01*
X03945Y026D02*
X03975D01*
X0656Y038878D02*
X0656Y021491D01*
X064228Y04025D02*
X065Y039478D01*
X04465Y04025D02*
X064228D01*
X0429Y042D02*
X04465Y04025D01*
X04025Y042D02*
X0429D01*
X03925D02*
X04025D01*
X0618Y0216D02*
X061878D01*
X03835Y0389D02*
Y042875D01*
Y0389D02*
X03925Y038D01*
X04025D01*
D32*
X065Y046478D02*
D03*
D33*
Y045478D02*
D03*
Y044478D02*
D03*
Y043478D02*
D03*
Y042478D02*
D03*
Y041478D02*
D03*
Y040478D02*
D03*
Y039478D02*
D03*
Y037478D02*
D03*
Y036478D02*
D03*
Y035478D02*
D03*
Y034478D02*
D03*
Y033478D02*
D03*
Y032478D02*
D03*
Y031478D02*
D03*
Y030478D02*
D03*
Y028478D02*
D03*
Y027478D02*
D03*
Y026478D02*
D03*
Y025478D02*
D03*
Y024478D02*
D03*
Y023478D02*
D03*
Y022578D02*
D03*
Y021578D02*
D03*
X063Y019478D02*
D03*
Y020478D02*
D03*
X062Y019478D02*
D03*
Y020478D02*
D03*
X061Y019478D02*
D03*
Y020478D02*
D03*
X06Y019478D02*
D03*
Y020478D02*
D03*
X059D02*
D03*
Y019478D02*
D03*
X058Y020478D02*
D03*
Y019478D02*
D03*
X057Y020478D02*
D03*
Y019478D02*
D03*
X056Y020478D02*
D03*
Y019478D02*
D03*
X055Y020478D02*
D03*
Y019478D02*
D03*
X054Y020478D02*
D03*
Y019478D02*
D03*
X053Y020478D02*
D03*
Y019478D02*
D03*
X052Y020478D02*
D03*
Y019478D02*
D03*
X051Y020478D02*
D03*
Y019478D02*
D03*
X05Y020478D02*
D03*
Y019478D02*
D03*
X049Y020478D02*
D03*
Y019478D02*
D03*
X048Y020478D02*
D03*
Y019478D02*
D03*
X047Y020478D02*
D03*
Y019478D02*
D03*
X046Y020478D02*
D03*
Y019478D02*
D03*
Y023478D02*
D03*
Y024478D02*
D03*
Y025478D02*
D03*
Y026478D02*
D03*
Y027478D02*
D03*
Y028478D02*
D03*
Y029478D02*
D03*
Y030478D02*
D03*
Y032478D02*
D03*
Y033478D02*
D03*
Y034478D02*
D03*
Y035478D02*
D03*
Y036478D02*
D03*
Y037478D02*
D03*
Y038478D02*
D03*
Y039478D02*
D03*
Y041078D02*
D03*
Y042078D02*
D03*
Y043078D02*
D03*
Y044078D02*
D03*
Y045078D02*
D03*
Y046078D02*
D03*
Y047078D02*
D03*
Y048078D02*
D03*
Y049078D02*
D03*
Y050078D02*
D03*
D34*
X065Y051978D02*
D03*
X063Y031478D02*
D03*
X052D02*
D03*
X046Y051478D02*
D03*
X065Y019478D02*
D03*
X046Y021978D02*
D03*
D35*
X06265Y05575D02*
D03*
Y05375D02*
D03*
X0351Y03185D02*
D03*
X035104Y025846D02*
D03*
X035101Y027849D02*
D03*
X0351Y02985D02*
D03*
Y0504D02*
D03*
Y0524D02*
D03*
D36*
X063Y031478D02*
D03*
X044028D02*
D03*
Y05045D02*
D03*
X063D02*
D03*
X03705Y04D02*
D03*
Y0464D02*
D03*
D37*
X03922Y047745D02*
D03*
X03205Y0467D02*
D03*
D38*
X04022Y047745D02*
D03*
X03922Y046745D02*
D03*
X04022D02*
D03*
X03922Y045745D02*
D03*
X04022D02*
D03*
X03922Y044745D02*
D03*
X04022D02*
D03*
X03922Y043745D02*
D03*
X04022D02*
D03*
X03205Y0427D02*
D03*
Y0437D02*
D03*
Y0447D02*
D03*
Y0457D02*
D03*
Y0417D02*
D03*
Y0407D02*
D03*
Y0397D02*
D03*
D39*
X0628Y0216D02*
D03*
X0618D02*
D03*
X0608D02*
D03*
X0598D02*
D03*
X0588D02*
D03*
X0578D02*
D03*
X0568D02*
D03*
X0558D02*
D03*
X0548D02*
D03*
X0538D02*
D03*
X0528D02*
D03*
X0518D02*
D03*
X0508D02*
D03*
X0498D02*
D03*
X0488D02*
D03*
Y0276D02*
D03*
X0498D02*
D03*
X0508D02*
D03*
X0518D02*
D03*
X0528D02*
D03*
X0538D02*
D03*
X0548D02*
D03*
X0558D02*
D03*
X0568D02*
D03*
X0578D02*
D03*
X0588D02*
D03*
X0598D02*
D03*
X0608D02*
D03*
X0618D02*
D03*
D40*
X0628D02*
D03*
D41*
X04315Y0224D02*
D03*
X03925Y042D02*
D03*
D42*
X04315Y0234D02*
D03*
Y0244D02*
D03*
Y0254D02*
D03*
Y0264D02*
D03*
Y0274D02*
D03*
Y0284D02*
D03*
Y0294D02*
D03*
X04215Y0224D02*
D03*
Y0234D02*
D03*
Y0244D02*
D03*
Y0254D02*
D03*
Y0264D02*
D03*
Y0274D02*
D03*
Y0284D02*
D03*
Y0294D02*
D03*
X03925Y041D02*
D03*
Y04D02*
D03*
Y039D02*
D03*
Y038D02*
D03*
X04025Y042D02*
D03*
Y041D02*
D03*
Y04D02*
D03*
Y039D02*
D03*
Y038D02*
D03*
D43*
X03975Y023D02*
D03*
Y026D02*
D03*
Y025D02*
D03*
Y024D02*
D03*
Y022D02*
D03*
Y03125D02*
D03*
Y03425D02*
D03*
Y03325D02*
D03*
Y03225D02*
D03*
Y03025D02*
D03*
Y05D02*
D03*
Y051D02*
D03*
Y052D02*
D03*
D44*
Y027D02*
D03*
Y03525D02*
D03*
Y053D02*
D03*
D45*
X0549Y03085D02*
D03*
Y03195D02*
D03*
X06465Y0205D02*
D03*
X0656Y02075D02*
D03*
X0488Y02245D02*
D03*
X04975Y0188D02*
D03*
X05685Y0246D02*
D03*
X04925Y0183D02*
D03*
X04085Y02775D02*
D03*
X0404Y0284D02*
D03*
X0398Y029D02*
D03*
X0539Y02885D02*
D03*
X053D02*
D03*
X0554Y02945D02*
D03*
X0563D02*
D03*
M02*
