M48
;Layer_Color=9474304
;FILE_FORMAT=2:4
INCH,LZ
;TYPE=PLATED
T1F00S00C0.0236
T2F00S00C0.0300
T3F00S00C0.0335
T4F00S00C0.0340
T5F00S00C0.0354
T6F00S00C0.0600
T7F00S00C0.1181
;TYPE=NON_PLATED
T8F00S00C0.1260
%
T01
X06465Y0205
X0656Y02075
X05685Y0246
X0563Y02945
X0554
X0549Y03085
X0539Y02885
X053
X0488Y02245
X04975Y0188
X04925Y0183
X04085Y02775
X0404Y0284
X0398Y029
X0549Y03195
T02
X03205Y0397
Y0407
Y0417
Y0427
Y0437
Y0447
Y0457
Y0467
X03922Y046745
X04022
Y045745
X03922
Y044745
X04022
Y043745
X03922
Y047745
X04022
T03
X063Y019478
Y020478
X065Y021578
Y022578
Y023478
Y024478
Y025478
Y026478
Y027478
Y028478
Y030478
X062Y020478
Y019478
X061
Y020478
X06
Y019478
X059
Y020478
X058
Y019478
X057
Y020478
X056
Y019478
X055
Y020478
X054
Y019478
X053
Y020478
X052
Y019478
X051
Y020478
X05
Y019478
X049
Y020478
X048
Y019478
X047
Y020478
X046
Y019478
Y023478
Y024478
Y025478
Y026478
Y027478
Y028478
Y029478
Y030478
Y032478
Y033478
Y034478
Y035478
Y036478
Y037478
Y038478
Y039478
Y041078
Y042078
Y043078
Y044078
Y045078
Y046078
X065Y046478
Y045478
Y044478
Y043478
Y042478
Y041478
Y040478
Y039478
Y037478
Y036478
Y035478
Y034478
Y033478
Y032478
Y031478
X046Y047078
Y048078
Y049078
Y050078
T04
X03975Y022
Y023
Y024
Y025
Y026
Y027
Y03025
Y03125
Y03225
Y03325
Y03425
Y03525
Y05
Y051
Y052
Y053
T05
X0628Y0216
Y0276
X0618
X0608
X0598
X0588
X0578
X0568
X0558
X0548
X0538
X0528
X0518
X0508
X0498
X0488
Y0216
X0498
X0508
X0518
X0528
X0538
X0548
X0558
X0568
X0578
X0588
X0598
X0608
X0618
X04315Y0224
Y0234
Y0244
Y0254
Y0264
Y0274
Y0284
Y0294
X04215
Y0284
Y0274
Y0264
Y0254
Y0244
Y0234
Y0224
X04025Y038
X03925
Y039
Y04
Y041
Y042
X04025
Y041
Y04
Y039
T06
X035104Y025846
X035101Y027849
X0351Y02985
Y03185
X06265Y05375
Y05575
X0351Y0524
Y0504
T07
X044028Y031478
X03705Y04
Y0464
X063Y031478
Y05045
X044028
T08
X065Y019478
X046Y021978
X052Y031478
X063
X065Y051978
X046Y051478
M30
